<svg width="176" height="34" viewBox="0 0 176 34" fill="none" xmlns="http://www.w3.org/2000/svg">
<path d="M151.899 21.9642C151.957 21.8967 152.016 21.8293 152.09 21.7794C152.067 21.7694 152.036 21.7519 152.003 21.7319C151.942 21.7844 151.881 21.8343 151.817 21.8868C151.845 21.9117 151.871 21.9392 151.899 21.9642Z" fill="url(#paint0_linear_1405_546)"/>
<path d="M32.9831 2.98869C33.0417 2.92127 33.1003 2.85384 33.0697 2.79891C33.0773 2.78143 33.085 2.76894 33.0926 2.75146C33.029 2.8039 32.9653 2.85634 32.9016 2.91128C32.9297 2.93625 32.9551 2.96371 32.9831 2.99118V2.98869Z" fill="url(#paint1_linear_1405_546)"/>
<path d="M9.98431 24.8833C10.0123 24.9083 10.0378 24.9357 10.0658 24.9607C10.1244 24.8933 10.1829 24.8259 10.2924 24.746C10.2262 24.741 10.2084 24.7235 10.1931 24.7085L9.98431 24.8833Z" fill="url(#paint2_linear_1405_546)"/>
<path d="M94.9287 3.81299H88.5347L89.2426 4.63452C89.4642 4.89172 89.4769 5.02157 89.3063 5.32121C88.8607 6.10529 88.4329 6.91184 88.0204 7.69093C87.6995 8.29272 87.371 8.91698 87.0349 9.52127C86.9305 9.71105 86.8338 9.90083 86.737 10.0931C86.5206 10.5201 86.3168 10.9246 86.0316 11.2842C85.7057 11.6962 85.5096 12.1856 85.3187 12.6576C85.2372 12.8598 85.1531 13.0671 85.0615 13.2694L84.733 13.976H91.2721L91.1982 13.4117C91.1422 12.9972 91.3103 12.6426 91.57 12.1457C92.1608 11.0195 92.7311 9.86337 93.2812 8.74469C93.6708 7.95312 94.0731 7.13158 94.4805 6.33252C94.7912 5.72074 95.0865 5.05653 94.9847 4.25247L94.9287 3.81549V3.81299ZM94.0247 6.10779C93.0418 8.03802 92.1251 9.99821 91.1167 11.916C90.8519 12.4179 90.6151 12.8898 90.6915 13.4741H85.5224C85.8381 12.7949 86.0215 12.1082 86.4314 11.5888C86.8821 11.017 87.1393 10.3703 87.478 9.756C88.247 8.36513 88.9625 6.9443 89.7468 5.56093C90.0065 5.10397 90.004 4.74439 89.6297 4.3099H94.478C94.562 4.97662 94.315 5.53346 94.0247 6.10529V6.10779Z" fill="url(#paint3_linear_1405_546)"/>
<path d="M116.232 6.76214H116.277C116.942 6.76214 117.492 6.5399 117.917 6.10292C118.057 5.96059 118.2 5.82075 118.332 5.6909L118.651 5.38127V3.78564H112.091L112.901 4.62715C113.184 4.91931 113.13 5.06664 112.901 5.5261C112.809 5.70838 112.707 5.91564 112.651 6.14287L112.501 6.75715H113.145C113.464 6.75715 114.683 6.75465 114.979 6.75465C115.399 6.75465 115.814 6.75465 116.229 6.76214H116.232ZM113.148 6.25774C113.303 5.62348 114.011 5.05166 113.273 4.28256H118.144V5.17151C117.966 5.34631 117.754 5.54607 117.551 5.75583C117.194 6.12539 116.756 6.26772 116.242 6.26023C115.231 6.24525 114.217 6.25524 113.15 6.25524L113.148 6.25774Z" fill="url(#paint4_linear_1405_546)"/>
<path d="M112.835 10.2853C112.835 10.6849 112.949 11.1019 112.812 11.409C112.455 12.2006 112.616 13.0096 112.585 13.8112C112.56 14.5179 112.6 15.227 112.572 15.9337C112.557 16.3207 112.453 16.7028 112.384 17.1073C112.56 17.3046 112.776 17.5468 112.949 17.7416C115.376 17.7416 117.708 17.7366 120.043 17.7466C120.578 17.7466 121.095 17.7466 121.584 17.2297C121.352 16.7902 121.098 16.3108 120.708 15.5716C120.861 14.3381 121.095 12.7999 120.991 11.2467C120.97 10.9271 120.988 10.605 120.988 10.3003C122.004 9.67107 122.979 9.1317 123.883 8.49245C124.665 7.9381 125.533 7.45617 125.964 6.51228C126.43 5.49348 126.97 4.50964 127.474 3.5183C127.642 3.77301 127.81 4.0352 127.998 4.31986H135.767C133.934 7.71337 132.129 11.0519 130.308 14.418C131.064 15.4043 131.029 16.7353 132.083 17.4894H137.422C138.38 16.6429 138.591 15.3644 139.337 14.3231C139.083 13.6014 139.495 12.9222 139.882 12.3729C140.967 10.8297 141.591 9.0493 142.625 7.48614C143.047 6.84439 143.361 6.13273 143.702 5.49098H149.879C150.478 4.57956 150.832 3.59322 151.417 2.70177C151.86 2.02506 152.502 1.30591 152.263 0.259639C151.86 0.179733 151.435 0.024915 151.01 0.024915C144.522 0.00993259 138.031 0.0149267 131.528 0.0149267C130.252 1.08367 128.976 2.15241 127.713 3.21366C127.227 2.25479 126.738 1.28843 126.218 0.26713C125.887 0.192218 125.5 0.0299091 125.116 0.027412C119.644 0.00993259 114.169 0.024915 108.697 0.00244141C108.203 0.00244141 107.811 0.18223 107.48 0.434433C106.729 1.00626 106.044 1.66049 105.32 2.26977C105.106 2.44956 104.849 2.57941 104.643 2.76669C104.411 2.97644 104.218 3.22615 104.006 3.45838C103.525 2.37964 103.052 1.32339 102.596 0.297095H83.964C82.6882 1.41578 81.4813 2.47453 80.2055 3.59322C80.3049 3.78549 80.4271 4.02521 80.5468 4.25743C80.8218 4.25743 81.0306 4.24745 81.2394 4.25993C81.4253 4.26992 81.6086 4.30738 81.9167 4.34983C81.5653 4.88919 81.2572 5.29621 81.0204 5.74069C79.821 7.99803 78.6421 10.2654 77.4478 12.5277C77.155 13.0796 76.8341 13.6189 76.3987 14.393C76.3121 14.9623 76.9309 15.5766 77.155 16.3157C77.3256 16.8826 77.5879 17.4244 78.1099 17.7191H96.0261C96.4437 17.1148 96.8894 16.503 97.3019 15.8713C98.1142 14.6252 99.0996 13.4866 99.6496 12.0832C99.833 11.6163 100.054 11.1668 100.276 10.7148C100.841 9.57118 101.386 8.41754 101.992 7.29386C102.616 6.13523 103.085 4.89918 103.805 3.778C103.973 3.93032 104.149 4.09513 104.381 4.30738H105.486C104.689 5.75567 103.92 7.14154 103.166 8.5349C101.804 11.0594 100.439 13.584 99.1047 16.1235C98.9112 16.493 98.873 16.945 98.7762 17.3096C98.9697 17.4994 99.0894 17.6167 99.2142 17.7391H106.637C106.823 17.5168 107.08 17.2921 107.23 17.0149C107.933 15.7214 108.6 14.4105 109.293 13.112C109.805 12.1506 110.332 11.1993 110.828 10.2878H112.84L112.835 10.2853ZM131.706 0.514339H138.851C142.902 0.514339 146.951 0.514339 151 0.524327C151.229 0.524327 151.478 0.586754 151.743 0.654175C151.761 0.659169 151.779 0.661666 151.794 0.66666C151.807 1.22101 151.496 1.67547 151.168 2.15241C151.104 2.2473 151.04 2.33969 150.979 2.43208C150.671 2.89903 150.427 3.38846 150.19 3.8629C149.994 4.25494 149.805 4.6295 149.586 4.99407H143.386L143.243 5.26125C143.137 5.46352 143.032 5.67077 142.925 5.88053C142.699 6.33 142.467 6.79445 142.189 7.21396C141.688 7.97556 141.278 8.78461 140.883 9.56869C140.435 10.4601 140.01 11.3016 139.454 12.0882C139.167 12.4977 138.594 13.3118 138.78 14.2307C138.52 14.6302 138.329 15.0447 138.141 15.4493C137.873 16.0211 137.621 16.5655 137.211 16.9875H132.253C131.846 16.6379 131.657 16.1434 131.444 15.5766C131.293 15.1796 131.138 14.7726 130.894 14.383L136.605 3.81545H128.268L128.087 3.54078L131.703 0.511842L131.706 0.514339ZM103.365 3.51331C102.904 4.22747 102.545 4.98658 102.196 5.72071C101.985 6.16769 101.766 6.62715 101.531 7.06413C101.063 7.93311 100.625 8.82956 100.202 9.69604C100.072 9.96572 99.9399 10.2329 99.8075 10.5001C99.5783 10.9645 99.3517 11.4265 99.1633 11.9059C98.7915 12.8548 98.2109 13.6739 97.5947 14.5428C97.3502 14.8874 97.0982 15.242 96.8639 15.6041C96.5838 16.0336 96.2833 16.4606 95.9905 16.8751C95.909 16.99 95.8275 17.1073 95.746 17.2222H78.2474C77.9826 17.0274 77.789 16.7003 77.6312 16.1759C77.5242 15.8263 77.3485 15.5117 77.1957 15.2345C77.0531 14.9773 76.9054 14.7126 76.8876 14.5353C77.0124 14.3131 77.1295 14.1133 77.2365 13.9236C77.4809 13.4991 77.6897 13.132 77.8883 12.7574C78.3798 11.826 78.8687 10.8946 79.3576 9.96072C80.0553 8.62979 80.753 7.29886 81.4584 5.97292C81.6035 5.70074 81.7843 5.43355 81.9931 5.12891C82.1 4.9691 82.2146 4.80179 82.3343 4.61951L82.7596 3.96278L81.9727 3.85541C81.8709 3.84043 81.7843 3.82794 81.7054 3.81545C81.5347 3.79048 81.4023 3.77051 81.2546 3.76052C81.163 3.75553 81.0688 3.75303 80.972 3.75303H80.8421L80.8192 3.70808L84.1422 0.79401H102.247L103.418 3.41842L103.36 3.50832L103.365 3.51331ZM109.911 10.8971C109.555 11.5464 109.191 12.2106 108.834 12.8798C108.554 13.4067 108.277 13.936 108.002 14.4629C107.604 15.2245 107.192 16.0136 106.774 16.7802C106.701 16.9175 106.573 17.0524 106.441 17.1972C106.428 17.2122 106.413 17.2272 106.4 17.2422H99.4179L99.3288 17.1548C99.3364 17.1223 99.3415 17.0873 99.3491 17.0524C99.4001 16.8052 99.451 16.5505 99.5529 16.3557C100.892 13.8112 102.275 11.2492 103.612 8.77212C104.126 7.81825 104.651 6.86936 105.185 5.89801C105.43 5.45353 106.334 3.81046 106.334 3.81046H104.577L104.46 3.70309C104.5 3.65814 104.539 3.61319 104.577 3.56825C104.714 3.41093 104.844 3.26111 104.982 3.13376C105.063 3.05885 105.17 2.98893 105.282 2.91402C105.402 2.83411 105.524 2.75171 105.646 2.64933C105.898 2.43458 106.145 2.21734 106.395 1.99759C106.843 1.60056 107.309 1.19104 107.785 0.828969C108.078 0.60673 108.363 0.501854 108.682 0.501854C111.676 0.514339 114.666 0.516836 117.652 0.516836C120.138 0.516836 122.623 0.516836 125.108 0.526824C125.302 0.526824 125.528 0.594245 125.747 0.659169C125.786 0.669157 125.821 0.681642 125.859 0.69163L127.099 3.13625L127.018 3.29607C126.865 3.59571 126.71 3.89286 126.555 4.19251C126.198 4.8792 125.829 5.58837 125.498 6.30752C125.187 6.98672 124.584 7.40124 123.942 7.83822C123.822 7.92062 123.703 8.00303 123.583 8.08793C122.974 8.51992 122.33 8.90447 121.648 9.31399C121.342 9.49627 121.031 9.68355 120.716 9.87832L120.479 10.0256V10.3003C120.479 10.3927 120.479 10.4876 120.476 10.5825C120.471 10.8072 120.469 11.0395 120.484 11.2817C120.573 12.6201 120.405 13.9385 120.257 15.0997L120.186 15.6665L120.947 17.1073C120.718 17.2372 120.469 17.2496 120.14 17.2496H120.049C118.966 17.2447 117.884 17.2447 116.792 17.2447H113.184L112.931 16.965C112.939 16.92 112.949 16.8751 112.957 16.8326C113.013 16.553 113.072 16.2633 113.084 15.9587C113.1 15.5816 113.097 15.2046 113.092 14.84C113.089 14.5079 113.084 14.1658 113.097 13.8337C113.105 13.6039 113.097 13.3767 113.094 13.157C113.079 12.6076 113.066 12.0907 113.28 11.6138C113.428 11.2867 113.395 10.9371 113.367 10.6274C113.357 10.5076 113.347 10.3927 113.347 10.2878V9.78843H110.52L109.914 10.8971H109.911Z" fill="url(#paint5_linear_1405_546)"/>
<path d="M56.7408 22.5386L56.1907 24.9632H59.7098L61.1714 23.872L61.095 22.5386H56.7408ZM59.5367 24.4638H56.8248C56.9317 23.9919 57.0336 23.5474 57.1482 23.038H60.6112C60.6214 23.2178 60.6316 23.3776 60.6443 23.6348C60.3031 23.8895 59.9212 24.1741 59.5341 24.4638H59.5367Z" fill="url(#paint6_linear_1405_546)"/>
<path d="M92.6904 23.0679C92.4969 23.4674 92.3212 23.8644 92.1506 24.2515C91.7763 25.098 91.4223 25.897 90.9462 26.6012C90.5336 27.213 90.2077 27.8597 89.8945 28.4865C89.6119 29.0508 89.319 29.6326 88.9651 30.1795L88.4685 30.9461H93.9916V30.4467C93.9916 30.3118 93.984 30.1845 93.9789 30.0596C93.9662 29.8474 93.956 29.6626 93.9942 29.5328C94.0171 29.4504 94.1011 29.338 94.1877 29.2181C94.2717 29.1058 94.3659 28.9784 94.4423 28.8336C95.0636 27.6425 95.5347 26.7161 95.9676 25.8346C96.2222 25.3152 96.4616 24.7983 96.7111 24.249C96.8257 24.0018 96.9403 23.7471 97.06 23.4899L97.3885 22.7832H92.8279L92.6904 23.0679ZM96.5966 23.2826C96.2146 24.1066 95.8759 24.8682 95.5067 25.6174C95.0127 26.6187 94.5034 27.615 93.9865 28.6064C93.8439 28.881 93.5816 29.1158 93.5002 29.4004C93.4136 29.7051 93.4798 30.0522 93.4798 30.4467H89.3929C90.1568 29.2656 90.6049 28.0046 91.3689 26.8759C92.0971 25.8022 92.5402 24.5436 93.1488 23.2801H96.5966V23.2826Z" fill="url(#paint7_linear_1405_546)"/>
<path d="M88.2826 19.4922C88.0025 19.6745 87.7122 19.8193 87.4754 20.0266C87.0145 20.4286 86.574 20.8356 86.0622 21.1927C85.4842 21.5947 84.9392 22.1166 84.8094 22.8657C85.2066 23.0555 85.5453 23.2178 85.9069 23.3901C84.9927 25.1555 84.1218 26.841 83.2739 28.4841H76.605C76.1695 29.0934 75.7545 29.6752 75.3878 30.1921H73.1394C74.82 26.6737 76.9869 23.4425 78.5504 19.9591C78.334 19.7469 78.2143 19.6295 78.1124 19.5296H71.6726C70.6388 20.3687 69.6432 21.1802 68.6628 21.9793C67.7996 21.3125 68.0543 20.0266 67.0994 19.5172H52.1114C51.5563 20.0316 51.0878 20.5884 50.5021 20.9754C49.8859 21.38 49.4021 21.8619 48.9539 22.5686C49.0838 21.4199 48.1315 20.7332 48.1035 19.7394C47.6426 19.6495 47.253 19.5097 46.8634 19.5072C42.1551 19.4922 37.4494 19.4972 32.7539 19.4972C31.6615 20.461 30.5819 21.4149 29.6244 22.2564C29.4207 23.2628 30.1261 23.1779 30.5946 23.3227C29.245 25.8148 27.9158 28.2719 26.4899 30.9063C26.2887 31.8377 27.101 32.6991 27.32 33.643C27.5721 33.7654 27.7478 33.8503 28.0126 33.9801C27.9489 33.9751 27.9897 33.9801 28.0304 33.9801C32.8252 33.9801 37.6175 33.9801 42.4963 33.9801C42.751 33.6306 43.0489 33.256 43.3137 32.8565C43.9427 31.9051 44.7193 31.0611 45.2235 30.0148C46.0638 28.2719 47.0594 26.6013 47.8794 24.8509C48.2231 24.1142 48.4829 23.3576 49.01 22.7808C49.3486 23.0056 49.644 23.2003 50.0132 23.445C49.4836 24.3789 48.9387 25.3178 48.4167 26.2692C47.5025 27.9348 46.6011 29.6078 45.6946 31.2783C45.4349 31.7578 45.17 32.2322 44.8772 32.7641V33.6331C44.9943 33.7479 45.0835 33.8353 45.2031 33.9527H51.1769C51.4265 33.718 51.788 33.5032 51.9663 33.1911C52.8473 31.6404 53.6775 30.0598 54.5305 28.4941C54.6247 28.3193 54.752 28.1645 54.8488 28.0222H56.3461C55.8011 29.9099 56.1703 31.7852 56.0507 33.5556C56.2977 33.9951 56.6262 33.9876 56.9775 33.9876C59.0121 33.9776 61.0441 33.9826 63.0608 33.9826C63.1983 33.8478 63.318 33.7304 63.5039 33.5482C63.402 33.1736 63.3919 32.6867 63.1525 32.367C62.8266 31.9326 62.8189 31.4306 63.0023 31.1085C63.2136 30.734 63.1703 30.4044 63.1805 30.0548C63.206 29.3131 63.1881 28.569 63.1881 27.8823C64.1481 27.2805 65.0597 26.7237 65.9535 26.1444C66.3227 25.9046 66.7811 25.6849 66.9822 25.3353C67.4813 24.4663 67.8531 23.5299 68.286 22.6235C68.3064 22.5786 68.398 22.5661 68.4566 22.5386C68.5126 22.6934 68.5661 22.8358 68.6145 22.9631C68.9506 23.0006 69.2587 23.0355 69.6636 23.0805C68.2427 25.6724 66.8778 28.1545 65.485 30.6965V31.6604C65.8262 32.4744 66.091 33.1112 66.3609 33.7579C66.7352 33.8378 67.0841 33.9751 67.4329 33.9751C71.6752 33.9901 75.9174 33.9901 80.1597 33.9751C80.4653 33.9751 80.7734 33.8328 80.9669 33.7854C82.4158 34.1724 83.801 33.9327 85.1684 33.9751C86.5664 34.0176 87.9669 33.9851 89.3674 33.9851H97.7526C98.2466 33.3958 98.7558 32.8615 99.176 32.2672C99.6954 31.533 100.167 30.7614 100.617 29.9848C101.534 28.4092 102.173 26.7062 102.97 25.0756C103.462 24.0693 104.006 23.088 104.508 22.1316C104.04 21.2152 103.614 20.3886 103.161 19.5047H88.2928L88.2826 19.4922ZM47.6222 24.1717C47.5534 24.3265 47.4847 24.4838 47.4134 24.6386C46.9856 25.5551 46.4967 26.469 46.0231 27.3529C45.5978 28.147 45.1598 28.9685 44.7601 29.7976C44.452 30.4368 44.0344 30.9986 43.5913 31.593C43.3545 31.9101 43.11 32.2397 42.8834 32.5818C42.7102 32.844 42.5167 33.1012 42.3283 33.3509C42.2977 33.3933 42.2646 33.4358 42.2341 33.4757H28.1297L27.7478 33.291C27.6459 32.9738 27.5033 32.6767 27.3633 32.387C27.1239 31.8951 26.9177 31.4656 26.9737 31.0661L31.3305 23.0205L30.7449 22.8407C30.6455 22.8108 30.5386 22.7883 30.4291 22.7658C30.3222 22.7459 30.1465 22.7084 30.1057 22.6734C30.1057 22.6734 30.0879 22.6285 30.0981 22.5036L32.9449 19.9916H38.5979C41.3505 19.9916 44.1031 19.9916 46.8583 20.0016C47.0594 20.0016 47.2835 20.0565 47.5458 20.1214C47.5764 20.1289 47.6095 20.1364 47.64 20.1439C47.724 20.5335 47.9023 20.8781 48.0653 21.1877C48.2995 21.6372 48.5007 22.0267 48.4472 22.5086L48.5414 22.5411C48.1238 23.033 47.8692 23.6123 47.6247 24.1717H47.6222ZM67.8149 22.4038C67.6774 22.6909 67.5475 22.9831 67.4151 23.2727C67.1299 23.907 66.86 24.5063 66.529 25.0806C66.4348 25.2454 66.1674 25.4077 65.9102 25.565C65.8262 25.6175 65.7422 25.6674 65.6607 25.7199C65.0292 26.1294 64.3951 26.5239 63.7229 26.9409C63.453 27.1082 62.6661 27.6001 62.6661 27.6001V27.8748C62.6661 28.0721 62.6661 28.2744 62.6687 28.4791C62.6712 28.986 62.6763 29.5104 62.6585 30.0298C62.6585 30.0972 62.656 30.1671 62.656 30.2346C62.656 30.4843 62.656 30.664 62.5439 30.8588C62.2409 31.3957 62.3122 32.0999 62.7298 32.6567C62.8266 32.7865 62.8724 33.0313 62.9131 33.266C62.9208 33.3034 62.9259 33.3434 62.9335 33.3808L62.8368 33.4757H59.9772C58.9739 33.4757 57.9681 33.4757 56.9623 33.4807H56.8935C56.6949 33.4807 56.6185 33.4732 56.5574 33.4133C56.588 32.829 56.5701 32.2372 56.5574 31.6604C56.5268 30.5067 56.4937 29.3106 56.8273 28.152L57.0107 27.5177H54.5661L54.4159 27.74C54.3879 27.7799 54.3599 27.8199 54.3293 27.8623C54.2478 27.9772 54.1536 28.1046 54.0747 28.2519C53.8073 28.7413 53.545 29.2332 53.2802 29.7227C52.7098 30.7839 52.1191 31.8801 51.5156 32.9414C51.4392 33.0762 51.2686 33.2135 51.1031 33.3459C51.0598 33.3808 51.019 33.4133 50.9783 33.4483H45.4094L45.3814 33.4208V32.8864L45.5927 32.5019C45.7812 32.1598 45.962 31.8352 46.1377 31.5081C46.4407 30.9487 46.7437 30.3919 47.0467 29.8325C47.6502 28.7213 48.2511 27.6076 48.8597 26.4989C49.2188 25.8447 49.5956 25.188 49.9572 24.5512C50.1227 24.2616 50.6778 23.2827 50.6778 23.2827L49.5676 22.5486C49.9088 22.0717 50.2933 21.7046 50.7797 21.385C51.2278 21.0903 51.6047 20.7133 51.9714 20.3462C52.0834 20.2338 52.1955 20.1214 52.3101 20.0116H66.9466C67.1885 20.1889 67.3005 20.481 67.4533 20.918C67.5908 21.3175 67.7462 21.762 68.0874 22.1316C67.9906 22.179 67.8811 22.2589 67.8124 22.4013L67.8149 22.4038ZM103.574 22.7758C103.215 23.4475 102.843 24.1417 102.499 24.8484C102.206 25.4452 101.934 26.0595 101.669 26.6513C101.211 27.6801 100.734 28.7438 100.164 29.7251C99.7693 30.4019 99.2931 31.1984 98.7457 31.97C98.4706 32.3595 98.1498 32.7266 97.8137 33.1137C97.7093 33.2335 97.6049 33.3534 97.5005 33.4757H89.3546C88.9268 33.4757 88.4991 33.4782 88.0713 33.4832C87.646 33.4857 87.2208 33.4882 86.7955 33.4882C86.1691 33.4882 85.6522 33.4807 85.171 33.4657C85.0462 33.4608 84.9214 33.4608 84.7966 33.4608C84.486 33.4608 84.1753 33.4707 83.8647 33.4807C83.5591 33.4907 83.2535 33.5007 82.9454 33.5007C82.1968 33.5007 81.6239 33.4358 81.0891 33.2935L80.9593 33.2585L80.8294 33.291C80.7632 33.3084 80.6868 33.3309 80.6028 33.3609C80.4525 33.4108 80.2845 33.4657 80.147 33.4657C78.008 33.4732 75.8691 33.4757 73.7327 33.4757C71.5963 33.4757 69.5261 33.4732 67.4253 33.4657C67.2572 33.4657 67.0535 33.4108 66.8396 33.3534C66.8014 33.3434 66.7632 33.3334 66.7225 33.3234L65.9841 31.553V30.8139L70.458 22.661L68.976 22.4937L68.9404 22.3963L71.856 20.0266H77.9011L77.9444 20.069C77.1448 21.8045 76.1797 23.5175 75.2452 25.1755C74.3718 26.7262 73.4678 28.3293 72.681 29.9823L72.3423 30.694H75.6552L76.8723 28.986H83.5897L86.5995 23.1654L85.423 22.6035C85.5784 22.2564 85.8814 21.9368 86.3627 21.6022C86.8057 21.2926 87.1979 20.948 87.5773 20.6134L87.8166 20.4036C87.9465 20.2912 88.112 20.1914 88.2877 20.0865C88.3361 20.0565 88.387 20.0266 88.4354 19.9966H102.84L103.93 22.1216C103.815 22.3413 103.696 22.5586 103.579 22.7808L103.574 22.7758Z" fill="url(#paint8_linear_1405_546)"/>
<path d="M37.3629 23.0929C37.0904 23.832 36.6983 24.4912 36.3189 25.1305C36.0286 25.6174 35.7307 26.1193 35.4887 26.6512C35.2876 27.0931 35.038 27.5151 34.7707 27.9596C34.3378 28.6838 33.8922 29.4354 33.6426 30.3243L33.4644 30.9561H38.2439L38.356 30.609C38.3967 30.4817 38.4324 30.3543 38.468 30.227C38.5342 29.9872 38.5953 29.7625 38.6921 29.5777C39.2166 28.5664 39.759 27.5426 40.2861 26.5538C40.6732 25.8246 41.0628 25.093 41.4473 24.3614C41.5542 24.1541 41.6255 23.9493 41.6968 23.7296C41.7274 23.6347 41.763 23.5348 41.8012 23.43L42.0482 22.7607H37.4826L37.3603 23.0904L37.3629 23.0929ZM41.3225 23.2627C41.2003 23.5948 41.129 23.8794 40.994 24.1341C40.0799 25.8746 39.1428 27.605 38.2388 29.353C38.0631 29.6901 37.9944 30.0821 37.8722 30.4592H34.1341C34.5135 29.1083 35.4047 28.062 35.9522 26.8559C36.492 25.6648 37.3425 24.6211 37.8416 23.2651H41.3225V23.2627Z" fill="url(#paint9_linear_1405_546)"/>
<path d="M5.62748 15.6041C5.95087 16.1334 6.23352 16.6878 6.57983 17.3071C6.98979 17.3645 7.46596 17.4843 7.93959 17.4843C13.5823 17.4968 19.2276 17.4918 24.8704 17.4918H25.7005C25.8889 17.1747 26.0163 16.93 26.1716 16.7053C27.0934 15.3918 27.5823 13.8436 28.5321 12.5402C28.858 12.0907 29.0795 11.5139 28.4328 11.022H20.6689C20.3837 11.5588 20.0909 12.1082 19.8388 12.5851C19.5052 12.8273 19.2175 13.0371 18.917 13.2543C17.3892 13.2119 15.8384 13.3068 14.2979 13.1969C14.6391 12.5452 14.9472 11.9608 15.3342 11.2242V10.2504C17.025 10.2504 18.6725 10.2429 20.32 10.2554C20.8981 10.2603 21.4634 10.2728 21.8504 9.92824C22.3851 8.67471 23.1771 7.63094 23.5081 6.39989C23.2305 6.26005 23.0217 6.15268 22.6551 5.97039H18.4001C18.5045 5.39607 18.6012 4.8617 18.7056 4.29237H23.1058C23.2153 4.39974 23.3349 4.5171 23.5005 4.67692V5.48097H31.5852C31.8907 4.91414 32.1963 4.34481 32.5222 3.74052C32.591 3.9228 32.6445 4.06514 32.7056 4.23244C33.1818 4.25491 33.6656 4.27739 34.1596 4.30236C33.5433 5.34114 32.8176 6.23508 32.5834 7.36126C33.3294 8.10538 34.348 8.13285 35.2163 8.48494C35.8682 8.74963 36.6575 8.71966 37.2712 9.03679C37.9256 9.37389 38.631 9.44131 39.3007 9.66605C40.8667 10.1879 42.4607 10.6249 44.0624 11.0994V11.6862C43.8383 11.8635 43.5429 12.0957 43.3163 12.2755C43.3163 12.6026 43.2883 12.8148 43.3239 13.0171C43.352 13.1719 43.4589 13.3118 43.5327 13.4616H37.9893C37.834 12.5327 38.8321 11.9958 38.7328 11.1268C38.6132 11.012 38.4935 10.8946 38.3458 10.7548C36.2119 10.7548 34.0526 10.7598 31.8907 10.7498C31.3535 10.7498 30.8238 10.7248 30.6023 10.9021C29.1585 12.9072 29.1967 15.0947 28.5524 17.0798C28.6925 17.3071 28.8326 17.5318 28.9522 17.7266H48.903C49.3461 17.1822 49.8783 16.6553 50.2552 16.0361C51.0063 14.8 52.0351 13.7313 52.5265 12.3429C52.7302 11.7636 53.0307 11.2142 53.2344 10.6324C53.5196 9.81587 53.9525 9.0218 53.7157 8.10538C53.6062 7.99551 53.4789 7.76329 53.3719 7.77327C52.608 7.84569 51.979 7.43118 51.2915 7.24639C49.8452 6.86185 48.4116 6.43235 46.9805 6.00535C45.7303 5.63329 44.5029 5.1988 43.2043 4.98905C42.7255 4.91164 42.285 4.59951 41.8267 4.39225C43.6244 4.28737 45.3814 4.20997 47.1384 4.29986C47.1384 4.63447 47.1384 4.88417 47.1384 5.13388C47.2581 5.25124 47.3778 5.3686 47.5102 5.49845H54.9023C56.0736 4.6045 55.9819 3.04883 56.7459 1.91017C57.026 1.49067 57.003 0.876388 57.1304 0.294572H36.3469C35.802 0.72157 35.2672 1.10112 34.7809 1.53062C34.264 1.98758 33.8285 2.53943 33.0672 2.79663C33.1003 2.85156 33.0392 2.91898 32.9806 2.98641C32.9526 2.95894 32.9271 2.93397 32.8991 2.9065C32.9628 2.85406 33.0264 2.80162 33.0901 2.74669C33.3422 2.21731 33.6172 1.76784 33.8718 1.35582V0.366987C33.7572 0.254619 33.6681 0.167222 33.5459 0.0473633H13.017C11.8024 1.05618 10.5242 2.11743 9.20513 3.21114C9.20513 3.53077 9.07781 3.97025 9.56672 4.22994C9.85955 4.25991 10.1702 4.28987 10.5827 4.33232C8.81809 7.53605 7.11456 10.6299 5.3703 13.7962C5.42377 14.343 5.25826 14.9998 5.62494 15.6041H5.62748ZM33.3702 3.31102C33.4084 3.26608 33.444 3.22113 33.472 3.17618C34.0399 2.92897 34.4397 2.54443 34.7987 2.20233C34.9056 2.09995 35.0126 1.99757 35.1221 1.90018C35.4455 1.61552 35.7918 1.35083 36.1585 1.07366C36.2807 0.981265 36.4029 0.888873 36.5251 0.791488H56.5345C56.4887 1.12859 56.4479 1.44322 56.3206 1.633C55.9743 2.14739 55.7935 2.71173 55.6178 3.25859C55.3937 3.95277 55.1977 4.55955 54.7164 4.99404H47.719L47.6477 4.92163V3.82042L47.1639 3.79545C46.6291 3.76799 46.0842 3.7555 45.496 3.7555C44.2203 3.7555 42.9649 3.81793 41.7961 3.88785L41.6153 4.84172C41.7503 4.90165 41.8802 4.97157 42.0126 5.04149C42.3538 5.22128 42.7077 5.40856 43.1228 5.47598C44.1057 5.63579 45.0351 5.92295 46.018 6.22759C46.2905 6.31249 46.5604 6.3949 46.8328 6.4773L46.9551 6.51475C48.3276 6.92427 49.7484 7.34877 51.1591 7.72333C51.3526 7.77577 51.5487 7.85068 51.7575 7.93059C52.1777 8.0929 52.6538 8.27518 53.1962 8.27518H53.2039C53.2166 8.29266 53.2319 8.31014 53.2446 8.32762C53.3515 8.88696 53.1504 9.41135 52.9187 10.0156C52.8601 10.1655 52.8041 10.3153 52.7506 10.4651C52.6538 10.7398 52.5342 11.007 52.4094 11.2916C52.2821 11.5763 52.1522 11.8685 52.0453 12.1731C51.7448 13.0221 51.2228 13.7487 50.6728 14.5178C50.3825 14.9199 50.0846 15.3369 49.8197 15.7764C49.5829 16.1684 49.2595 16.538 48.9463 16.895C48.8496 17.0049 48.7553 17.1148 48.6637 17.2222H29.2425L29.1101 17.0074C29.2883 16.4106 29.4157 15.7988 29.5379 15.2045C29.8104 13.8861 30.093 12.5227 30.9588 11.2767C31.0224 11.2617 31.1828 11.2442 31.5292 11.2442H31.8933C32.8966 11.2517 33.8973 11.2517 34.898 11.2517H38.1421L38.2287 11.3341C38.2006 11.5214 38.0912 11.7111 37.9307 11.9758C37.6863 12.3779 37.3833 12.8798 37.4928 13.539L37.5615 13.9585H44.3501L43.9987 13.2418C43.9707 13.1869 43.9402 13.132 43.9096 13.077C43.8816 13.0271 43.8383 12.9547 43.8332 12.9272C43.8179 12.8423 43.8205 12.7299 43.8256 12.5751C43.8256 12.5551 43.8256 12.5352 43.8256 12.5152L44.5768 11.9234V10.7273L44.2152 10.6199C43.7492 10.4826 43.2857 10.3477 42.8223 10.2129C41.7172 9.89078 40.5713 9.55867 39.4687 9.19161C39.2014 9.10171 38.9365 9.03928 38.6794 8.97686C38.2643 8.87698 37.8722 8.78209 37.5131 8.59481C37.1133 8.38755 36.683 8.31014 36.2654 8.23523C35.9573 8.18029 35.6645 8.12536 35.4149 8.02548C35.1119 7.90312 34.8012 7.81822 34.4982 7.73582C34.0068 7.60098 33.5382 7.47363 33.1537 7.18896C33.3498 6.52974 33.7343 5.92794 34.1417 5.29369C34.2971 5.05148 34.4524 4.80676 34.6026 4.55456L35.0253 3.8429L33.0697 3.75051L33.0442 3.68558L33.3676 3.31352L33.3702 3.31102ZM5.88976 13.9086L11.395 3.91282L9.74242 3.74551C9.70422 3.70556 9.69404 3.64064 9.70422 3.45086L13.2055 0.544279H33.3371L33.3651 0.571746V1.22098C33.1436 1.58056 32.9017 1.98009 32.6776 2.44205L32.153 2.87903L32.3236 3.04633L31.2822 4.98156H24.0123V4.46966L23.3171 3.79296H18.2829L17.794 6.46981H22.5328L22.897 6.65459C22.7009 7.20145 22.4157 7.72583 22.1152 8.27518C21.8835 8.70218 21.6416 9.14166 21.4328 9.61611C21.2418 9.73347 20.9515 9.75844 20.5594 9.75844H20.3251C19.6096 9.75095 18.8941 9.75095 18.176 9.75095H14.825V11.1044L13.4932 13.6414L14.2622 13.6963C14.965 13.7462 15.6525 13.7537 16.172 13.7537C16.4725 13.7537 16.7704 13.7537 17.0683 13.7487C17.3637 13.7487 17.6591 13.7438 17.9519 13.7438C18.2702 13.7438 18.586 13.7462 18.9017 13.7562L19.0774 13.7612L20.236 12.9197L20.9795 11.5239H28.2418C28.3768 11.6687 28.4073 11.856 28.117 12.253C27.6027 12.9572 27.2207 13.7238 26.8515 14.4654C26.5052 15.1621 26.1767 15.8188 25.7514 16.4256C25.6343 16.5929 25.5325 16.7702 25.4281 16.955C25.4204 16.9675 25.4128 16.9824 25.4051 16.9974H17.8781C14.5652 16.9974 11.2524 16.9974 7.93959 16.9899C7.65694 16.9899 7.35647 16.935 7.06364 16.8851C7.01016 16.8751 6.95923 16.8676 6.90831 16.8576C6.8421 16.7402 6.78099 16.6229 6.71733 16.508C6.49834 16.106 6.29209 15.7264 6.06546 15.3519C5.87957 15.0447 5.88467 14.6876 5.89231 14.3106C5.89231 14.1807 5.8974 14.0459 5.89231 13.9136L5.88976 13.9086Z" fill="url(#paint10_linear_1405_546)"/>
<path d="M33.11 2.73438C33.11 2.73438 33.0974 2.74436 33.0924 2.74936C33.0848 2.76434 33.0773 2.77932 33.0697 2.7968C33.1427 2.76684 33.1276 2.74936 33.11 2.73438Z" fill="url(#paint11_linear_1405_546)"/>
<path d="M169.718 19.5122H154.888C153.969 20.2663 153.034 21.0329 152.084 21.7795C152.013 21.8294 151.952 21.8969 151.894 21.9643C151.865 21.9393 151.84 21.9118 151.812 21.8869C151.873 21.8344 151.934 21.7845 151.998 21.7321C151.983 21.7221 151.965 21.7121 151.95 21.6996C152.102 21.3026 152.194 20.8706 152.421 20.521C152.734 20.039 152.505 19.7719 152.163 19.4972H146.266C146.078 19.7369 145.828 19.9666 145.685 20.2488C144.916 21.772 144.086 23.2628 143.254 24.7535C142.424 26.2417 141.767 27.8224 140.847 29.2682C140.664 29.5553 140.583 29.9074 140.473 30.1846H136.773C137.328 29.2857 137.733 28.3717 138.263 27.5103C139.218 25.9621 139.982 24.3015 140.845 22.6984C141.122 22.184 141.489 21.7146 141.761 21.1952C141.978 20.7832 142.255 20.3612 142.075 19.8268C141.975 19.7319 141.856 19.612 141.733 19.4922H135.398C134.362 20.4161 133.173 21.1502 132.32 22.1066C131.551 21.385 131.706 20.114 130.794 19.5172H115.977C114.91 20.3911 113.871 21.2451 112.873 22.0617V23.0056C113.212 23.1304 113.525 23.2453 113.846 23.3626C113.675 23.5299 113.476 23.6523 113.382 23.8296C112.593 25.2979 111.826 26.7761 111.047 28.2494C110.576 29.1433 110.097 30.0348 109.512 31.1335C109.731 32.0349 110.176 33.0912 110.879 33.9727C115.496 33.9727 119.995 33.9801 124.492 33.9627C125.004 33.9627 125.516 33.8353 125.87 33.7904C126.259 33.2086 126.534 32.7816 126.824 32.362C127.629 31.2059 128.406 30.0348 128.994 28.7488C129.233 28.2244 129.213 27.8224 128.734 27.4853H122.485C121.895 28.4317 121.271 29.433 120.619 30.4743C120.054 30.4743 119.465 30.4868 118.877 30.4718C118.307 30.4568 117.726 30.5367 117.151 30.4168C117.94 28.9935 118.702 27.6401 119.448 26.2742C119.669 25.8672 119.761 25.3578 120.066 25.0382C120.573 24.5113 120.759 23.902 120.769 23.2802H124.39C124.143 23.9345 123.927 24.5063 123.72 25.0506C123.899 25.2229 124.018 25.3403 124.166 25.4801C125.875 25.4801 127.611 25.4727 129.348 25.4826C129.885 25.4851 130.415 25.5101 130.802 25.198C131.248 24.3215 131.663 23.5075 132.07 22.7034C132.508 22.8657 132.864 22.9981 133.269 23.1504C132.345 24.8659 131.446 26.5389 130.545 28.2094C130.341 28.5865 130.158 28.9785 129.908 29.3231C129.35 30.0922 128.956 30.8938 129.139 31.7702C129.381 32.2297 129.559 32.6192 129.783 32.9838C130.007 33.3484 130.272 33.6855 130.473 33.9702H137.489C139.737 33.9702 141.986 33.9627 144.234 33.9751C144.807 33.9776 145.349 33.8278 145.624 33.3709C146.528 31.8601 147.682 30.4992 148.43 28.8961C148.772 28.162 149.072 27.4079 149.426 26.6787C150.154 25.1905 150.908 23.7122 151.664 22.2015C151.766 22.4937 151.784 22.8208 151.96 22.9856C152.171 23.1828 152.517 23.2453 152.775 23.3526C152.535 23.7422 152.273 24.1342 152.049 24.5487C151.155 26.1818 150.256 27.8124 149.393 29.463C148.835 30.5292 148.13 31.5106 147.654 32.6267C147.412 33.1936 147.336 33.6006 147.852 33.9552H154.038C155.428 32.1148 156.25 29.9374 157.526 27.9772C159.953 27.9772 162.413 27.9622 164.87 27.9922C165.341 27.9972 165.82 27.9597 166.151 27.7125C167.6 26.6288 169.621 26.1369 170.166 24.0793C170.202 23.9395 170.436 23.862 170.507 23.7197C170.841 23.053 171.34 22.4287 171.113 21.6097C170.589 20.943 170.51 19.9666 169.716 19.5097L169.718 19.5122ZM130.407 24.8684C130.229 24.9682 129.974 24.9907 129.618 24.9907H129.353C128.587 24.9857 127.82 24.9832 127.056 24.9832H124.377L124.316 24.9258L125.126 22.7858H120.273L120.265 23.2777C120.255 23.8521 120.072 24.319 119.702 24.7011C119.44 24.9732 119.308 25.3178 119.188 25.62C119.127 25.7748 119.071 25.9196 119.005 26.042C118.47 27.0208 117.927 27.9947 117.372 28.991L116.384 30.7689L117.052 30.9088C117.311 30.9637 117.586 30.9887 117.938 30.9887C118.075 30.9887 118.213 30.9862 118.35 30.9812C118.477 30.9787 118.605 30.9737 118.732 30.9737C118.778 30.9737 118.826 30.9737 118.872 30.9737C119.109 30.9787 119.343 30.9812 119.578 30.9812C119.758 30.9812 120.459 30.9762 120.627 30.9762H120.912L122.778 27.9872H128.561C128.663 28.0921 128.683 28.2244 128.536 28.5465C127.945 29.8425 127.13 31.0511 126.412 32.0824C126.216 32.362 126.027 32.6492 125.808 32.9813C125.735 33.0937 125.658 33.2086 125.574 33.3334C125.533 33.3409 125.49 33.3484 125.444 33.3559C125.152 33.4083 124.818 33.4658 124.497 33.4658C122.058 33.4732 119.621 33.4757 117.164 33.4757H111.141C110.528 32.6367 110.212 31.7503 110.062 31.1959L110.49 30.3919C110.854 29.7102 111.182 29.0934 111.506 28.4791C111.753 28.0122 111.997 27.5452 112.244 27.0758C112.771 26.0695 113.301 25.0631 113.838 24.0618C113.856 24.0269 113.947 23.9494 114.014 23.8945C114.08 23.8396 114.146 23.7796 114.212 23.7172L114.773 23.1704L113.39 22.661V22.2964L116.168 20.0191H130.629C130.899 20.2563 131.029 20.6234 131.174 21.0404C131.309 21.4274 131.461 21.8569 131.752 22.2265L130.41 24.8659L130.407 24.8684ZM151.598 21.1727C151.585 21.2127 151.573 21.2526 151.56 21.2901L151.428 21.5573L151.071 21.8569L151.211 21.9942C150.992 22.4337 150.771 22.8707 150.552 23.3052C150.03 24.3415 149.49 25.4127 148.975 26.469C148.769 26.891 148.581 27.323 148.397 27.7425C148.26 28.0596 148.12 28.3792 147.975 28.6939C147.529 29.6477 146.941 30.5042 146.317 31.4107C145.938 31.9625 145.545 32.5318 145.194 33.1237C145.018 33.4183 144.591 33.4807 144.265 33.4807H144.247C143.221 33.4732 142.194 33.4732 141.166 33.4732H137.496H130.746C130.733 33.4558 130.72 33.4383 130.705 33.4183C130.542 33.1961 130.374 32.9688 130.229 32.7266C130.086 32.4944 129.962 32.2497 129.819 31.965C129.76 31.8501 129.699 31.7303 129.636 31.6079C129.536 31.0236 129.748 30.4218 130.333 29.6128C130.545 29.3206 130.708 29.011 130.863 28.7088C130.909 28.619 130.955 28.5316 131.003 28.4442C131.673 27.2056 132.34 25.9646 133.017 24.7061L133.998 22.8857L132.73 22.4138C133.216 21.8719 133.824 21.4024 134.469 20.903C134.843 20.6134 135.23 20.3137 135.602 19.9916H141.532L141.627 20.084C141.662 20.3087 141.558 20.5185 141.387 20.8406L141.318 20.968C141.189 21.2152 141.036 21.4499 140.873 21.7021C140.715 21.9443 140.549 22.1965 140.407 22.4662C140.111 23.0155 139.824 23.5799 139.544 24.1242C139.011 25.168 138.459 26.2467 137.84 27.2531C137.57 27.69 137.333 28.142 137.102 28.579C136.867 29.0235 136.625 29.4829 136.35 29.9249L135.882 30.684H140.835L140.962 30.3669C140.998 30.2745 141.033 30.1746 141.066 30.0722C141.13 29.88 141.199 29.6827 141.293 29.5329C141.858 28.6439 142.329 27.7 142.785 26.7886C143.081 26.1943 143.389 25.58 143.715 24.9932L143.743 24.9433C144.555 23.49 145.393 21.9868 146.157 20.4685C146.225 20.3312 146.348 20.1914 146.477 20.044C146.493 20.0291 146.505 20.0116 146.521 19.9966H151.985C152.056 20.064 152.069 20.094 152.072 20.104C152.072 20.104 152.072 20.1489 152.003 20.2538C151.812 20.5509 151.708 20.8681 151.606 21.1752L151.598 21.1727ZM170.26 23.1204C170.197 23.2353 170.136 23.3477 170.075 23.4625C170.059 23.475 170.044 23.485 170.031 23.495C169.924 23.5774 169.741 23.7147 169.68 23.9519C169.339 25.2379 168.295 25.8372 167.19 26.469C166.739 26.7262 166.273 26.9934 165.848 27.313C165.634 27.4728 165.236 27.4928 164.959 27.4928H164.883C163.849 27.4803 162.751 27.4728 161.323 27.4728C160.686 27.4728 157.254 27.4778 157.254 27.4778L157.103 27.7075C156.538 28.574 156.059 29.4879 155.596 30.3694C155.02 31.4631 154.478 32.4994 153.785 33.4558H148.038C147.952 33.3634 147.954 33.2285 148.13 32.819C148.408 32.1698 148.764 31.573 149.141 30.9387C149.38 30.5367 149.63 30.1197 149.854 29.6902C150.602 28.2594 151.392 26.8186 152.156 25.4227L152.505 24.7835C152.652 24.5138 152.823 24.2441 152.986 23.9819C153.065 23.8571 153.141 23.7322 153.218 23.6098L153.518 23.1179L152.981 22.8932C152.894 22.8557 152.797 22.8233 152.698 22.7908C152.55 22.7434 152.385 22.6884 152.319 22.6235C152.303 22.596 152.268 22.4562 152.245 22.3638C152.245 22.3563 152.24 22.3488 152.24 22.3388L152.291 22.2814C152.321 22.2464 152.365 22.1965 152.385 22.1815L152.413 22.1615C153.325 21.4424 154.216 20.7133 155.082 20.0041H169.573C169.856 20.2163 170.013 20.5634 170.192 20.958C170.322 21.2451 170.457 21.5423 170.655 21.8194C170.737 22.2365 170.558 22.591 170.268 23.1154L170.26 23.1204Z" fill="url(#paint12_linear_1405_546)"/>
<path d="M152.026 21.7119C152.026 21.7119 152.011 21.7244 152.003 21.7319C152.033 21.7519 152.063 21.7718 152.089 21.7793C152.058 21.7444 152.043 21.7269 152.026 21.7119Z" fill="url(#paint13_linear_1405_546)"/>
<path d="M163.581 22.5186H159.319L158.949 24.9857H162.247L162.385 24.8808C162.479 24.8084 162.606 24.7384 162.738 24.666C163.21 24.4088 163.996 23.9768 163.681 22.8831L163.576 22.5186H163.581ZM162.074 24.4862H159.54C159.619 23.9544 159.688 23.4999 159.759 23.018H163.194C163.467 23.9594 162.591 24.0892 162.071 24.4862H162.074Z" fill="url(#paint14_linear_1405_546)"/>
<path d="M175.926 0.287165H155.224C153.966 1.34342 152.747 2.36971 151.591 3.34107V4.27997H153.011C152.696 5.42862 151.7 6.22518 151.478 7.46872C151.929 7.66349 152.311 7.88573 152.724 7.9931C154.29 8.39513 155.802 8.95697 157.366 9.37148C159.263 9.87588 161.116 10.5276 162.996 11.1169V11.7337C162.774 11.9085 162.479 12.1407 162.173 12.3829C162.257 12.765 162.331 13.0971 162.407 13.4442H156.89C156.89 13.2719 156.851 13.1321 156.897 13.0322C156.979 12.8549 157.129 12.7125 157.221 12.5403C157.511 11.9934 158.035 11.4615 157.269 10.7499C155.148 10.7499 153.027 10.7573 150.906 10.7449C150.328 10.7424 149.76 10.7324 149.283 11.092C149.014 11.7037 148.723 12.293 148.489 12.9048C148.069 14.011 148.041 15.2071 147.717 16.3358C147.644 16.5955 147.537 16.8452 147.445 17.1024C147.672 17.3146 147.886 17.5144 148.122 17.7391C154.407 17.7391 160.727 17.7441 167.047 17.7291C167.472 17.7291 167.897 17.5718 168.137 17.5244C169.076 16.1685 169.912 14.9749 170.734 13.7713C170.976 13.4167 171.241 13.0596 171.391 12.6676C171.928 11.2618 172.422 9.84093 172.929 8.43258C172.644 7.78584 171.959 7.63352 171.429 7.53863C169.705 7.2315 168.109 6.50485 166.39 6.17774C165.55 6.01792 164.758 5.63587 163.892 5.45608C163.059 5.28379 162.293 4.80185 161.397 4.73943C161.244 4.72944 161.104 4.5097 160.859 4.30244H166.013C166.138 4.73194 165.853 5.28878 166.545 5.50353C168.59 5.50353 170.711 5.48855 172.832 5.51352C173.421 5.52101 173.965 5.46358 174.342 5.20888C174.676 4.34989 174.999 3.60326 175.259 2.83667C175.537 2.00764 176.229 1.2735 175.929 0.284668L175.926 0.287165ZM175.111 1.91275C174.989 2.15746 174.864 2.40967 174.773 2.68434C174.599 3.19624 174.396 3.70814 174.177 4.25C174.095 4.45227 174.014 4.65702 173.93 4.86927C173.706 4.97165 173.38 5.0191 172.916 5.0191H172.837C171.877 5.00911 170.917 5.00661 169.963 5.00661C169.382 5.00661 167.162 5.01161 166.637 5.01161C166.599 4.99413 166.586 4.98164 166.586 4.98164C166.563 4.94918 166.563 4.79187 166.563 4.70946C166.563 4.54965 166.561 4.36487 166.505 4.17259L166.4 3.81052H159.487L160.531 4.68949C160.605 4.75191 160.666 4.81434 160.719 4.86927C160.885 5.03658 161.071 5.22386 161.363 5.24383C161.809 5.2738 162.237 5.43361 162.69 5.60341C163.039 5.73326 163.403 5.8706 163.788 5.9505C164.18 6.03291 164.559 6.15776 164.959 6.2926C165.387 6.43493 165.83 6.58476 166.293 6.67215C167.103 6.82697 167.875 7.06919 168.692 7.32638C169.542 7.59357 170.423 7.87074 171.338 8.03305C171.837 8.12295 172.18 8.23032 172.371 8.48252C172.257 8.79965 172.145 9.11678 172.033 9.43141C171.674 10.4377 171.302 11.479 170.912 12.4928C170.803 12.78 170.609 13.0571 170.406 13.3518L170.306 13.4941C169.721 14.3531 169.127 15.2071 168.493 16.121L167.824 17.0874C167.806 17.0924 167.785 17.0974 167.765 17.1024C167.551 17.1598 167.286 17.2297 167.044 17.2322C163.133 17.2422 159.219 17.2447 155.318 17.2447H148.326L148.036 16.9725C148.097 16.8127 148.155 16.6479 148.206 16.4756C148.352 15.9662 148.441 15.4468 148.525 14.9449C148.637 14.2907 148.741 13.6689 148.965 13.0821C149.121 12.6751 149.299 12.2831 149.49 11.8635C149.556 11.7187 149.622 11.5714 149.688 11.4241C149.974 11.2593 150.325 11.2443 150.717 11.2443H150.898C151.863 11.2493 152.828 11.2518 153.793 11.2518H157.045C157.238 11.484 157.159 11.6388 156.912 12.0508C156.861 12.1382 156.808 12.2256 156.762 12.3105C156.737 12.358 156.696 12.4129 156.65 12.4728C156.576 12.5727 156.492 12.6851 156.426 12.8274C156.339 13.0122 156.355 13.192 156.365 13.3243C156.367 13.3618 156.373 13.4042 156.373 13.4467V13.9461H163.029L162.728 12.5802L163.497 11.9734V10.7524L163.143 10.6425C162.578 10.4652 162.015 10.2829 161.453 10.0981C160.164 9.67862 158.83 9.24413 157.49 8.88954C156.752 8.69477 156.008 8.46005 155.288 8.23282C154.493 7.98311 153.673 7.72342 152.846 7.51117C152.614 7.45124 152.382 7.34137 152.113 7.21402C152.097 7.20652 152.082 7.19903 152.067 7.19404C152.209 6.77204 152.454 6.38749 152.708 5.98796C153.014 5.50852 153.33 5.0141 153.495 4.41231L153.668 3.78305H152.092V3.5733L155.405 0.789075H175.481C175.478 1.16363 175.3 1.51822 175.104 1.91525L175.111 1.91275Z" fill="url(#paint15_linear_1405_546)"/>
<path d="M30.2178 20.4684C30.3069 20.2986 30.3171 20.0888 30.368 19.8741C30.2254 19.7642 30.093 19.6618 29.874 19.492C28.2163 19.492 26.4415 19.477 24.6667 19.502C24.1956 19.5095 23.7271 19.6368 23.4139 19.6843C22.4997 21.5496 21.6569 23.2676 20.8166 24.9831C20.7631 24.9781 20.7096 24.9706 20.6587 24.9656V24.2464C20.6587 22.9155 20.6714 21.5846 20.6485 20.2536C20.6434 19.9989 20.4983 19.7442 20.4168 19.492C19.0417 19.492 17.7737 19.5245 16.5056 19.4795C15.7416 19.4521 15.1509 19.7093 14.6645 20.2511C14.0636 20.9203 13.4856 21.6145 12.8592 22.2588C12.0418 23.1028 11.1862 23.9093 10.295 24.7458C10.1855 24.8257 10.1269 24.8932 10.0683 24.9606C10.0403 24.9356 10.0149 24.9081 9.98685 24.8832L10.1957 24.7084C10.2135 24.7234 10.2288 24.7408 10.295 24.7458C10.2746 24.7209 10.2033 24.7059 10.132 24.6909C10.3102 24.3513 10.4783 24.0042 10.6693 23.6696C11.232 22.6907 11.8101 21.7219 12.3728 20.743C12.658 20.2486 12.5969 19.8191 12.1156 19.4995H5.94831C4.82536 20.5807 3.22115 21.2225 2.50053 22.868C2.98688 23.0453 3.41977 23.2001 3.80172 23.34C3.56491 23.9468 3.323 24.5561 3.08619 25.1703C2.49034 26.716 1.90468 28.2667 1.30119 29.8099C0.906499 30.8137 0.465977 31.8 0.0865683 32.8088C-0.0611211 33.1984 -0.0483893 33.6104 0.392133 33.94H8.39283C10.1447 32.0023 11.9323 30.0221 13.702 28.0619C13.9108 29.9172 14.1222 31.7875 14.3462 33.7702C14.8453 33.8376 15.3571 33.9575 15.869 33.965C17.7762 33.9875 19.686 33.96 21.5932 33.9825C22.1789 33.99 22.7263 33.95 23.0574 33.6978C23.8875 32.3719 24.3509 31.0559 25.1581 29.8823C25.8787 28.836 26.3396 27.6224 26.9966 26.5162C28.1603 24.5511 29.161 22.4935 30.2203 20.4684H30.2178ZM25.7794 27.7298C25.4459 28.3965 25.1327 29.0258 24.7354 29.6026C24.2847 30.2568 23.9486 30.9311 23.5947 31.6427C23.3171 32.1996 23.0294 32.7739 22.6831 33.3432C22.4157 33.4831 21.8911 33.4831 21.7103 33.4831H21.6008C20.9668 33.4756 20.3353 33.4731 19.7013 33.4731H17.8755C17.2084 33.4731 16.5438 33.4731 15.8766 33.4656C15.5634 33.4606 15.2426 33.4081 14.9039 33.3507C14.8733 33.3457 14.8428 33.3407 14.8097 33.3357L14.0814 26.8883L8.16111 33.4406H0.585657C0.49908 33.3357 0.478709 33.2059 0.562739 32.9811C0.774088 32.4268 1.00581 31.865 1.23243 31.3206C1.41577 30.8786 1.60166 30.4341 1.77736 29.9872C2.17459 28.9759 2.56164 27.962 2.95123 26.9482C3.15494 26.4139 3.35865 25.8795 3.56491 25.3476C3.72788 24.9256 3.89339 24.5036 4.05891 24.0841L4.46378 23.0503L3.2186 22.5984C3.6744 21.8767 4.34919 21.3823 5.05708 20.8629C5.42376 20.5932 5.80317 20.316 6.15202 20.0014H11.9425C12.0647 20.1163 12.0774 20.2461 11.9323 20.5008C11.6598 20.9728 11.3848 21.4422 11.1098 21.9117C10.8144 22.4161 10.519 22.9205 10.2262 23.4274C10.0887 23.6671 9.96394 23.9118 9.84171 24.1465C9.78824 24.2539 9.65837 24.5011 9.65837 24.5011L9.23567 24.8532L9.39355 25.008L9.37063 25.0505L9.45212 25.068L9.70675 25.3202L10.0963 25.6997L10.4452 25.3002L10.6234 25.1329L11.7031 24.3513L11.4714 24.3338C12.0825 23.752 12.6605 23.1927 13.2284 22.6058C13.6562 22.1639 14.0636 21.6994 14.4583 21.2499C14.6543 21.0277 14.8479 20.803 15.0465 20.5832C15.4234 20.1637 15.841 19.9789 16.4012 19.9789C16.4292 19.9789 16.4597 19.9789 16.4903 19.9789C16.9537 19.9939 17.4528 20.0014 18.0665 20.0014C18.4433 20.0014 18.8202 19.9989 19.2073 19.9964C19.4899 19.9964 19.7751 19.9914 20.0654 19.9914C20.1061 20.0938 20.1392 20.1937 20.1418 20.2611C20.1596 21.2425 20.1571 22.2438 20.1545 23.2126V25.4101L20.758 25.48L21.1196 25.5224L23.7627 20.1288C23.7831 20.1238 23.8009 20.1213 23.8213 20.1163C24.0861 20.0638 24.3891 20.0039 24.6769 19.9989C25.372 19.9889 26.1334 19.9839 27.0704 19.9839C27.5568 19.9839 29.3113 19.9889 29.7008 19.9889L29.8129 20.0763C29.8002 20.1437 29.7849 20.2062 29.7671 20.2411C29.4895 20.7755 29.2145 21.3099 28.9395 21.8442C28.1858 23.3125 27.4091 24.8282 26.5561 26.264C26.2709 26.746 26.0213 27.2454 25.7794 27.7273V27.7298Z" fill="url(#paint16_linear_1405_546)"/>
<path d="M57.2348 4.30726H58.1235C57.4079 5.58326 56.7102 6.78435 56.0558 8.00791C54.8514 10.2628 53.68 12.5326 52.4832 14.7924C52.1904 15.3443 51.8619 15.8787 51.5156 16.4829V17.4168C51.6531 17.5517 51.7423 17.6391 51.8492 17.744H53.8608C55.3887 17.744 56.9139 17.7415 58.4418 17.744C59.0478 17.744 59.5672 17.5891 59.8677 17.0298C60.6393 15.5965 61.3981 14.1582 62.162 12.7199C62.5974 11.8958 63.0303 11.0718 63.4606 10.2503H64.7899C67.5476 10.2503 70.3053 10.2328 73.0605 10.2678C73.5443 10.2727 73.9721 10.1454 74.3133 9.91567C75.3013 9.24895 76.2791 8.57474 77.3103 7.97295C77.6796 7.7582 77.9189 7.32372 78.199 6.97662C79.0393 5.93036 79.4493 4.65436 80.1088 3.5107C80.1725 3.39833 80.2641 3.23603 80.2285 3.14114C80.0452 2.67668 79.8287 2.22222 79.6072 1.77025C79.3704 1.28332 79.1157 0.806384 78.8254 0.239551C78.474 0.174627 78.0463 0.0273007 77.6185 0.0248037C72.2303 0.00982128 66.8448 0.0198095 61.4567 0.00732422C60.8481 0.00732422 60.3897 0.227066 59.9059 0.574157C59.1267 1.131 58.536 1.91758 57.7466 2.40201C57.138 2.77407 56.8274 3.23103 56.5065 3.89525C56.6593 3.98265 56.8426 4.08503 57.2322 4.30976L57.2348 4.30726ZM58.0191 2.82401C58.4952 2.53185 58.895 2.1523 59.2795 1.78274C59.5902 1.48808 59.8805 1.20841 60.2064 0.976184C60.68 0.636584 61.0314 0.506737 61.4541 0.506737C63.947 0.511731 66.4348 0.514228 68.9252 0.514228C71.8229 0.514228 74.7207 0.514228 77.6185 0.524216C77.8553 0.524216 78.115 0.586643 78.3671 0.649069C78.4053 0.659057 78.446 0.669046 78.4817 0.676537L78.6345 0.973687C78.8178 1.32827 78.9884 1.65788 79.1488 1.98749C79.3653 2.43447 79.5461 2.81652 79.7039 3.19857C79.6912 3.22354 79.6759 3.25101 79.6657 3.26599C79.4162 3.70048 79.2023 4.14995 78.9935 4.58694C78.6345 5.33855 78.2983 6.05021 77.7993 6.66949C77.7203 6.76687 77.6439 6.87175 77.5701 6.97413C77.3944 7.21385 77.2314 7.44108 77.0506 7.54595C76.1416 8.07783 75.2656 8.66963 74.4177 9.24146L74.0255 9.50615C73.7683 9.67845 73.445 9.77084 73.0936 9.77084H73.0681C71.8917 9.75586 70.6363 9.74836 68.999 9.74836C68.2962 9.74836 67.596 9.74836 66.8932 9.74836C66.1929 9.74836 65.4901 9.74836 64.7899 9.74836H63.15L62.5898 10.8146C62.297 11.3715 62.0041 11.9308 61.7087 12.4876L61.4083 13.0545C60.7462 14.303 60.0842 15.5515 59.417 16.7951C59.2922 17.0273 59.0885 17.242 58.4519 17.242H58.4418C57.795 17.242 57.1482 17.2395 56.5014 17.2395H52.058L52.0224 17.2046V16.6103C52.1115 16.458 52.1981 16.3081 52.2846 16.1633C52.5138 15.7738 52.7302 15.4042 52.934 15.0197C53.4356 14.0708 53.9347 13.1169 54.4338 12.1655C55.1086 10.877 55.8088 9.5436 56.504 8.23764C56.9496 7.40362 57.4105 6.59208 57.8968 5.73059C58.1184 5.34105 58.3424 4.94651 58.5665 4.54449L58.9816 3.80536H57.3697L57.1788 3.69798C57.3926 3.32842 57.632 3.05873 58.014 2.82401H58.0191Z" fill="url(#paint17_linear_1405_546)"/>
<path d="M65.569 5.43864C65.4646 5.65589 65.3475 5.9006 65.3169 6.18277L65.2634 6.72963H69.633L69.7807 6.58979C69.9055 6.46993 70.0608 6.36006 70.2238 6.2427C70.7636 5.85565 71.5046 5.32628 71.2805 4.19261L71.2016 3.78809H64.716L65.5563 4.63459C65.816 4.89678 65.7727 5.01664 65.5716 5.43615L65.569 5.43864ZM65.9204 4.29H70.7814C70.9979 5.3887 70.0277 5.66338 69.4268 6.23271H65.8236C65.8848 5.60844 66.6716 5.0516 65.9179 4.29H65.9204Z" fill="url(#paint18_linear_1405_546)"/>
<path d="M84.1473 0.799316L80.8243 3.71339L80.8472 3.75833H80.9771C81.0739 3.75833 81.1681 3.75833 81.2598 3.76583C81.4049 3.77581 81.5399 3.79579 81.7105 3.82076C81.7894 3.83325 81.876 3.84573 81.9778 3.86071L82.7647 3.96809L82.3394 4.62482C82.2197 4.8071 82.1077 4.9744 81.9982 5.13422C81.7894 5.44135 81.6086 5.70604 81.4635 5.97822C80.7581 7.30416 80.0604 8.6351 79.3627 9.96603C78.8738 10.8974 78.3849 11.8313 77.8935 12.7627C77.6974 13.1348 77.486 13.5019 77.2416 13.9289C77.1346 14.1186 77.0175 14.3184 76.8927 14.5406C76.908 14.7179 77.0557 14.9826 77.2008 15.2398C77.3562 15.517 77.5293 15.8291 77.6363 16.1812C77.7941 16.7056 77.9877 17.0352 78.2525 17.2275H95.7511C95.8326 17.1126 95.9141 16.9978 95.9956 16.8804C96.2859 16.4659 96.5889 16.0389 96.869 15.6094C97.1058 15.2473 97.3579 14.8927 97.5998 14.5481C98.216 13.6792 98.7966 12.8576 99.1684 11.9112C99.3568 11.4318 99.5834 10.9698 99.8126 10.5054C99.945 10.2382 100.075 9.96853 100.207 9.70134C100.63 8.83486 101.068 7.93592 101.536 7.06944C101.771 6.63245 101.99 6.17299 102.201 5.72602C102.547 4.99188 102.909 4.23527 103.37 3.51862L103.428 3.42872L102.257 0.804311H84.1524L84.1473 0.799316ZM94.4805 6.3353C94.0731 7.13436 93.6708 7.9534 93.2812 8.74746C92.7311 9.86615 92.1608 11.0248 91.57 12.1485C91.3103 12.6429 91.1422 13 91.1982 13.4145L91.2721 13.9788H84.733L85.0615 13.2721C85.1557 13.0724 85.2397 12.8626 85.3187 12.6604C85.5096 12.1884 85.7057 11.699 86.0316 11.287C86.3168 10.9249 86.5206 10.5229 86.737 10.0959C86.8338 9.9036 86.9305 9.71133 87.0349 9.52405C87.3685 8.91976 87.6995 8.2955 88.0204 7.6937C88.4354 6.91462 88.8632 6.10807 89.3063 5.32399C89.4769 5.02434 89.4642 4.8945 89.2426 4.6373L88.5347 3.81577H94.9287L94.9847 4.25275C95.0865 5.0593 94.7937 5.72352 94.4805 6.33281V6.3353Z" fill="white"/>
<path d="M136.608 3.8207L130.896 14.3883C131.141 14.7778 131.293 15.1848 131.446 15.5819C131.66 16.1462 131.848 16.6406 132.256 16.9927H137.214C137.624 16.5732 137.878 16.0288 138.143 15.4545C138.332 15.05 138.525 14.6355 138.782 14.236C138.596 13.3145 139.169 12.5005 139.457 12.0935C140.012 11.3069 140.435 10.4654 140.886 9.57394C141.28 8.78986 141.69 7.98081 142.192 7.21921C142.469 6.7997 142.701 6.33525 142.928 5.88577C143.035 5.67602 143.139 5.46627 143.246 5.2665L143.389 4.99932H149.589C149.808 4.63724 149.996 4.26268 150.193 3.86815C150.429 3.39371 150.674 2.90428 150.982 2.43733C151.043 2.34494 151.107 2.25255 151.17 2.15766C151.499 1.68072 151.809 1.22875 151.797 0.671908C151.779 0.666914 151.761 0.66192 151.746 0.659422C151.481 0.592002 151.231 0.529575 151.002 0.529575C146.954 0.519587 142.907 0.51709 138.854 0.51709H131.708L128.093 3.54852L128.273 3.8232H136.61L136.608 3.8207Z" fill="white"/>
<path d="M113.344 10.2854C113.344 10.3903 113.354 10.5052 113.364 10.625C113.392 10.9347 113.425 11.2843 113.278 11.6114C113.064 12.0883 113.077 12.6077 113.092 13.1546C113.097 13.3743 113.105 13.6015 113.094 13.8313C113.082 14.1634 113.087 14.5055 113.089 14.8376C113.092 15.2022 113.097 15.5792 113.082 15.9563C113.069 16.2584 113.01 16.5481 112.954 16.8302C112.947 16.8752 112.937 16.9176 112.929 16.9626L113.181 17.2448H116.789C117.882 17.2448 118.964 17.2448 120.046 17.2498H120.138C120.466 17.2498 120.716 17.2373 120.945 17.1074L120.184 15.6666L120.255 15.0998C120.403 13.9361 120.571 12.6202 120.481 11.2818C120.466 11.0421 120.469 10.8073 120.474 10.5826C120.474 10.4877 120.476 10.3928 120.476 10.3004V10.0258L120.713 9.87842C121.029 9.68365 121.34 9.49637 121.645 9.31409C122.328 8.90457 122.972 8.52002 123.58 8.08803C123.698 8.00313 123.82 7.92073 123.939 7.83832C124.581 7.39884 125.185 6.98433 125.495 6.30762C125.824 5.58597 126.193 4.87681 126.552 4.19261C126.707 3.89296 126.863 3.59581 127.015 3.29617L127.097 3.13635L125.857 0.69173C125.821 0.681742 125.783 0.671753 125.745 0.659268C125.526 0.594344 125.299 0.529421 125.106 0.526924C122.62 0.519433 120.135 0.516935 117.65 0.516935C114.663 0.516935 111.674 0.514438 108.679 0.501953C108.361 0.501953 108.076 0.60683 107.783 0.829068C107.307 1.19364 106.841 1.60316 106.392 1.99769C106.145 2.21743 105.896 2.43468 105.644 2.64943C105.522 2.75181 105.399 2.83421 105.28 2.91412C105.168 2.98903 105.061 3.05894 104.979 3.13386C104.842 3.26121 104.712 3.41103 104.574 3.56835C104.536 3.61329 104.495 3.65824 104.457 3.70319L104.574 3.81056H106.331C106.331 3.81056 105.43 5.45113 105.183 5.89811C104.648 6.86697 104.124 7.81835 103.609 8.77222C102.272 11.2493 100.89 13.8113 99.5503 16.3558C99.4485 16.5506 99.3975 16.8053 99.3466 17.0525C99.339 17.0874 99.3339 17.1199 99.3262 17.1549L99.4154 17.2423H106.397C106.41 17.2273 106.426 17.2123 106.438 17.1973C106.571 17.055 106.698 16.9201 106.772 16.7803C107.189 16.0137 107.599 15.2246 107.999 14.463C108.277 13.9337 108.552 13.4068 108.832 12.8799C109.188 12.2107 109.552 11.5465 109.909 10.8972L110.515 9.78853H113.341V10.2879L113.344 10.2854ZM113.148 6.7546H112.504L112.654 6.14032C112.71 5.91309 112.812 5.70583 112.903 5.52355C113.133 5.06409 113.186 4.91676 112.903 4.6246L112.094 3.78309H118.653V5.37872L118.335 5.68835C118.202 5.8182 118.057 5.95554 117.92 6.10037C117.495 6.53735 116.945 6.75959 116.28 6.75959H116.234C115.819 6.7521 115.404 6.7521 114.984 6.7521C114.688 6.7521 113.469 6.7546 113.15 6.7546H113.148Z" fill="white"/>
<path d="M48.0653 21.1878C47.9023 20.8757 47.7266 20.5336 47.64 20.144C47.6069 20.1365 47.5764 20.129 47.5458 20.1215C47.2861 20.0591 47.0595 20.0042 46.8583 20.0017C44.1031 19.9917 41.3505 19.9917 38.5979 19.9917H32.9449L30.0981 22.5062C30.0879 22.6311 30.1057 22.676 30.1057 22.676C30.1439 22.711 30.3222 22.7485 30.4291 22.7684C30.5386 22.7909 30.6456 22.8134 30.7449 22.8433L31.3305 23.0231L26.9737 31.0687C26.9177 31.4682 27.1239 31.8952 27.3633 32.3896C27.5033 32.6793 27.6485 32.9764 27.7478 33.2936L28.1297 33.4783H42.2341C42.2646 33.4359 42.2977 33.3959 42.3283 33.3535C42.5142 33.1038 42.7077 32.8466 42.8834 32.5844C43.11 32.2423 43.3545 31.9152 43.5913 31.5955C44.0344 31.0012 44.452 30.4394 44.7601 29.8002C45.1599 28.9711 45.5978 28.1496 46.0231 27.3555C46.4967 26.4716 46.9856 25.5577 47.4134 24.6412C47.4872 24.4864 47.556 24.3291 47.6222 24.1743C47.8692 23.6149 48.1238 23.0356 48.5389 22.5437L48.4447 22.5112C48.5007 22.0293 48.297 21.6398 48.0627 21.1903L48.0653 21.1878ZM41.8038 23.4327C41.7656 23.5375 41.7325 23.6374 41.6993 23.7323C41.6255 23.952 41.5568 24.1568 41.4498 24.3641C41.0653 25.0957 40.6783 25.8248 40.2887 26.5565C39.7616 27.5453 39.2192 28.5691 38.6946 29.5804C38.5979 29.7652 38.5368 29.9899 38.4706 30.2297C38.4349 30.357 38.3993 30.4844 38.3585 30.6117L38.2465 30.9588H33.4669L33.6452 30.327C33.8947 29.4381 34.3403 28.689 34.7732 27.9623C35.038 27.5153 35.2901 27.0958 35.4913 26.6539C35.7332 26.1245 36.0311 25.6201 36.3214 25.1332C36.7008 24.4939 37.0955 23.8347 37.3654 23.0955L37.4877 22.7659H42.0533L41.8063 23.4351L41.8038 23.4327Z" fill="white"/>
<path d="M66.9517 20.0117H52.3152C52.2006 20.1241 52.086 20.2365 51.9765 20.3463C51.6098 20.7109 51.233 21.0904 50.7848 21.3851C50.2985 21.7072 49.9139 22.0718 49.5727 22.5487L50.683 23.2829C50.683 23.2829 50.1278 24.2617 49.9623 24.5514C49.5982 25.1881 49.2239 25.8474 48.8648 26.4991C48.2563 27.6078 47.6528 28.719 47.0518 29.8327C46.7488 30.392 46.4458 30.9489 46.1428 31.5082C45.9645 31.8353 45.7863 32.1599 45.5979 32.502L45.3865 32.8866V33.4209L45.4145 33.4484H50.9834C51.0242 33.4159 51.0649 33.381 51.1082 33.346C51.2737 33.2137 51.4443 33.0763 51.5207 32.9415C52.1242 31.8778 52.715 30.7815 53.2853 29.7228C53.5502 29.2334 53.815 28.7414 54.0798 28.252C54.1613 28.1047 54.253 27.9749 54.3344 27.8625C54.365 27.82 54.3956 27.7801 54.421 27.7401L54.5713 27.5179H57.0158L56.8324 28.1521C56.4989 29.3108 56.5294 30.5069 56.5625 31.6605C56.5778 32.2373 56.5956 32.8316 56.5625 33.4135C56.6211 33.4734 56.7 33.4809 56.8986 33.4809H56.9674C57.9732 33.4759 58.979 33.4759 59.9823 33.4759H62.8419L62.9386 33.381C62.931 33.3435 62.9234 33.3036 62.9183 33.2661C62.875 33.0289 62.8317 32.7867 62.7349 32.6568C62.3173 32.1 62.246 31.3958 62.549 30.859C62.6585 30.6667 62.6585 30.4844 62.6611 30.2347C62.6611 30.1673 62.6611 30.0999 62.6636 30.0299C62.6814 29.5105 62.6789 28.9862 62.6738 28.4793C62.6738 28.2745 62.6713 28.0722 62.6713 27.875V27.6003C62.6713 27.6003 63.4581 27.1084 63.728 26.9411C64.4002 26.5241 65.0343 26.1295 65.6658 25.72C65.7447 25.6676 65.8288 25.6176 65.9153 25.5652C66.1725 25.4104 66.4373 25.2481 66.5341 25.0808C66.8651 24.5064 67.135 23.9071 67.4202 23.2729C67.5501 22.9832 67.6825 22.6911 67.82 22.4039C67.8888 22.2616 67.9983 22.1817 68.095 22.1342C67.7538 21.7622 67.601 21.3202 67.461 20.9206C67.3107 20.4837 67.1987 20.189 66.9543 20.0142L66.9517 20.0117ZM59.7073 24.9634H56.1882L56.7382 22.5387H61.0925L61.1689 23.8722L59.7073 24.9634Z" fill="white"/>
<path d="M88.4328 19.9913C88.3845 20.0213 88.3335 20.0513 88.2852 20.0812C88.1095 20.1861 87.9439 20.286 87.8141 20.3983L87.5747 20.6081C87.1953 20.9427 86.8032 21.2873 86.3601 21.5969C85.8788 21.934 85.5758 22.2537 85.4205 22.5983L86.5969 23.1601L83.5871 28.9807H76.8698L75.6526 30.6887H72.3398L72.6785 29.9771C73.4678 28.3265 74.3692 26.7209 75.2427 25.1702C76.1772 23.5122 77.1397 21.8017 77.9418 20.0637L77.8985 20.0213H71.8534L68.9378 22.391L68.9735 22.4884L70.4555 22.6557L65.9815 30.8086V31.5477L66.72 33.3181C66.7581 33.3281 66.7989 33.3381 66.8371 33.3481C67.051 33.4055 67.2521 33.458 67.4228 33.4605C69.5261 33.468 71.6294 33.4705 73.7301 33.4705C75.8309 33.4705 78.008 33.468 80.1444 33.4605C80.2819 33.4605 80.45 33.4055 80.6002 33.3556C80.6842 33.3281 80.7632 33.3032 80.8268 33.2857L80.9567 33.2532L81.0866 33.2882C81.6239 33.4305 82.1942 33.4954 82.9429 33.4954C83.251 33.4954 83.5565 33.4854 83.8621 33.4755C84.1753 33.4655 84.486 33.4555 84.7941 33.4555C84.9189 33.4555 85.0436 33.4555 85.1684 33.4605C85.6497 33.4755 86.1666 33.4829 86.793 33.4829C87.2182 33.4829 87.6435 33.4805 88.0687 33.478C88.4965 33.4755 88.9243 33.4705 89.3521 33.4705H97.4979C97.6023 33.3481 97.7067 33.2282 97.8111 33.1084C98.1472 32.7213 98.4681 32.3543 98.7431 31.9647C99.2906 31.1931 99.7667 30.3966 100.161 29.7199C100.734 28.7385 101.208 27.6748 101.666 26.646C101.931 26.0517 102.204 25.4399 102.496 24.8431C102.84 24.1364 103.212 23.4423 103.571 22.7706C103.688 22.5508 103.808 22.3311 103.922 22.1113L102.833 19.9863H88.4278L88.4328 19.9913ZM97.0625 23.4872C96.9428 23.7469 96.8257 23.9991 96.7136 24.2463C96.4615 24.7957 96.2247 25.3126 95.9701 25.8319C95.5372 26.7134 95.0661 27.6373 94.4448 28.8309C94.3684 28.9758 94.2742 29.1031 94.1902 29.2155C94.1011 29.3353 94.0196 29.4477 93.9967 29.5301C93.961 29.6599 93.9712 29.8447 93.9814 30.057C93.989 30.1818 93.9941 30.3092 93.9941 30.444V30.9434H88.471L88.9676 30.1768C89.3215 29.63 89.6144 29.0457 89.897 28.4838C90.2102 27.8571 90.5362 27.2103 90.9487 26.5985C91.4248 25.8944 91.7788 25.0953 92.1531 24.2488C92.3237 23.8643 92.4994 23.4647 92.6929 23.0652L92.8304 22.7805H97.391L97.0625 23.4872Z" fill="white"/>
<path d="M6.06545 15.3471C6.29208 15.7216 6.49833 16.1012 6.71732 16.5032C6.77843 16.6181 6.84209 16.7329 6.9083 16.8528C6.95922 16.8628 7.0127 16.8703 7.06363 16.8803C7.35391 16.9327 7.65438 16.9851 7.93958 16.9851C11.2524 16.9926 14.5652 16.9951 17.8781 16.9951H25.4051C25.4128 16.9802 25.4204 16.9677 25.428 16.9527C25.535 16.7679 25.6343 16.5906 25.7514 16.4233C26.1767 15.8165 26.5052 15.1598 26.8515 14.4631C27.2207 13.7215 27.6026 12.9549 28.117 12.2507C28.4073 11.8537 28.3767 11.6664 28.2418 11.5216H20.9795L20.236 12.9174L19.0774 13.7589L18.9017 13.7539C18.5859 13.744 18.2677 13.7415 17.9519 13.7415C17.6565 13.7415 17.3637 13.7415 17.0683 13.7465C16.7704 13.7465 16.4699 13.7515 16.172 13.7515C15.6525 13.7515 14.9676 13.744 14.2622 13.694L13.4932 13.6391L14.825 11.1021V9.75116H18.176C18.8941 9.74866 19.6096 9.75116 20.3251 9.75615H20.5594C20.9515 9.75615 21.2418 9.73118 21.4328 9.61382C21.6416 9.13938 21.8835 8.69989 22.1152 8.2729C22.4157 7.72354 22.7009 7.19666 22.897 6.6523L22.5328 6.46752H17.794L18.2829 3.79067H23.3171L24.0123 4.46737V4.97927H31.2821L32.3236 3.04405L32.153 2.87675L32.6776 2.43976C32.9042 1.9778 33.1435 1.57827 33.3651 1.2187V0.56946L33.3371 0.541992H13.2055L9.70421 3.44857C9.69403 3.63835 9.70421 3.70327 9.74241 3.74323L11.395 3.91053L5.88975 13.9063C5.89484 14.0411 5.8923 14.1735 5.88975 14.3033C5.88211 14.6829 5.87702 15.0399 6.0629 15.3446L6.06545 15.3471Z" fill="white"/>
<path d="M35.0253 3.84047L34.6026 4.55213C34.4524 4.80434 34.2945 5.04905 34.1417 5.29127C33.7369 5.92552 33.3498 6.52731 33.1537 7.18654C33.5382 7.4712 34.0068 7.59855 34.4982 7.73339C34.7987 7.81579 35.1094 7.9007 35.4149 8.02305C35.6645 8.12543 35.9573 8.17787 36.2654 8.2328C36.6805 8.30772 37.1108 8.38513 37.5131 8.59238C37.8722 8.77716 38.2643 8.87205 38.6794 8.97443C38.9365 9.03686 39.2014 9.10178 39.4687 9.18918C40.5713 9.55625 41.7146 9.88836 42.8223 10.2105C43.2857 10.3453 43.7517 10.4802 44.2152 10.6175L44.5768 10.7249V11.921L43.8256 12.5128C43.8256 12.5327 43.8256 12.5527 43.8256 12.5727C43.8205 12.7275 43.8179 12.8399 43.8332 12.9248C43.8383 12.9523 43.8816 13.0247 43.9096 13.0746C43.9402 13.1295 43.9707 13.1845 43.9987 13.2394L44.3501 13.9561H37.5615L37.4928 13.5366C37.3833 12.8773 37.6863 12.3754 37.9307 11.9734C38.0912 11.7087 38.2032 11.5164 38.2287 11.3317L38.1421 11.2493H34.898C33.8973 11.2493 32.8966 11.2493 31.8933 11.2443H31.5292C31.1854 11.2443 31.025 11.2617 30.9588 11.2742C30.093 12.5228 29.8104 13.8837 29.5379 15.2021C29.4157 15.7964 29.2884 16.4082 29.1101 17.005L29.2425 17.2197H48.6637C48.7554 17.1099 48.8521 17 48.9463 16.8926C49.2595 16.5355 49.5804 16.166 49.8197 15.7739C50.0846 15.3369 50.385 14.9199 50.6728 14.5154C51.2253 13.7463 51.7448 13.0197 52.0453 12.1707C52.1522 11.866 52.2846 11.5714 52.4094 11.2892C52.5367 11.0045 52.6564 10.7374 52.7506 10.4627C52.8041 10.3129 52.8601 10.163 52.9187 10.0132C53.1504 9.41142 53.3516 8.88704 53.2446 8.3252C53.2319 8.30772 53.2166 8.29024 53.2039 8.27276H53.1962C52.6513 8.27276 52.1751 8.09047 51.7575 7.92816C51.5513 7.84826 51.3552 7.77334 51.1591 7.72091C49.7484 7.34385 48.3276 6.92185 46.9551 6.51233L46.8328 6.47487C46.5604 6.39247 46.2879 6.31007 46.018 6.22517C45.0326 5.92053 44.1031 5.63087 43.1228 5.47355C42.7103 5.40613 42.3563 5.21885 42.0126 5.03906C41.8802 4.96914 41.7477 4.89923 41.6153 4.8393L41.7961 3.88542C42.9624 3.8155 44.2203 3.75308 45.496 3.75308C46.0842 3.75308 46.6317 3.76556 47.1639 3.79303L47.6477 3.818V4.9192L47.7215 4.99162H54.719C55.2002 4.55713 55.3963 3.95034 55.6204 3.25616C55.7961 2.7093 55.9769 2.14497 56.3232 1.63057C56.4505 1.44329 56.4912 1.12617 56.5371 0.789062H36.5277C36.4029 0.883951 36.2807 0.978839 36.161 1.07123C35.7943 1.3509 35.448 1.61309 35.1246 1.89776C35.0151 1.99514 34.9082 2.09752 34.8012 2.1999C34.4448 2.542 34.045 2.92405 33.4746 3.17376C33.4466 3.2187 33.4109 3.26365 33.3727 3.3086L33.0493 3.68066L33.0748 3.74558L35.0304 3.83798L35.0253 3.84047Z" fill="white"/>
<path d="M130.626 20.019H116.165L113.387 22.2964V22.6609L114.77 23.1703L114.21 23.7172C114.146 23.7796 114.077 23.8371 114.011 23.8945C113.945 23.9494 113.856 24.0268 113.835 24.0618C113.298 25.0631 112.769 26.0694 112.241 27.0757C111.997 27.5427 111.75 28.0121 111.503 28.4791C111.177 29.0959 110.849 29.7101 110.487 30.3918L110.059 31.1959C110.209 31.7502 110.525 32.6367 111.139 33.4732H117.161C119.618 33.4732 122.058 33.4732 124.495 33.4632C124.815 33.4632 125.146 33.4033 125.442 33.3534C125.485 33.3459 125.528 33.3384 125.572 33.3309C125.653 33.206 125.732 33.0912 125.806 32.9788C126.025 32.6467 126.216 32.362 126.409 32.0799C127.128 31.0486 127.942 29.84 128.533 28.544C128.681 28.2219 128.66 28.0871 128.559 27.9847H122.776L120.909 30.9737H120.624C120.456 30.9737 119.756 30.9786 119.575 30.9786C119.341 30.9786 119.104 30.9786 118.87 30.9712C118.824 30.9712 118.775 30.9712 118.73 30.9712C118.602 30.9712 118.475 30.9737 118.348 30.9786C118.21 30.9811 118.073 30.9861 117.935 30.9861C117.584 30.9861 117.311 30.9612 117.049 30.9062L116.382 30.7664L117.37 28.9885C117.925 27.9922 118.467 27.0183 119.002 26.0395C119.068 25.9171 119.127 25.7698 119.185 25.6175C119.303 25.3153 119.437 24.9707 119.7 24.6985C120.069 24.314 120.252 23.8495 120.263 23.2752L120.27 22.7833H125.124L124.314 24.9233L124.375 24.9832H127.054C127.818 24.9832 128.584 24.9832 129.351 24.9882H129.615C129.972 24.9882 130.224 24.9682 130.405 24.8683L131.747 22.2289C131.454 21.8569 131.304 21.4274 131.169 21.0428C131.021 20.6258 130.894 20.2563 130.624 20.0215L130.626 20.019Z" fill="white"/>
<path d="M152.064 20.1041C152.064 20.1041 152.049 20.0641 151.978 19.9967H146.513C146.498 20.0117 146.485 20.0292 146.47 20.0441C146.34 20.1915 146.218 20.3313 146.149 20.4686C145.385 21.9844 144.545 23.4876 143.735 24.9434L143.707 24.9933C143.381 25.5776 143.073 26.1944 142.778 26.7887C142.322 27.7001 141.853 28.644 141.285 29.533C141.191 29.6828 141.122 29.8801 141.059 30.0723C141.023 30.1747 140.99 30.2746 140.954 30.367L140.827 30.6841H135.874L136.343 29.925C136.618 29.483 136.86 29.0236 137.094 28.5791C137.326 28.1421 137.565 27.6876 137.832 27.2532C138.451 26.2493 139.004 25.1681 139.536 24.1243C139.814 23.58 140.101 23.0156 140.399 22.4663C140.544 22.1991 140.707 21.9469 140.865 21.7022C141.028 21.45 141.183 21.2128 141.311 20.9681L141.38 20.8407C141.553 20.5186 141.657 20.3088 141.619 20.0841L141.525 19.9917H135.594C135.222 20.3138 134.835 20.6135 134.461 20.9031C133.817 21.4025 133.211 21.872 132.722 22.4139L133.99 22.8858L133.01 24.7062C132.332 25.9647 131.665 27.2057 130.995 28.4443C130.947 28.5317 130.901 28.6215 130.855 28.7089C130.698 29.0086 130.537 29.3207 130.326 29.6129C129.74 30.4194 129.529 31.0212 129.628 31.608C129.692 31.7329 129.753 31.8502 129.811 31.9651C129.957 32.2498 130.081 32.4945 130.221 32.7267C130.369 32.9664 130.537 33.1962 130.698 33.4184C130.71 33.4359 130.723 33.4559 130.738 33.4733H141.158C142.184 33.4733 143.21 33.4733 144.239 33.4783H144.257C144.583 33.4783 145.011 33.4159 145.186 33.1213C145.54 32.5319 145.932 31.9601 146.309 31.4083C146.933 30.5018 147.521 29.6453 147.967 28.6915C148.115 28.3768 148.252 28.0597 148.39 27.7401C148.573 27.3206 148.761 26.8886 148.968 26.4666C149.485 25.4103 150.024 24.3391 150.544 23.3028C150.763 22.8683 150.982 22.4313 151.203 21.9918L151.063 21.8545L151.42 21.5549L151.552 21.2877C151.565 21.2477 151.578 21.2078 151.59 21.1703C151.69 20.8632 151.794 20.546 151.988 20.2489C152.054 20.144 152.056 20.0991 152.056 20.0991L152.064 20.1041Z" fill="white"/>
<path d="M170.184 20.9656C170.006 20.5711 169.848 20.2265 169.565 20.0117H155.074C154.208 20.7209 153.317 21.4525 152.405 22.1692L152.377 22.1892C152.359 22.2016 152.314 22.2541 152.283 22.289L152.232 22.3465C152.232 22.3465 152.237 22.3615 152.237 22.3714C152.26 22.4638 152.296 22.6037 152.311 22.6311C152.377 22.6936 152.545 22.7485 152.691 22.7984C152.79 22.8309 152.887 22.8634 152.973 22.9008L153.51 23.1256L153.21 23.6175C153.134 23.7423 153.057 23.8647 152.978 23.9895C152.813 24.2517 152.645 24.5214 152.497 24.7911L152.148 25.4303C151.384 26.8237 150.595 28.267 149.846 29.6978C149.622 30.1273 149.375 30.5418 149.133 30.9464C148.756 31.5806 148.4 32.1774 148.122 32.8266C147.947 33.2362 147.944 33.3685 148.031 33.4634H153.778C154.47 32.507 155.015 31.4707 155.588 30.377C156.052 29.4956 156.53 28.5816 157.096 27.7152L157.246 27.4854C157.246 27.4854 160.678 27.4804 161.315 27.4804C162.744 27.4804 163.841 27.4854 164.875 27.4979H164.951C165.231 27.4979 165.626 27.4804 165.84 27.3206C166.265 27.001 166.731 26.7363 167.182 26.4766C168.287 25.8424 169.331 25.2456 169.672 23.9596C169.736 23.7199 169.917 23.5825 170.024 23.5026C170.039 23.4926 170.054 23.4801 170.067 23.4701C170.126 23.3553 170.189 23.2404 170.253 23.1281C170.543 22.6037 170.721 22.2491 170.64 21.8321C170.441 21.5549 170.309 21.2603 170.176 20.9706L170.184 20.9656ZM162.744 24.6637C162.611 24.7362 162.484 24.8061 162.39 24.8785L162.252 24.9834H158.955L159.324 22.5163H163.586L163.691 22.8808C164.004 23.9721 163.217 24.4041 162.749 24.6637H162.744Z" fill="white"/>
<path d="M152.1 3.57085V3.7806H153.676L153.503 4.40986C153.337 5.00915 153.022 5.50607 152.716 5.9855C152.461 6.38503 152.217 6.76958 152.074 7.19159C152.09 7.19908 152.105 7.20657 152.12 7.21156C152.39 7.33891 152.622 7.45128 152.853 7.50871C153.681 7.72096 154.501 7.98066 155.295 8.23036C156.016 8.4576 156.76 8.69232 157.498 8.88709C158.835 9.24167 160.169 9.67616 161.46 10.0957C162.023 10.278 162.586 10.4627 163.151 10.64L163.505 10.7499V11.971L162.736 12.5777L163.036 13.9436H156.38V13.4442C156.38 13.4018 156.378 13.3593 156.373 13.3219C156.362 13.1895 156.347 13.0097 156.434 12.825C156.5 12.6826 156.584 12.5703 156.658 12.4704C156.704 12.4104 156.744 12.353 156.77 12.3081C156.816 12.2207 156.867 12.1358 156.92 12.0484C157.167 11.6364 157.243 11.4815 157.052 11.2493H153.801C152.836 11.2493 151.871 11.2493 150.906 11.2443H150.725C150.333 11.2443 149.979 11.2593 149.696 11.4216C149.63 11.5689 149.564 11.7163 149.497 11.8611C149.306 12.2781 149.126 12.6726 148.973 13.0797C148.749 13.6665 148.644 14.2857 148.532 14.9425C148.448 15.4444 148.359 15.9613 148.214 16.4732C148.166 16.6455 148.105 16.8103 148.043 16.9701L148.334 17.2423H155.326C159.23 17.2423 163.141 17.2423 167.052 17.2323C167.291 17.2323 167.559 17.1599 167.773 17.1024C167.793 17.0974 167.813 17.0924 167.831 17.0874L168.501 16.1211C169.135 15.2097 169.728 14.3532 170.314 13.4942L170.413 13.3518C170.617 13.0572 170.808 12.78 170.92 12.4928C171.31 11.479 171.679 10.4378 172.04 9.43145C172.152 9.11432 172.267 8.7972 172.379 8.48257C172.188 8.23036 171.844 8.12299 171.345 8.0331C170.429 7.86829 169.55 7.59361 168.7 7.32643C167.882 7.06923 167.108 6.82701 166.301 6.6722C165.837 6.5848 165.394 6.43498 164.967 6.29264C164.567 6.1578 164.187 6.03045 163.795 5.95055C163.408 5.87064 163.047 5.7358 162.698 5.60345C162.244 5.43365 161.817 5.27384 161.371 5.24388C161.076 5.2239 160.89 5.03662 160.727 4.86932C160.671 4.81438 160.61 4.74946 160.538 4.68953L159.494 3.81056H166.408L166.512 4.17264C166.568 4.36491 166.571 4.5472 166.571 4.70951C166.571 4.79441 166.571 4.94922 166.594 4.98169C166.594 4.98169 166.606 4.99417 166.645 5.01165C167.172 5.01165 169.39 5.00666 169.97 5.00666C170.923 5.00666 171.885 5.00915 172.845 5.01914H172.924C173.387 5.01914 173.716 4.9717 173.937 4.86932C174.021 4.65707 174.103 4.44981 174.184 4.25005C174.401 3.70818 174.607 3.19878 174.78 2.68439C174.872 2.41221 174.997 2.15751 175.119 1.9128C175.315 1.51576 175.493 1.16118 175.496 0.786621H155.42L152.107 3.57085H152.1Z" fill="white"/>
<path d="M29.7645 20.2412C29.7823 20.2062 29.7976 20.1463 29.8103 20.0764L29.6983 19.989C29.3062 19.989 27.5517 19.984 27.0679 19.984C26.1308 19.984 25.3695 19.989 24.6743 19.999C24.3866 20.004 24.0836 20.0614 23.8187 20.1163C23.7984 20.1213 23.7805 20.1238 23.7602 20.1288L21.117 25.5225L20.7555 25.48L20.1494 25.4101V23.2127C20.1545 22.2438 20.1571 21.2425 20.1392 20.2612C20.1392 20.1938 20.1036 20.0939 20.0628 19.9915C19.7726 19.9915 19.4874 19.994 19.2047 19.9965C18.8202 19.999 18.4408 20.0015 18.0639 20.0015C17.4528 20.0015 16.9512 19.994 16.4877 19.979C16.4572 19.979 16.4292 19.979 16.3986 19.979C15.8384 19.979 15.4208 20.1663 15.0439 20.5833C14.8453 20.803 14.6518 21.0278 14.4557 21.25C14.061 21.6995 13.6536 22.1639 13.2258 22.6059C12.658 23.1902 12.08 23.7521 11.4688 24.3339L11.7006 24.3514L10.6209 25.1329L10.4427 25.3002L10.0938 25.6998L9.70421 25.3202L9.44957 25.068L9.36809 25.0505L9.391 25.0081L9.23313 24.8533L9.65583 24.5012C9.65583 24.5012 9.78569 24.2515 9.83916 24.1466C9.95884 23.9094 10.0862 23.6647 10.2237 23.4274C10.5165 22.9205 10.8119 22.4161 11.1073 21.9117C11.3823 21.4423 11.6573 20.9728 11.9297 20.5009C12.0774 20.2462 12.0621 20.1163 11.9399 20.0015H6.14947C5.80062 20.3161 5.42376 20.5933 5.05453 20.863C4.34664 21.3824 3.67186 21.8793 3.21606 22.5984L4.46123 23.0504L4.05636 24.0842C3.89084 24.5037 3.72533 24.9257 3.56236 25.3477C3.35611 25.8821 3.1524 26.4164 2.94869 26.9483C2.56164 27.9621 2.17204 28.9759 1.77481 29.9872C1.59911 30.4342 1.41577 30.8762 1.22989 31.3207C1.00326 31.865 0.768994 32.4269 0.560192 32.9812C0.476162 33.2034 0.496533 33.3358 0.583109 33.4407H8.15601L14.0763 26.8884L14.8046 33.3358C14.8351 33.3408 14.8657 33.3458 14.8988 33.3508C15.2375 33.4082 15.5583 33.4606 15.8715 33.4656C16.5361 33.4731 17.2033 33.4756 17.8704 33.4756H19.6962C20.3302 33.4756 20.9617 33.4756 21.5958 33.4831H21.7052C21.886 33.4831 22.408 33.4831 22.678 33.3433C23.0268 32.7764 23.312 32.1996 23.5896 31.6428C23.9461 30.9311 24.2796 30.2569 24.7303 29.6027C25.1276 29.0259 25.4408 28.3966 25.7743 27.7299C26.0163 27.2455 26.2658 26.746 26.551 26.2666C27.4015 24.8308 28.1807 23.3151 28.9344 21.8468C29.2094 21.3124 29.4844 20.7756 29.762 20.2437L29.7645 20.2412Z" fill="white"/>
<path d="M58.9841 3.80801L58.569 4.54714C58.345 4.94916 58.1209 5.3437 57.8994 5.73324C57.413 6.59223 56.9521 7.40627 56.5065 8.24029C55.8088 9.54626 55.1111 10.8797 54.4363 12.1682C53.9372 13.1196 53.4381 14.0734 52.9365 15.0223C52.7328 15.4069 52.5163 15.7764 52.2871 16.166C52.2006 16.3108 52.114 16.4606 52.0249 16.6129V17.2072L52.0605 17.2422H56.5039C57.1507 17.2422 57.7975 17.2422 58.4443 17.2422H58.4545C59.091 17.2422 59.2922 17.0275 59.4195 16.7952C60.0892 15.5517 60.7487 14.3032 61.4108 13.0546L61.7113 12.4878C62.0066 11.931 62.2995 11.3716 62.5923 10.8148L63.1525 9.74852H64.7924C65.4926 9.74852 66.1954 9.74852 66.8957 9.74852C67.5985 9.74852 68.2987 9.74852 69.0015 9.74852C70.6388 9.74852 71.8942 9.75601 73.0706 9.76849H73.0961C73.45 9.76849 73.7709 9.6761 74.0281 9.50381L74.4202 9.23912C75.2681 8.66729 76.1441 8.07549 77.0531 7.54361C77.2339 7.43874 77.3969 7.2115 77.5726 6.97179C77.649 6.86691 77.7254 6.76453 77.8018 6.66714C78.3009 6.04787 78.637 5.33621 78.996 4.58459C79.2023 4.14761 79.4187 3.69814 79.6683 3.26365C79.6759 3.24867 79.6912 3.2237 79.7065 3.19623C79.5486 2.81418 79.3703 2.43213 79.1514 1.98515C78.9884 1.65304 78.8203 1.32593 78.637 0.971345L78.4842 0.674195C78.446 0.664207 78.4078 0.656715 78.3696 0.646727C78.1175 0.586798 77.8578 0.524371 77.621 0.521874C74.7232 0.514383 71.8254 0.511886 68.9277 0.511886C66.4399 0.511886 63.9495 0.511886 61.4566 0.504395C61.0339 0.504395 60.6851 0.636739 60.2089 0.973842C59.883 1.20607 59.5901 1.48574 59.282 1.78039C58.8975 2.14746 58.4977 2.52951 58.0216 2.82167C57.6396 3.05639 57.4003 3.32608 57.1864 3.69564L57.3773 3.80301H58.9892L58.9841 3.80801ZM71.2016 3.79053L71.2805 4.19505C71.5046 5.32872 70.7636 5.8581 70.2238 6.24514C70.0608 6.3625 69.9055 6.47237 69.7807 6.59223L69.633 6.73207H65.2634L65.3169 6.18521C65.3449 5.90055 65.4621 5.65583 65.569 5.44109C65.7702 5.02158 65.8135 4.90172 65.5537 4.63953L64.7134 3.79303H71.199L71.2016 3.79053Z" fill="white"/>
<defs>
<linearGradient id="paint0_linear_1405_546" x1="151.817" y1="21.9642" x2="152.09" y2="21.9642" gradientUnits="userSpaceOnUse">
<stop stop-color="#9900E0"/>
<stop offset="1" stop-color="#06FFF8"/>
</linearGradient>
<linearGradient id="paint1_linear_1405_546" x1="32.9016" y1="2.99118" x2="33.0926" y2="2.99118" gradientUnits="userSpaceOnUse">
<stop stop-color="#9900E0"/>
<stop offset="1" stop-color="#06FFF8"/>
</linearGradient>
<linearGradient id="paint2_linear_1405_546" x1="9.98431" y1="24.9607" x2="10.2924" y2="24.9607" gradientUnits="userSpaceOnUse">
<stop stop-color="#9900E0"/>
<stop offset="1" stop-color="#06FFF8"/>
</linearGradient>
<linearGradient id="paint3_linear_1405_546" x1="84.733" y1="13.976" x2="95.0052" y2="13.976" gradientUnits="userSpaceOnUse">
<stop stop-color="#9900E0"/>
<stop offset="1" stop-color="#06FFF8"/>
</linearGradient>
<linearGradient id="paint4_linear_1405_546" x1="112.091" y1="6.76214" x2="118.651" y2="6.76214" gradientUnits="userSpaceOnUse">
<stop stop-color="#9900E0"/>
<stop offset="1" stop-color="#06FFF8"/>
</linearGradient>
<linearGradient id="paint5_linear_1405_546" x1="76.3905" y1="17.7465" x2="152.315" y2="17.7465" gradientUnits="userSpaceOnUse">
<stop stop-color="#9900E0"/>
<stop offset="1" stop-color="#06FFF8"/>
</linearGradient>
<linearGradient id="paint6_linear_1405_546" x1="56.1907" y1="24.9632" x2="61.1714" y2="24.9632" gradientUnits="userSpaceOnUse">
<stop stop-color="#9900E0"/>
<stop offset="1" stop-color="#06FFF8"/>
</linearGradient>
<linearGradient id="paint7_linear_1405_546" x1="88.4685" y1="30.9461" x2="97.3885" y2="30.9461" gradientUnits="userSpaceOnUse">
<stop stop-color="#9900E0"/>
<stop offset="1" stop-color="#06FFF8"/>
</linearGradient>
<linearGradient id="paint8_linear_1405_546" x1="26.4581" y1="34.0101" x2="104.508" y2="34.0101" gradientUnits="userSpaceOnUse">
<stop stop-color="#9900E0"/>
<stop offset="1" stop-color="#06FFF8"/>
</linearGradient>
<linearGradient id="paint9_linear_1405_546" x1="33.4644" y1="30.9561" x2="42.0482" y2="30.9561" gradientUnits="userSpaceOnUse">
<stop stop-color="#9900E0"/>
<stop offset="1" stop-color="#06FFF8"/>
</linearGradient>
<linearGradient id="paint10_linear_1405_546" x1="5.3703" y1="17.7265" x2="57.1304" y2="17.7265" gradientUnits="userSpaceOnUse">
<stop stop-color="#9900E0"/>
<stop offset="1" stop-color="#06FFF8"/>
</linearGradient>
<linearGradient id="paint11_linear_1405_546" x1="33.0697" y1="2.7968" x2="33.1245" y2="2.7968" gradientUnits="userSpaceOnUse">
<stop stop-color="#9900E0"/>
<stop offset="1" stop-color="#06FFF8"/>
</linearGradient>
<linearGradient id="paint12_linear_1405_546" x1="109.512" y1="33.9752" x2="171.171" y2="33.9752" gradientUnits="userSpaceOnUse">
<stop stop-color="#9900E0"/>
<stop offset="1" stop-color="#06FFF8"/>
</linearGradient>
<linearGradient id="paint13_linear_1405_546" x1="152.003" y1="21.7793" x2="152.089" y2="21.7793" gradientUnits="userSpaceOnUse">
<stop stop-color="#9900E0"/>
<stop offset="1" stop-color="#06FFF8"/>
</linearGradient>
<linearGradient id="paint14_linear_1405_546" x1="158.949" y1="24.9856" x2="163.753" y2="24.9856" gradientUnits="userSpaceOnUse">
<stop stop-color="#9900E0"/>
<stop offset="1" stop-color="#06FFF8"/>
</linearGradient>
<linearGradient id="paint15_linear_1405_546" x1="147.445" y1="17.7399" x2="176.003" y2="17.7399" gradientUnits="userSpaceOnUse">
<stop stop-color="#9900E0"/>
<stop offset="1" stop-color="#06FFF8"/>
</linearGradient>
<linearGradient id="paint16_linear_1405_546" x1="0.00189209" y1="33.9833" x2="30.368" y2="33.9833" gradientUnits="userSpaceOnUse">
<stop stop-color="#9900E0"/>
<stop offset="1" stop-color="#06FFF8"/>
</linearGradient>
<linearGradient id="paint17_linear_1405_546" x1="51.5156" y1="17.7439" x2="80.2365" y2="17.7439" gradientUnits="userSpaceOnUse">
<stop stop-color="#9900E0"/>
<stop offset="1" stop-color="#06FFF8"/>
</linearGradient>
<linearGradient id="paint18_linear_1405_546" x1="64.716" y1="6.72962" x2="71.3216" y2="6.72962" gradientUnits="userSpaceOnUse">
<stop stop-color="#9900E0"/>
<stop offset="1" stop-color="#06FFF8"/>
</linearGradient>
</defs>
</svg>
