<svg xmlns="http://www.w3.org/2000/svg" viewBox="0 0 796.96 796"><defs><style>.cls-1{fill:#050606;}</style></defs><title>Asset 5</title><g id="Layer_2" data-name="Layer 2"><g id="Layer_1-2" data-name="Layer 1"><path d="M563.32,796H240.39l-7.1-3L2.9,560.72l-2.9-7V246.17l2.84-7L233.23,3l7.16-3H556.57l7.16,3L794.12,239.19l2.84,7V553.68l-2.79,6.94L570.53,792.94ZM244.56,776H559.07L777,549.65V250.24L552.36,20H244.6L20,250.24V549.56Z"/><path d="M491.24,682.46H336.78L178.45,548.09V432.46h459V553Zm-147.12-20H483.66L617.45,544v-91.5h-419v86.37Z"/><polygon points="179.95 281.46 268.95 383.46 367.95 283.46 367.95 237.46 321.95 189.46 273.95 244.46 218.95 189.46 179.95 235.46 179.95 281.46"/><polygon points="439.95 281.46 528.95 383.46 627.95 283.46 627.95 237.46 581.95 189.46 533.95 244.46 478.95 189.46 439.95 235.46 439.95 281.46"/><polygon class="cls-1" points="562.95 785.96 562.95 686.96 786.96 463.77 786.95 556.96 562.95 785.96"/></g></g></svg>