<svg xmlns="http://www.w3.org/2000/svg" viewBox="0 0 1553.18 1522.91"><title>Asset 3</title><g id="Layer_2" data-name="Layer 2"><g id="Layer_1-2" data-name="Layer 1"><path d="M830.46,705H5.22L769.06,1.17,1517,0ZM210.1,625H796.69L1327.11,80.3l-526.76.82Z"/><polygon points="807.92 884.28 3.84 868.32 229.31 636.69 286.63 692.5 189.78 791.99 775.02 803.61 1358.5 209.71 1281.73 203.46 1288.21 123.73 1535.37 143.84 807.92 884.28"/><polygon points="807.71 1054.04 1.64 1032.31 200.27 801.92 260.86 854.16 172.3 956.88 774.81 973.12 1364.84 366.5 1293.56 361.99 1298.62 282.15 1543.42 297.64 807.71 1054.04"/><polygon points="828.9 1202.19 0.64 1186.7 190.31 982.15 248.97 1036.54 180.81 1110.06 795.4 1121.55 1378.86 513.42 1339.43 510.23 1345.9 430.49 1553.18 447.29 828.9 1202.19"/><path d="M103.16,1522.91l3.38-169.69H0l239.35-228.55,55.24,57.85-95,90.7H827v244.07Zm83.4-169.69-1.78,89.06L747,1437.9v-84.68Z"/><path d="M1074.88,170.6c.52.86,1.06,1.73,1.62,2.6A112.24,112.24,0,0,0,1088,188.25L845,437.57a523.39,523.39,0,0,0-62.53,22.61c-46.26,20.25-82.12,44.53-107,72.42H503.8a91.8,91.8,0,0,0-.22-19,89,89,0,0,0-8.88-29.71L782.56,220.06c34.65-1.62,94.43-10.51,138.86-49.46h153.46m32.61-49H901c-38.36,46.22-110.37,49.77-131.62,49.77-3.87,0-6.06-.11-6.06-.11L425,481.36c68,37.93,0,100.24,0,100.24H699.49c45.33-70.42,171.26-100.24,171.26-100.24L1173,171.26a73.26,73.26,0,0,1-9.86.7c-46.76,0-55.62-50.36-55.62-50.36Z"/><polygon points="824.97 1274.6 1473.97 610.6 1352.55 610.6 1427.48 534.15 1542.97 534.6 1542.97 742.6 825.97 1518.6 824.97 1274.6"/></g></g></svg>