<svg width="32" height="32" viewBox="0 0 32 32" fill="none" xmlns="http://www.w3.org/2000/svg">
<path d="M16.1845 5.96729C20.379 5.96729 23.0851 6.31677 23.6673 6.56442C23.7215 6.58756 23.7769 6.60839 23.8334 6.62691C25.1766 7.06087 27.9023 8.57685 28.6056 11.2119C29.6836 15.2518 30.4642 20.7729 29.7782 24.0016C29.6986 24.3742 29.528 24.6242 29.2224 24.8094C28.8685 25.0246 28.3542 25.1438 27.7743 25.1438C26.6766 25.1438 25.7762 24.7168 25.5963 24.4865C24.6601 23.0388 23.1958 19.6631 22.7104 18.4828C22.4071 17.7468 21.6923 17.2665 20.899 17.2665H11.0998C10.3065 17.2665 9.59167 17.7468 9.28844 18.4828C8.80303 19.662 7.33874 23.0376 6.40251 24.4865C6.2238 24.7168 5.32216 25.1438 4.22452 25.1438C3.64457 25.1438 3.13034 25.0246 2.77637 24.8094C2.47083 24.6242 2.30019 24.3742 2.22063 24.0016C1.5346 20.7729 2.31517 15.2518 3.39322 11.2119C4.09654 8.57685 6.8222 7.05971 8.16543 6.62691C8.22193 6.60839 8.27727 6.58756 8.33146 6.56442C8.91372 6.31677 11.6198 5.96729 15.8143 5.96729H15.9942C15.9942 5.96729 15.9977 5.96729 15.9988 5.96729C16 5.96729 16.0023 5.96729 16.0034 5.96729H16.1833" stroke="#9900E0" stroke-width="2" stroke-linecap="round" stroke-linejoin="round"/>
<path d="M9.54907 9.12421V14.7113" stroke="#9900E0" stroke-width="2" stroke-linecap="round" stroke-linejoin="round"/>
<path d="M12.3324 11.9178H6.76465" stroke="#9900E0" stroke-width="2" stroke-linecap="round" stroke-linejoin="round"/>
<path d="M22.075 8.7597C21.7407 8.7597 21.4697 9.03165 21.4697 9.36725C21.4697 9.70285 21.7407 9.9748 22.075 9.9748C22.4094 9.9748 22.6804 9.70285 22.6804 9.36725C22.6804 9.03165 22.4094 8.7597 22.075 8.7597Z" stroke="#9900E0" stroke-width="2" stroke-linecap="round" stroke-linejoin="round"/>
<path d="M22.075 13.7427C21.7407 13.7427 21.4697 14.0147 21.4697 14.3503C21.4697 14.6859 21.7407 14.9578 22.075 14.9578C22.4094 14.9578 22.6804 14.6859 22.6804 14.3503C22.6804 14.0147 22.4094 13.7427 22.075 13.7427Z" stroke="#9900E0" stroke-width="2" stroke-linecap="round" stroke-linejoin="round"/>
<path d="M24.5575 11.2512C24.2231 11.2512 23.9521 11.5232 23.9521 11.8588C23.9521 12.1944 24.2231 12.4663 24.5575 12.4663C24.8918 12.4663 25.1628 12.1944 25.1628 11.8588C25.1628 11.5232 24.8918 11.2512 24.5575 11.2512Z" stroke="#9900E0" stroke-width="2" stroke-linecap="round" stroke-linejoin="round"/>
<path d="M19.5926 11.2512C19.2583 11.2512 18.9873 11.5232 18.9873 11.8588C18.9873 12.1944 19.2583 12.4663 19.5926 12.4663C19.927 12.4663 20.1979 12.1944 20.1979 11.8588C20.1979 11.5232 19.927 11.2512 19.5926 11.2512Z" stroke="#9900E0" stroke-width="2" stroke-linecap="round" stroke-linejoin="round"/>
</svg>
