<svg width="32" height="30" viewBox="0 0 32 30" fill="none" xmlns="http://www.w3.org/2000/svg">
<g clip-path="url(#clip0_761_5608)">
<path d="M0 16.9195H6.98546V18.3293C7.631 18.3293 8.22395 18.3429 8.8169 18.3269C11.0046 18.2664 12.9962 18.8633 14.8205 20.0635C14.9839 20.1711 15.2126 20.2229 15.411 20.2245C16.8145 20.2381 18.2188 20.2245 19.623 20.2365C19.9641 20.2397 20.3148 20.2652 20.644 20.3481C21.468 20.5553 21.9398 21.0183 22.3272 21.9532C22.6946 21.7882 23.0628 21.624 23.4294 21.4575C25.15 20.6732 26.8707 19.8882 28.5914 19.1048C29.1158 18.8657 29.6545 18.7015 30.2427 18.7932C31.7027 19.0203 32.4583 20.5226 31.7059 21.7946C31.4724 22.1891 31.1193 22.5804 30.7248 22.8011C27.2261 24.7537 23.7203 26.6944 20.1849 28.58C18.8667 29.2829 17.429 29.6686 15.9012 29.5483C14.7145 29.4543 13.5947 29.0893 12.4941 28.6677C11.6422 28.3409 10.8125 27.9576 9.95657 27.6435C9.57083 27.5017 9.14844 27.4212 8.7372 27.3909C8.17374 27.3487 7.6055 27.3805 7.00139 27.3805V28.7378H0V16.9227V16.9195ZM11.1967 24.6653C12.1881 23.7902 13.2313 23.0123 14.6683 23.0211C16.2973 23.0307 17.9271 23.0315 19.5561 23.0163C19.8948 23.0131 20.2502 22.9725 20.5674 22.8617C21.1038 22.6744 21.1715 22.1229 20.679 21.8416C20.3754 21.6686 19.9825 21.5866 19.6278 21.5802C18.0921 21.5531 16.5547 21.5754 15.0181 21.5603C14.8085 21.5579 14.5647 21.4965 14.3957 21.3778C12.6926 20.1791 10.8149 19.5814 8.72604 19.6571C8.16019 19.6778 7.59354 19.6603 7.01494 19.6603V26.0392C7.76171 26.0392 8.48775 26.0233 9.21219 26.0472C9.49352 26.0568 9.7884 26.1173 10.0498 26.2233C10.8834 26.5605 11.6868 26.9757 12.5332 27.2737C13.539 27.6284 14.5607 27.9783 15.6047 28.1775C17.0257 28.4485 18.3853 28.0277 19.623 27.367C23.0883 25.518 26.5224 23.6101 29.9621 21.7141C30.1741 21.5977 30.3997 21.4104 30.4921 21.2C30.5918 20.9745 30.6436 20.619 30.5296 20.4381C30.414 20.2548 30.0729 20.144 29.8243 20.1329C29.5772 20.1209 29.3126 20.2492 29.0735 20.356C27.686 20.9777 26.3025 21.6097 24.9197 22.2425C23.8733 22.7207 22.7798 23.1223 21.8012 23.7129C20.9683 24.2158 20.1243 24.3736 19.1967 24.3672C17.7135 24.3568 16.2295 24.376 14.7464 24.3592C14.1526 24.3528 13.621 24.5067 13.1397 24.8374C12.785 25.0813 12.4463 25.3491 12.0717 25.6272C11.7944 25.322 11.5194 25.0191 11.1975 24.6653H11.1967ZM1.32935 18.26V27.3901H5.61626V18.26H1.32935Z" fill="#9900E0"/>
<path d="M10.716 9.51962C10.716 7.49292 10.7145 5.46622 10.716 3.43953C10.7176 1.97629 11.1488 1.3403 12.53 0.86451C14.2984 0.254827 16.0709 0.292285 17.8187 0.952974C18.999 1.39928 19.4732 2.11974 19.474 3.38135C19.4764 7.54074 19.4676 11.6993 19.4819 15.8587C19.4843 16.643 19.1536 17.2024 18.52 17.6121C17.7549 18.107 16.891 18.2983 16.0008 18.3819C14.6778 18.5071 13.3779 18.3971 12.149 17.852C11.1982 17.4312 10.6619 16.7713 10.6953 15.6372C10.7551 13.5993 10.7121 11.5583 10.7121 9.51803H10.7153L10.716 9.51962ZM18.1319 4.72982C16.0805 5.48296 14.0793 5.47419 12.0438 4.73142C12.0438 5.17055 12.0438 5.5523 12.0438 5.93405C12.0438 6.61068 12.1044 6.70392 12.7675 6.91352C13.79 7.2371 14.846 7.32875 15.9067 7.2363C16.4925 7.18529 17.0799 7.05698 17.6417 6.88324C17.8426 6.82108 18.0817 6.53815 18.1096 6.33014C18.1773 5.82406 18.1319 5.30285 18.1319 4.73062V4.72982ZM12.0438 11.4666C12.0438 11.901 12.0438 12.2676 12.0438 12.6342C12.0438 13.4248 12.1785 13.6121 12.9619 13.8169C14.0426 14.0998 15.1416 14.0847 16.2351 13.9261C16.7412 13.8528 17.2424 13.7093 17.7262 13.5419C17.8912 13.4846 18.0976 13.267 18.1119 13.1068C18.1606 12.5848 18.1303 12.0556 18.1303 11.4762C17.1325 11.8834 16.1347 12.0516 15.1098 12.0516C14.0833 12.0516 13.0799 11.9002 12.043 11.4666H12.0438ZM12.0837 8.1034C12.0621 8.1839 12.0502 8.2094 12.0494 8.2349C12.0462 8.5792 12.0438 8.92269 12.0438 9.26698C12.0438 10.0002 12.1139 10.1046 12.8344 10.3174C13.9932 10.6593 15.1799 10.7191 16.3714 10.5828C16.824 10.531 17.2783 10.4019 17.7023 10.2337C17.884 10.1612 18.0912 9.90934 18.1119 9.71966C18.1677 9.19844 18.1311 8.66766 18.1311 8.09225C17.1428 8.50269 16.1466 8.66128 15.1201 8.66447C14.0801 8.66766 13.0711 8.51384 12.0829 8.1042L12.0837 8.1034ZM15.0779 1.67583C15.0691 1.71169 15.0603 1.74676 15.0516 1.78262C14.8141 1.79378 14.5742 1.79059 14.3391 1.81769C13.6258 1.89978 12.9261 2.04403 12.3172 2.44969C11.9227 2.71269 11.9211 3.03626 12.3132 3.29926C12.5292 3.44431 12.7754 3.55827 13.0233 3.63957C14.1398 4.00298 15.2843 4.05877 16.4279 3.81809C16.9109 3.71687 17.3947 3.54393 17.8314 3.3144C18.2713 3.08408 18.2466 2.7366 17.8298 2.45447C17.6888 2.35883 17.5349 2.2616 17.3732 2.22096C16.6104 2.02889 15.8438 1.85594 15.0779 1.67583ZM18.1295 14.8514C17.1213 15.2714 16.1235 15.4204 15.097 15.4252C14.0617 15.43 13.0599 15.2562 12.0462 14.8633C12.0462 15.1367 12.0462 15.3463 12.0462 15.5551C12.0478 16.3863 12.1514 16.6047 12.9739 16.7617C13.8497 16.9291 14.7519 17.0263 15.6421 17.0207C16.2885 17.0167 16.9404 16.8231 17.5772 16.6629C17.8705 16.5888 18.1271 16.3871 18.1295 16.0189C18.1319 15.6491 18.1295 15.2801 18.1295 14.8514Z" fill="#9900E0"/>
<path d="M20.7475 11.155C20.7475 9.61845 20.7714 8.08109 20.7379 6.54533C20.7188 5.66707 21.0918 5.02949 21.8481 4.69556C22.5526 4.38474 23.3106 4.13688 24.0693 4.01654C25.4098 3.80295 26.7415 3.95278 27.9968 4.51066C28.3418 4.66368 28.6694 4.88125 28.9627 5.12114C29.3389 5.42797 29.5086 5.85117 29.5078 6.34768C29.503 9.56665 29.5022 12.7848 29.5078 16.0038C29.5094 16.7545 29.1045 17.2423 28.5156 17.6121C27.7106 18.1174 26.8029 18.3046 25.8736 18.3851C24.604 18.4951 23.3568 18.3875 22.1781 17.8639C21.2424 17.4487 20.6917 16.8008 20.734 15.685C20.7905 14.1771 20.7483 12.6653 20.7483 11.1558L20.7475 11.155ZM22.131 8.22375C22.1135 8.26918 22.0968 8.29388 22.0968 8.31859C22.0936 8.67563 22.0912 9.03347 22.0904 9.39052C22.0904 10.0663 22.1773 10.1963 22.834 10.4098C23.9123 10.7605 25.0225 10.7852 26.1334 10.6625C26.6531 10.6051 27.1695 10.4632 27.6692 10.303C27.8573 10.2425 28.1147 10.0361 28.1322 9.87348C28.1904 9.33473 28.1546 8.78561 28.1546 8.21339C26.1087 8.95059 24.1163 8.94501 22.131 8.22375ZM22.1175 11.567C22.1047 11.6228 22.0936 11.6483 22.0936 11.6738C22.0912 12.0181 22.0896 12.3624 22.0896 12.7059C22.0896 13.4001 22.1749 13.5459 22.8563 13.746C24.3259 14.1787 25.8107 14.166 27.2859 13.7866C28.0749 13.5842 28.1689 13.4168 28.1689 12.588C28.1689 12.2469 28.1689 11.905 28.1689 11.5392C25.8816 12.2668 24.9842 12.2676 22.1167 11.5662L22.1175 11.567ZM25.1476 7.52162C25.9023 7.36222 26.6666 7.23072 27.4134 7.02909C27.7393 6.94142 28.1609 6.79876 28.1593 6.3684C28.1577 5.96035 27.7465 5.84957 27.4397 5.72046C26.3526 5.26061 25.209 5.157 24.0597 5.36262C23.4859 5.46543 22.9169 5.67822 22.3901 5.93166C21.9549 6.14126 21.9764 6.52222 22.3821 6.79637C22.555 6.91273 22.7487 7.0251 22.9487 7.07053C23.6652 7.23391 24.3881 7.3678 25.1484 7.52082L25.1476 7.52162ZM28.1649 14.8745C26.1183 15.6149 24.1171 15.6125 22.092 14.8769C22.092 15.1152 22.092 15.3128 22.092 15.5097C22.0936 16.4628 22.2099 16.7051 23.1623 16.8374C24.1354 16.9721 25.1348 16.9785 26.1191 16.9402C26.6594 16.9187 27.2046 16.725 27.7202 16.5354C27.9083 16.466 28.1036 16.2022 28.1458 15.9966C28.2159 15.6555 28.1649 15.2889 28.1649 14.8745Z" fill="#9900E0"/>
</g>
<defs>
<clipPath id="clip0_761_5608">
<rect width="32" height="29.1365" fill="white" transform="translate(0 0.431763)"/>
</clipPath>
</defs>
</svg>
