<svg width="32" height="30" viewBox="0 0 32 30" fill="none" xmlns="http://www.w3.org/2000/svg">
<path d="M32.0001 6.15757V12.503C31.858 13.2609 31.6253 13.9849 31.1483 14.6033C30.9865 14.8131 30.9365 15.0269 30.9371 15.286C30.9432 19.5833 30.9419 23.8806 30.9412 28.1779C30.9412 28.3349 30.9446 28.4946 30.9229 28.6495C30.8661 29.0582 30.5305 29.3931 30.1218 29.4507C29.9777 29.471 29.8302 29.4689 29.684 29.4689C20.559 29.4696 11.4339 29.4696 2.30813 29.4689C2.18431 29.4689 2.05981 29.4716 1.93734 29.4601C1.47587 29.4168 1.12402 29.0819 1.0611 28.6204C1.04012 28.4655 1.04215 28.3065 1.04215 28.1495C1.04148 23.8407 1.04351 19.5326 1.03403 15.2238C1.03403 15.0269 0.96637 14.8002 0.854725 14.6392C0.28703 13.817 -0.00730523 12.9239 0.000137731 11.9198C0.0136704 10.1538 0.0035209 8.38775 0.00419753 6.62106C0.00419753 5.73061 0.362813 5.36997 1.24988 5.36929C3.56802 5.36929 5.88549 5.36929 8.20364 5.36929H8.63939C8.63939 5.21705 8.63939 5.09661 8.63939 4.97616C8.63939 3.85092 8.63668 2.72636 8.64074 1.60112C8.64277 0.946139 9.03522 0.534747 9.68275 0.53407C13.8907 0.529333 18.0994 0.529333 22.3074 0.53407C22.9576 0.53407 23.3528 0.943433 23.3555 1.59571C23.3602 2.72095 23.3568 3.84551 23.3568 4.97075C23.3568 5.09187 23.3568 5.21231 23.3568 5.36929H23.7865C26.0816 5.36929 28.3774 5.38282 30.6726 5.36049C31.3093 5.3544 31.7586 5.55604 32.0001 6.15689V6.15757ZM2.01244 7.3843C2.01244 7.5291 2.01244 7.65022 2.01244 7.77066C2.01244 9.1537 2.02936 10.5374 2.00568 11.9204C1.99282 12.6688 2.27565 13.273 2.76283 13.8062C3.33188 14.4294 4.02543 14.8855 4.76566 15.2745C6.61422 16.2462 8.60014 16.7956 10.6442 17.1603C10.9792 17.2198 11.3175 17.2611 11.6815 17.3146C11.6815 16.9614 11.6788 16.6704 11.6815 16.3795C11.689 15.6988 12.0929 15.2901 12.7804 15.2887C14.9179 15.2847 17.0547 15.2847 19.1922 15.2887C19.9148 15.2901 20.3072 15.6961 20.3106 16.4289C20.312 16.7157 20.3106 17.0026 20.3106 17.2855C20.4297 17.2855 20.4981 17.2936 20.5644 17.2841C22.35 17.0283 24.095 16.6129 25.7717 15.9403C27.0512 15.4274 28.278 14.8191 29.2374 13.7893C29.7212 13.2697 29.9973 12.6708 29.9865 11.9353C29.9655 10.5408 29.9804 9.14625 29.9804 7.75171C29.9804 7.63263 29.9804 7.51421 29.9804 7.3843H2.01244ZM3.04634 27.4614H28.9228V16.6515C26.2616 18.2686 23.2878 18.7247 20.3127 19.2754C20.3127 19.743 20.3127 20.2139 20.3127 20.6842C20.3113 21.5083 19.9385 21.8852 19.1238 21.8859C17.0425 21.8859 14.9612 21.8859 12.8805 21.8859C12.0604 21.8859 11.6836 21.5104 11.6815 20.6937C11.6809 20.2146 11.6815 19.7362 11.6815 19.2727C8.67931 18.722 5.70212 18.2598 3.04634 16.642V27.4607V27.4614ZM10.6618 5.34831H21.3276V2.54773H10.6618V5.34831ZM18.2848 17.3152H13.7107V19.8661H18.2848V17.3152Z" fill="#9900E0"/>
</svg>
