<svg width="24" height="24" viewBox="0 0 24 24" fill="none" xmlns="http://www.w3.org/2000/svg">
<path fill-rule="evenodd" clip-rule="evenodd" d="M7.5 3H16.504C18.987 3 21 5.013 21 7.496V16.505C21 18.987 18.987 21 16.504 21H7.496C5.013 21 3 18.987 3 16.504V7.5C3 5.015 5.015 3 7.5 3V3Z" stroke="white" stroke-width="1.5" stroke-linecap="round" stroke-linejoin="round"/>
<path d="M8.12012 11.0996V16.4996" stroke="white" stroke-width="1.5" stroke-linecap="round" stroke-linejoin="round"/>
<path d="M11.7191 16.5006V13.3506C11.7191 12.1076 12.7261 11.1006 13.9691 11.1006V11.1006C15.2121 11.1006 16.2191 12.1076 16.2191 13.3506V16.5006" stroke="white" stroke-width="1.5" stroke-linecap="round" stroke-linejoin="round"/>
<path d="M8.11814 7.83848C7.99414 7.83848 7.89314 7.93948 7.89414 8.06348C7.89414 8.18748 7.99514 8.28848 8.11914 8.28848C8.24314 8.28848 8.34414 8.18748 8.34414 8.06348C8.34414 7.93848 8.24314 7.83848 8.11814 7.83848" stroke="white" stroke-width="1.5" stroke-linecap="round" stroke-linejoin="round"/>
</svg>
