<svg width="16" height="16" viewBox="0 0 16 16" fill="none" xmlns="http://www.w3.org/2000/svg">
<path fill-rule="evenodd" clip-rule="evenodd" d="M7.23727 8.76323C6.45727 7.98323 5.86927 7.1099 5.4786 6.2239C5.39593 6.03657 5.4446 5.81723 5.58927 5.67257L6.13527 5.12723C6.5826 4.6799 6.5826 4.04723 6.19193 3.65657L5.40927 2.8739C4.8886 2.35323 4.0446 2.35323 3.52393 2.8739L3.08927 3.30857C2.59527 3.80257 2.38927 4.51523 2.5226 5.2219C2.85193 6.9639 3.86393 8.87123 5.4966 10.5039C7.12927 12.1366 9.0366 13.1486 10.7786 13.4779C11.4853 13.6112 12.1979 13.4052 12.6919 12.9112L13.1259 12.4772C13.6466 11.9566 13.6466 11.1126 13.1259 10.5919L12.3439 9.8099C11.9533 9.41923 11.3199 9.41923 10.9299 9.8099L10.3279 10.4126C10.1833 10.5572 9.96393 10.6059 9.7766 10.5232C8.8906 10.1319 8.01727 9.54323 7.23727 8.76323Z" stroke="white" stroke-linecap="round" stroke-linejoin="round"/>
</svg>
