<svg width="24" height="24" viewBox="0 0 24 24" fill="none" xmlns="http://www.w3.org/2000/svg">
<path fill-rule="evenodd" clip-rule="evenodd" d="M16.882 7.84196C16.882 5.14596 14.696 2.95996 12 2.95996C9.304 2.95996 7.118 5.14596 7.118 7.84196C7.118 12.115 6.905 14.251 3 15.96C5 16.842 5 16.842 6 18.96C9 18.96 10 20.96 12 20.96C14 20.96 15 18.96 18 18.96C19 16.842 19 16.842 21 15.96C17.094 14.251 16.882 12.115 16.882 7.84196V7.84196Z" stroke="white" stroke-width="1.5" stroke-linecap="round" stroke-linejoin="round"/>
<path d="M3 15.9608C7 13.8428 7 11.8428 4 8.84277" stroke="white" stroke-width="1.5" stroke-linecap="round" stroke-linejoin="round"/>
<path d="M21 15.9608C17 13.8428 17 11.8428 20 8.84277" stroke="white" stroke-width="1.5" stroke-linecap="round" stroke-linejoin="round"/>
</svg>
