<svg width="24" height="24" viewBox="0 0 24 24" fill="none" xmlns="http://www.w3.org/2000/svg">
<path d="M18.8304 3.00021C19.3663 3.00021 19.9015 3.00021 20.4375 3.00021C18.799 4.87093 17.1597 6.74164 15.5213 8.61316C14.9258 9.29298 14.3312 9.97441 13.7381 10.6526C15.7527 13.5254 17.7415 16.3572 19.7247 19.193C20.1603 19.8149 20.5749 20.4514 21 21.0806H15.6964C14.0547 18.7454 12.413 16.4094 10.7287 14.0132C10.654 14.1216 10.6146 14.1924 10.5616 14.2526C9.44946 15.5199 8.3333 16.7823 7.22437 18.0527C6.34687 19.058 5.47902 20.0713 4.60714 21.0814H3.08036C3.13741 20.9809 3.18 20.866 3.25473 20.7808C5.05232 18.7301 6.85473 16.6834 8.65473 14.6351C9.12 14.1056 9.58205 13.5728 10.0433 13.0432C9.95411 12.9099 9.88982 12.8086 9.82071 12.7114C7.74187 9.747 5.66304 6.78423 3.58098 3.82387C3.40018 3.56673 3.19446 3.32807 3 3.08057C3.10688 3.05405 3.21455 3.00423 3.32143 3.00423C5.00893 2.99861 6.69643 3.00021 8.38393 3.00021C9.92357 5.20602 11.4624 7.41102 13.0414 9.67468C13.1387 9.54771 13.1909 9.47057 13.2512 9.40146C14.4589 8.02575 15.6707 6.65325 16.8753 5.27432C17.5334 4.52218 18.1795 3.75878 18.8304 3.00021ZM5.17125 4.16378C5.29018 4.34378 5.3633 4.46352 5.44527 4.57843C8.87813 9.3878 12.3295 14.1835 15.727 19.0178C16.23 19.733 16.7274 20.105 17.6033 19.9628C17.9962 19.8993 18.4077 19.9524 18.877 19.9524C18.4229 19.3167 18.0268 18.7623 17.6306 18.207C14.3689 13.6371 11.108 9.06637 7.84152 4.49887C7.7475 4.36709 7.60286 4.18307 7.47509 4.17825C6.73179 4.14771 5.98607 4.16298 5.17045 4.16298L5.17125 4.16378Z" fill="white" stroke="white" stroke-width="0.5" stroke-linejoin="round"/>
</svg>
