<svg width="16" height="16" viewBox="0 0 16 16" fill="none" xmlns="http://www.w3.org/2000/svg">
<path fill-rule="evenodd" clip-rule="evenodd" d="M12.1359 3.8417C11.0386 2.7437 9.57926 2.13836 8.0246 2.1377C4.81993 2.1377 2.2126 4.7437 2.21193 7.94703C2.2106 8.96636 2.47793 9.96836 2.98726 10.8517L2.1626 13.8624L5.24393 13.0544C6.0966 13.5184 7.05126 13.7617 8.02193 13.7617H8.0246C11.2279 13.7617 13.8353 11.155 13.8366 7.9517C13.8373 6.3997 13.2333 4.94036 12.1359 3.8417Z" stroke="white" stroke-linecap="round" stroke-linejoin="round"/>
<path d="M8.72998 9.03896L9.00065 8.77029C9.24931 8.52363 9.64265 8.49229 9.92931 8.69363C10.2066 8.88829 10.4573 9.06296 10.6906 9.22563C11.0613 9.48296 11.106 10.011 10.7866 10.3296L10.5473 10.569" stroke="white" stroke-linecap="round" stroke-linejoin="round"/>
<path d="M5.43005 5.45227L5.66939 5.21294C5.98805 4.89427 6.51605 4.93894 6.77339 5.30894C6.93539 5.54227 7.11005 5.79294 7.30539 6.07027C7.50672 6.35694 7.47605 6.75027 7.22872 6.99894L6.96005 7.26961" stroke="white" stroke-linecap="round" stroke-linejoin="round"/>
<path d="M10.5474 10.5699C9.56003 11.5526 7.9007 10.7179 6.5907 9.40723" stroke="white" stroke-linecap="round" stroke-linejoin="round"/>
<path d="M6.59204 9.40882C5.28204 8.09815 4.44738 6.43948 5.43004 5.45215" stroke="white" stroke-linecap="round" stroke-linejoin="round"/>
<path d="M6.96008 7.26953C7.17275 7.60486 7.44542 7.93686 7.75342 8.24486L7.75475 8.2462C8.06275 8.5542 8.39475 8.82686 8.73008 9.03953" stroke="white" stroke-linecap="round" stroke-linejoin="round"/>
</svg>
