<svg width="20" height="20" viewBox="0 0 20 20" fill="none" xmlns="http://www.w3.org/2000/svg">
<path d="M16.8304 1.00021C17.3663 1.00021 17.9015 1.00021 18.4375 1.00021C16.799 2.87093 15.1597 4.74164 13.5213 6.61316C12.9258 7.29298 12.3312 7.97441 11.7381 8.65262C13.7527 11.5254 15.7415 14.3572 17.7247 17.193C18.1603 17.8149 18.5749 18.4514 19 19.0806H13.6964C12.0547 16.7454 10.413 14.4094 8.72875 12.0132C8.65402 12.1216 8.61464 12.1924 8.56161 12.2526C7.44946 13.5199 6.3333 14.7823 5.22437 16.0527C4.34687 17.058 3.47902 18.0713 2.60714 19.0814H1.08036C1.13741 18.9809 1.18 18.866 1.25473 18.7808C3.05232 16.7301 4.85473 14.6834 6.65473 12.6351C7.12 12.1056 7.58205 11.5728 8.0433 11.0432C7.95411 10.9099 7.88982 10.8086 7.82071 10.7114C5.74187 7.747 3.66304 4.78423 1.58098 1.82387C1.40018 1.56673 1.19446 1.32807 1 1.08057C1.10688 1.05405 1.21455 1.00423 1.32143 1.00423C3.00893 0.998605 4.69643 1.00021 6.38393 1.00021C7.92357 3.20602 9.46241 5.41102 11.0414 7.67468C11.1387 7.54771 11.1909 7.47057 11.2512 7.40146C12.4589 6.02575 13.6707 4.65325 14.8753 3.27432C15.5334 2.52218 16.1795 1.75878 16.8304 1.00021ZM3.17125 2.16378C3.29018 2.34378 3.3633 2.46352 3.44527 2.57843C6.87813 7.3878 10.3295 12.1835 13.727 17.0178C14.23 17.733 14.7274 18.105 15.6033 17.9628C15.9962 17.8993 16.4077 17.9524 16.877 17.9524C16.4229 17.3167 16.0268 16.7623 15.6306 16.207C12.3689 11.6371 9.10804 7.06637 5.84152 2.49887C5.7475 2.36709 5.60286 2.18307 5.47509 2.17825C4.73179 2.14771 3.98607 2.16298 3.17045 2.16298L3.17125 2.16378Z" fill="black" stroke="#0F0F0F" stroke-width="0.5" stroke-linejoin="round"/>
</svg>
