<svg width="214" height="100" viewBox="0 0 214 100" fill="none" xmlns="http://www.w3.org/2000/svg">
<path d="M111.849 39.6217L113.571 39.9492C113.736 39.9816 113.889 40.0886 113.983 40.2378C114.073 40.3869 114.096 40.562 114.038 40.7079L113.516 42.0437H117.987L119.024 41.2883L119.465 40.2248L119.112 39.6152C116.641 39.6152 114.268 39.6152 111.846 39.625L111.849 39.6217Z" fill="#0F0F0F"/>
<path d="M143.166 32.8805C143.28 33.062 143.303 33.276 143.231 33.4544C143.231 33.4544 142.972 34.1125 142.57 35.1306H147.673L148.458 32.994C148.458 32.994 148.467 32.968 148.474 32.955L148.156 32.4363C146.14 32.4363 144.184 32.4363 142.213 32.4428L142.657 32.5271C142.865 32.566 143.053 32.6957 143.166 32.8805Z" fill="#0F0F0F"/>
<path d="M86.7928 42.4647C88.9878 42.4647 91.024 42.4647 93.125 42.4712L93.0245 42.4517C92.8267 42.4128 92.6419 42.2863 92.5316 42.108C92.4214 41.9297 92.3922 41.7222 92.4571 41.5471L95.5437 32.9907C95.5437 32.9907 95.5534 32.9648 95.5599 32.9518L95.2454 32.4363C93.2579 32.4363 91.332 32.4363 89.3899 32.4428L89.8276 32.5238C90.0318 32.5627 90.2166 32.6924 90.3301 32.874C90.4436 33.0556 90.4663 33.2695 90.395 33.4446L86.796 42.4582L86.7928 42.4647Z" fill="#0F0F0F"/>
<path d="M97.0805 57.9368L97.6252 58.0373C97.8781 58.086 98.1083 58.2449 98.2477 58.4718C98.3871 58.6988 98.4163 58.9614 98.3288 59.1819L93.8641 70.3678C96.5877 70.3678 99.1134 70.3678 101.72 70.3775L101.597 70.3548C101.351 70.3062 101.124 70.1505 100.984 69.93C100.845 69.7096 100.812 69.4534 100.89 69.233L104.719 58.6177C104.719 58.6177 104.732 58.5853 104.739 58.5723L104.35 57.9336C101.882 57.9336 99.496 57.9336 97.0837 57.9401L97.0805 57.9368Z" fill="#0F0F0F"/>
<path d="M114.41 32.2614L116.135 32.5888C116.301 32.6213 116.453 32.7283 116.547 32.8774C116.638 33.0265 116.661 33.2016 116.602 33.3475L116.08 34.6834H120.551L121.589 33.9279L122.03 32.8644L121.676 32.2549C119.206 32.2549 116.832 32.2549 114.41 32.2646V32.2614Z" fill="#0F0F0F"/>
<path d="M72.1214 57.6157C69.2422 57.6157 66.4603 57.6157 63.6266 57.6287L65.7535 58.0307C65.9578 58.0696 66.1458 58.2026 66.2626 58.3841C66.376 58.569 66.402 58.7829 66.3307 58.9645L66.0972 59.5643C65.9124 60.041 66.3371 60.6148 66.8754 60.6148H70.9898C71.1292 60.6148 71.2622 60.5727 71.3692 60.4949L72.3516 59.7783C72.4391 59.7135 72.5072 59.6292 72.5494 59.5287L72.8995 58.6792C72.9806 58.4847 72.9579 58.2512 72.8412 58.0469C72.692 57.7876 72.4099 57.619 72.1246 57.619L72.1214 57.6157Z" fill="#0F0F0F"/>
<path d="M129.137 57.9368L129.685 58.0406C129.938 58.0892 130.168 58.2481 130.307 58.4751C130.447 58.6988 130.476 58.9646 130.388 59.1851L129.834 60.5825H135.048L136.263 59.7071L136.766 58.514L136.426 57.9336C133.949 57.9336 131.552 57.9336 129.137 57.9401V57.9368Z" fill="#0F0F0F"/>
<path d="M31.0579 0.5L0 85.9115H182.255L213.316 0.5H31.0579ZM159.011 31.4087L162.445 28.1048C162.546 28.0075 162.685 27.9524 162.834 27.9524L170.479 27.9395C170.7 27.9459 170.917 28.0659 171.053 28.254C171.189 28.4453 171.225 28.6755 171.147 28.87L165.739 42.52H168.816L169.798 41.8132L170.444 40.2699C170.528 40.0689 170.723 39.9456 170.95 39.9456H178.582C178.806 39.9456 179.026 40.0624 179.169 40.2537C179.308 40.445 179.347 40.6816 179.269 40.8762L176.837 46.641C176.756 46.8452 176.559 46.9749 176.325 46.9749L158.723 46.9619C158.476 46.9619 158.233 46.8193 158.097 46.5956L156.424 43.8267C156.314 43.6451 156.291 43.4376 156.362 43.2593L160.639 32.5176H159.569C159.303 32.5176 159.044 32.3522 158.917 32.1026C158.791 31.8529 158.827 31.5741 159.005 31.4022L159.011 31.4087ZM156.392 28.3091L158.084 31.091C158.194 31.2725 158.217 31.4833 158.146 31.6616L151.914 46.7253C151.82 46.9003 151.651 46.9814 151.437 46.9814L144.23 46.9717C144.029 46.9328 143.863 46.7836 143.75 46.6053C143.636 46.427 143.607 46.2195 143.672 46.0411L146.117 39.3815H140.897C139.574 42.7308 138.151 46.3167 138.001 46.6312C137.807 47.0462 137.492 46.9846 137.129 46.9846L129.922 46.9944C129.698 46.9944 129.49 46.8939 129.348 46.7026C129.205 46.5145 129.163 46.2778 129.238 46.08L134.422 32.4981H133.32C133.05 32.4981 132.788 32.3328 132.658 32.0799C132.532 31.8302 132.564 31.5481 132.746 31.3763L136.173 28.0983C136.277 28.0011 136.416 27.9459 136.568 27.9459H155.753C156.003 27.9459 156.249 28.0886 156.385 28.3156L156.392 28.3091ZM128.758 37.8803C128.949 38.224 128.994 38.626 128.878 38.96L127.432 43.1231C127.37 43.3047 127.263 43.457 127.124 43.5673L123.463 46.7869C123.304 46.9133 123.11 46.9814 122.902 46.9846L103.205 46.9782C102.615 46.9749 102.586 46.4302 102.651 46.2681L108.117 32.3003H106.843C106.626 32.3003 106.412 32.1642 106.305 31.9599C106.201 31.7556 106.227 31.5254 106.373 31.3828L109.771 28.0562C109.855 27.9751 109.969 27.9297 110.095 27.9297H129.169C129.374 27.9297 129.575 28.0497 129.685 28.2345L131.374 31.0585C131.462 31.2077 131.481 31.3795 131.426 31.5222L129.792 35.6788C129.763 35.7566 129.711 35.8215 129.646 35.8701L128.219 36.9076L128.764 37.8835L128.758 37.8803ZM80.6259 32.4916C80.36 32.4916 80.1007 32.3263 79.9742 32.0766C79.8478 31.827 79.8834 31.5481 80.0618 31.3763L83.4337 28.1178C83.5342 28.0205 83.6737 27.9654 83.8228 27.9654H102.729C102.975 27.9654 103.218 28.1081 103.354 28.3318L105.024 31.0974C105.134 31.279 105.157 31.4865 105.086 31.6648L104.359 33.4967C104.353 33.5259 104.346 33.5519 104.337 33.581L101.36 42.1601C101.351 42.1861 101.341 42.212 101.325 42.2379L98.9221 46.7026C98.8281 46.8776 98.6465 46.9814 98.4358 46.9814H79.8186C79.5722 46.9814 79.329 46.8387 79.1928 46.615L77.4712 43.791C77.3609 43.6094 77.3382 43.3987 77.4096 43.2236L81.6829 32.4916H80.6162H80.6259ZM126.592 10.6613C126.64 10.6386 126.696 10.6224 126.754 10.6224H128.3C128.3 10.6224 128.326 10.6224 128.343 10.6224H131.52C131.66 10.6224 131.802 10.697 131.89 10.817C131.977 10.9369 132 11.0861 131.948 11.2093L129.795 16.3904L134.383 10.7456C134.448 10.6678 134.545 10.6224 134.652 10.6224H138.293C138.4 10.6224 138.51 10.6678 138.598 10.7456C138.682 10.8234 138.737 10.9272 138.747 11.0374L139.24 16.157L141.026 10.8526C141.072 10.7132 141.202 10.6257 141.354 10.6257H146.127C146.266 10.6257 146.405 10.7002 146.493 10.817C146.58 10.9369 146.606 11.0861 146.558 11.2093L142.667 20.239L141.889 22.2752C141.84 22.4049 141.714 22.4892 141.568 22.4892H135.638C135.437 22.4892 135.245 22.3368 135.194 22.139L134.056 17.6258C134.033 17.5415 134.039 17.4539 134.072 17.3826L134.257 16.9676L133.216 18.3585C133.216 18.3585 133.206 18.3747 133.2 18.3812L130.252 22.3595C130.188 22.4438 130.087 22.4957 129.973 22.4957H123.826C123.696 22.4957 123.563 22.4308 123.476 22.3238C123.388 22.2168 123.353 22.0807 123.382 21.9574L125.47 13.4627H124.757C124.591 13.4627 124.429 13.3589 124.348 13.2033C124.27 13.0476 124.29 12.8726 124.403 12.7656L126.488 10.7489C126.517 10.7164 126.553 10.6873 126.595 10.6678L126.592 10.6613ZM110.38 10.6094H124.15C124.267 10.6094 124.381 10.671 124.455 10.7683C124.53 10.8688 124.549 10.992 124.507 11.0925L123.324 14.0754C123.281 14.1824 123.178 14.2473 123.058 14.2473H118.23C118.116 14.2473 118 14.1857 117.928 14.0884C117.857 13.9911 117.834 13.8679 117.873 13.7674L117.906 13.6831L117.672 13.3038H113.12L114.187 13.508C114.294 13.5275 114.388 13.5956 114.446 13.6896C114.505 13.7836 114.518 13.8939 114.482 13.9847L114.161 14.792H117.481C117.598 14.792 117.711 14.8536 117.786 14.9509C117.86 15.0514 117.88 15.1713 117.838 15.2751L117.03 17.3112C116.988 17.4182 116.884 17.4863 116.764 17.4863H111.457L112.527 17.6874C112.634 17.7068 112.728 17.7749 112.786 17.8689C112.845 17.9629 112.857 18.0732 112.819 18.1672L112.16 19.8143H115.497L116.148 19.3442L116.563 18.3488C116.606 18.245 116.709 18.1802 116.826 18.1802H121.667C121.783 18.1802 121.897 18.2418 121.972 18.3391C122.046 18.4396 122.066 18.5628 122.023 18.6633L120.571 22.3206C120.529 22.4276 120.425 22.4924 120.305 22.4924H107.806C107.68 22.4924 107.553 22.4211 107.485 22.3076L106.415 20.5827C106.357 20.4887 106.344 20.3785 106.379 20.2844L109.145 13.3362H108.331C108.195 13.3362 108.059 13.2519 107.994 13.1222C107.929 12.9925 107.945 12.8466 108.039 12.7591L110.179 10.6905C110.231 10.6386 110.303 10.6127 110.38 10.6127V10.6094ZM88.4269 21.9023L91.7826 13.4659H91.0855C90.9202 13.4659 90.7548 13.3621 90.677 13.2065C90.5992 13.0509 90.6186 12.8758 90.7321 12.7656L92.8234 10.7456C92.8396 10.7262 92.8655 10.7132 92.885 10.697C92.9466 10.6321 93.0341 10.5932 93.1347 10.5932H99.3761C99.5771 10.5932 99.7684 10.7456 99.8202 10.9466L100.757 16.1343L102.706 10.8137C102.751 10.6743 102.881 10.5868 103.033 10.5868H107.819C107.958 10.5868 108.098 10.6613 108.185 10.7813C108.273 10.9013 108.299 11.0504 108.25 11.1736L103.572 22.3627C103.507 22.4405 103.409 22.4859 103.302 22.4859H96.7141C96.6071 22.4859 96.4969 22.4405 96.4094 22.3627C96.3251 22.2849 96.27 22.1779 96.2602 22.0709L95.7674 16.9416L93.9776 22.259C93.9323 22.3984 93.8026 22.4859 93.6502 22.4859H88.8646C88.7251 22.4859 88.5857 22.4114 88.4982 22.2914C88.4106 22.1714 88.3847 22.0223 88.4333 21.8991L88.4269 21.9023ZM72.1214 10.6127H85.8914C86.0081 10.6127 86.1216 10.6743 86.1962 10.7716C86.2707 10.8721 86.2902 10.9953 86.248 11.0958L85.0646 14.0787C85.0224 14.1857 84.9187 14.2505 84.7987 14.2505H79.971C79.8575 14.2505 79.7408 14.1922 79.6694 14.0917C79.5949 13.9944 79.5754 13.8712 79.6143 13.7707L79.6467 13.6864L79.4133 13.307H74.8611L75.9278 13.5113C76.0348 13.5307 76.1289 13.5988 76.1872 13.6929C76.2456 13.7869 76.2586 13.8971 76.2229 13.9879L75.9019 14.7952H79.222C79.3387 14.7952 79.4522 14.8568 79.5268 14.9541C79.6013 15.0546 79.6208 15.1746 79.5787 15.2783L78.7713 17.3145C78.7292 17.4215 78.6254 17.4896 78.5055 17.4896H73.1978L74.2678 17.6906C74.3748 17.7101 74.4688 17.7781 74.5272 17.8722C74.5855 17.9662 74.5985 18.0764 74.5596 18.1705L73.9014 19.8175H77.2377L77.8894 19.3474L78.3044 18.352C78.3466 18.2483 78.4503 18.1834 78.5671 18.1834H83.4078C83.5245 18.1834 83.638 18.245 83.7126 18.3423C83.7871 18.4428 83.8066 18.566 83.7645 18.6665L82.3119 22.3238C82.2698 22.4308 82.166 22.4957 82.046 22.4957H69.547C69.4206 22.4957 69.2941 22.4243 69.226 22.3109L68.1561 20.586C68.0977 20.4919 68.0848 20.3817 68.1204 20.2877L70.8861 13.3394H70.0723C69.9361 13.3394 69.7999 13.2551 69.7351 13.1255C69.6702 12.9958 69.6864 12.8499 69.7805 12.7623L71.9204 10.6937C71.9723 10.6419 72.0436 10.6159 72.1214 10.6159V10.6127ZM57.2199 32.5208C56.954 32.5208 56.6946 32.3555 56.5682 32.1058C56.4417 31.8561 56.4774 31.5773 56.6557 31.4055L60.0925 28.0854C60.193 27.9881 60.3324 27.933 60.4816 27.933L68.1431 27.9233C68.3636 27.9297 68.5808 28.0497 68.717 28.2378C68.8532 28.429 68.8888 28.6592 68.811 28.8538L63.3834 42.5168H66.4604L67.4428 41.81L68.088 40.2666C68.1723 40.0656 68.3668 39.9424 68.5938 39.9424H76.2261C76.4499 39.9424 76.6703 40.0591 76.813 40.2504C76.9524 40.4417 76.9913 40.6784 76.9135 40.8729L74.6244 46.6377C74.5434 46.842 74.3456 46.9717 74.1122 46.9717H56.3801C56.1337 46.9717 55.8808 46.816 55.7446 46.5923L54.0716 43.8234C53.9614 43.6418 53.9387 43.4343 54.01 43.256L58.2866 32.5143H57.2166L57.2199 32.5208ZM56.5098 10.6094L61.2792 10.603C61.4154 10.6062 61.5516 10.6808 61.6358 10.8007C61.7201 10.9175 61.7428 11.0634 61.6942 11.1833L60.3941 14.4516C60.2773 14.7466 60.4946 15.0708 60.8156 15.0708H62.6507C62.7188 15.0708 62.7804 15.0838 62.8387 15.1097L63.5293 13.3459L64.5798 10.6094H70.0625L68.7073 14.2635L66.4863 19.918C66.5155 19.9407 66.5414 19.9667 66.5609 19.9959C66.6322 20.0931 66.6549 20.2163 66.616 20.3168L65.8281 22.3109C65.786 22.4178 65.6855 22.4859 65.5623 22.4859H62.2195C62.093 22.4859 61.9666 22.4114 61.8952 22.2946L60.8447 20.5697C60.7896 20.4757 60.7766 20.3687 60.8123 20.2812L61.8207 17.7101H59.4116C59.2268 17.7101 59.0615 17.8235 58.9934 17.9954L58.319 19.6943L57.3917 22.1552C57.3269 22.3303 57.1583 22.447 56.9702 22.447H53.8382C53.6728 22.447 53.5204 22.3562 53.4394 22.2103L52.525 20.5114C52.4569 20.3979 52.444 20.2682 52.4861 20.158L54.9016 14.0884C55.0183 13.7934 54.8011 13.4691 54.4834 13.4691C54.318 13.4691 54.1559 13.3654 54.0781 13.213C54.0003 13.0574 54.0197 12.8855 54.1332 12.7785L56.2731 10.7132C56.3347 10.6516 56.4223 10.6192 56.5163 10.6192L56.5098 10.6094ZM38.0061 12.7461L40.12 10.6775C40.1719 10.6257 40.2432 10.5997 40.3211 10.5997H53.8868C54.0003 10.5997 54.1137 10.6581 54.1883 10.7553C54.2629 10.8526 54.2823 10.9758 54.2434 11.0763L52.9725 14.0592C52.9303 14.1662 52.8298 14.2343 52.7066 14.2343H48.8191L46.5981 19.8889C46.6273 19.9116 46.6532 19.9375 46.6727 19.9667C46.744 20.0639 46.7667 20.1872 46.7278 20.2877L45.9399 22.2817C45.8978 22.3887 45.7973 22.4568 45.6741 22.4568H42.3313C42.2048 22.4568 42.0784 22.3822 42.007 22.2655L40.9566 20.5406C40.9014 20.4465 40.8885 20.3395 40.9241 20.252L43.6412 13.32C43.0349 13.3168 38.2979 13.3232 38.2979 13.3232C38.1617 13.3232 38.0288 13.2389 37.9607 13.1092C37.8958 12.9796 37.912 12.8369 38.0028 12.7461H38.0061ZM27.9226 43.2722L32.0435 32.5305H31.1324C30.8666 32.5305 30.6072 32.3652 30.4807 32.1188C30.3543 31.8691 30.3899 31.5903 30.5683 31.4184L34.0051 28.0918C34.1056 27.9946 34.245 27.9395 34.3942 27.9395H53.2254C53.4718 27.9362 53.7149 28.0789 53.8511 28.3026L55.5533 31.1396C55.6636 31.3212 55.6863 31.5287 55.6149 31.707L54.8886 33.5421C54.8822 33.5713 54.8757 33.5972 54.866 33.6264L54.318 35.2087C54.2434 35.4259 54.0392 35.5653 53.7992 35.5653H46.1766C45.9562 35.5653 45.7357 35.4518 45.5963 35.2638C45.4536 35.0757 45.4114 34.8423 45.4828 34.6477L46.0632 33.0396C46.0632 33.0396 46.0729 33.0136 46.0794 33.0007L45.7649 32.4851C43.7741 32.4851 41.8482 32.4851 39.9028 32.4916L40.3438 32.5727C40.548 32.6116 40.7328 32.7413 40.8463 32.9229C40.9566 33.1044 40.9825 33.3184 40.9112 33.4967L37.309 42.52C39.5072 42.52 39.6078 42.52 40.9014 42.5297L42.5615 42.5395L43.4953 40.1013H40.6485C40.4605 40.1013 40.3632 39.9489 40.4313 39.7608L41.1803 37.6825C41.2484 37.4945 41.4559 37.3421 41.6439 37.3421H53.2708C53.4588 37.3421 53.5561 37.4945 53.488 37.6825L52.8136 39.5501C52.8136 39.5501 52.8136 39.5566 52.8136 39.5598L51.896 42.2055C51.8863 42.2315 51.8766 42.2574 51.8604 42.2833L49.4935 46.6928C49.3995 46.8679 49.2179 46.9717 49.0071 46.9717H30.2894C30.043 46.9717 29.7998 46.829 29.6637 46.6053L27.9907 43.8364C27.8804 43.6548 27.8577 43.4441 27.929 43.269L27.9226 43.2722ZM45.4731 75.854H18.1179C17.9234 75.854 17.7288 75.7664 17.5862 75.614C17.4435 75.4616 17.3527 75.2444 17.3819 75.0758C17.4111 74.9072 20.4167 67.1517 20.4167 67.1517C20.4977 66.9409 20.6988 66.808 20.9387 66.808H30.1533C30.377 66.808 30.6039 66.9247 30.7466 67.1192C30.8893 67.3105 30.9282 67.5505 30.8536 67.7515L29.6215 70.4847C32.974 70.4847 36.6929 70.4847 40.0033 70.4718L38.0806 70.1183C37.8537 70.0762 37.6527 69.9238 37.5424 69.7131C37.4354 69.5023 37.4905 69.2883 37.5522 69.0905L38.1779 66.8793L23.0721 62.4017C22.8808 62.3466 22.7155 62.2104 22.6149 62.0321C22.5177 61.8538 22.4982 61.656 22.5663 61.4841L24.1745 57.7458H22.2907C22.0216 57.7458 21.759 57.5804 21.6325 57.3275C21.5028 57.0746 21.5385 56.7926 21.7168 56.6175L25.8799 52.4965C25.9837 52.396 26.1231 52.3409 26.2787 52.3409L53.2383 52.3474C53.4523 52.3474 53.6663 52.4544 53.809 52.6295C53.9516 52.8078 54.0068 53.0315 53.9549 53.2293L51.8766 58.7963C51.8117 59.0395 51.5977 59.1983 51.3383 59.1983H41.7671C41.5726 59.1983 41.3748 59.1108 41.2321 58.9584C41.0895 58.806 41.0149 58.6082 41.0311 58.4169L41.2905 57.7231C38.2557 57.7231 35.1334 57.7458 32.1505 57.7588L49.7334 62.8459C49.9117 62.8978 50.0674 63.0145 50.1711 63.1734C50.2716 63.3322 50.3073 63.5171 50.2684 63.6824L45.9691 75.5751C45.8751 75.7502 45.6903 75.854 45.4795 75.854H45.4731ZM76.9557 65.7413L64.0351 65.9131C63.7693 65.9131 63.5488 66.059 63.458 66.2924L59.979 75.1309C59.804 75.5751 59.3825 75.8507 58.8799 75.8507H49.8177C49.5908 75.8507 49.367 75.7307 49.2211 75.5395C49.0785 75.3449 49.0363 75.105 49.1174 74.904L55.4528 58.7217C55.6376 58.2451 55.2129 57.6712 54.6747 57.6712H54.2888C54.0197 57.6712 53.7538 57.5026 53.6274 57.2497C53.4977 56.9968 53.5334 56.7115 53.7117 56.5364L57.6414 52.6781C57.8586 52.4641 58.1569 52.3474 58.4843 52.3474L81.4235 52.3409C81.9553 52.3409 82.4805 52.6489 82.7691 53.132L84.3675 55.8101C84.5977 56.196 84.6463 56.6434 84.5004 57.0163L82.6686 61.6722C82.5907 61.8732 82.4578 62.0451 82.2827 62.1683L77.6495 65.5111C77.455 65.6505 77.215 65.7283 76.9589 65.7348L76.9557 65.7413ZM108.386 75.8442L85.1392 75.828C84.8344 75.828 84.5296 75.6497 84.3643 75.3741L82.3119 72.0021C82.1757 71.7784 82.1465 71.5158 82.2341 71.2985L87.5385 57.9857H86.2156C85.8849 57.9857 85.5639 57.7815 85.4083 57.4702C85.2527 57.1622 85.2948 56.8153 85.5153 56.6013L89.6751 52.5387C89.8016 52.4187 89.9734 52.3506 90.1582 52.3506L113.597 52.3377C113.901 52.3377 114.206 52.516 114.372 52.7916L116.486 56.2576C116.622 56.4813 116.651 56.7407 116.563 56.9612L108.989 75.5005C108.873 75.7178 108.649 75.8475 108.386 75.8475V75.8442ZM148.623 56.9612L146.603 62.0126C146.558 62.1294 146.48 62.2266 146.379 62.298L141.341 65.9066L141.938 73.4547L142.904 74.6154C143.105 74.8553 143.166 75.1698 143.066 75.426C142.965 75.6853 142.722 75.8475 142.427 75.8475H132.029C131.815 75.8475 131.595 75.7599 131.426 75.6043C131.257 75.4487 131.15 75.2379 131.131 75.0239L130.382 66.1044H127.633L123.917 75.4162C123.816 75.6691 123.57 75.828 123.281 75.828L113.798 75.8475C113.522 75.8475 113.247 75.7016 113.071 75.4649C112.896 75.2282 112.848 74.9331 112.945 74.69L119.595 57.9825H118.272C117.941 57.9825 117.62 57.7782 117.465 57.4669C117.309 57.1589 117.351 56.812 117.572 56.598L121.774 52.5354C121.9 52.4155 122.069 52.3474 122.257 52.3474L145.669 52.3344C145.974 52.3344 146.279 52.5127 146.444 52.7883L148.542 56.2543C148.678 56.4781 148.707 56.7407 148.62 56.9579L148.623 56.9612ZM181.746 53.2228L179.224 59.1497C179.143 59.3637 178.939 59.4999 178.695 59.4999H170.972L166.563 70.7279C166.618 70.7701 166.67 70.8219 166.712 70.8835C166.858 71.0781 166.897 71.3212 166.819 71.5223L165.253 75.4811C165.169 75.6951 164.967 75.828 164.728 75.828H158.091C157.838 75.828 157.585 75.6789 157.449 75.4487L155.361 72.0216C155.25 71.8368 155.228 71.626 155.296 71.4444L160.691 57.6745C159.485 57.6647 150.079 57.6842 150.079 57.6842C149.807 57.6842 149.541 57.5156 149.411 57.2627C149.281 57.0065 149.314 56.7212 149.495 56.5429L153.691 52.4317C153.795 52.3312 153.937 52.2728 154.093 52.2728H181.039C181.266 52.2728 181.493 52.3895 181.639 52.5841C181.785 52.7786 181.827 53.0185 181.75 53.2196L181.746 53.2228Z" fill="#0F0F0F"/>
<path d="M123.447 96.3582C123.317 97.211 123.79 97.5676 124.715 97.5676C125.58 97.5676 126.086 97.2661 126.281 96.6987C126.501 96.0567 126.151 95.8135 124.734 95.4439C122.092 94.7468 121.881 93.6931 122.331 92.3767C122.896 90.7361 124.575 89.3646 127.295 89.3646C130.016 89.3646 130.784 90.7977 130.389 92.341H127.623C127.727 91.8158 127.642 91.2841 126.627 91.2841C125.973 91.2841 125.483 91.5305 125.301 92.059C125.12 92.5875 125.405 92.795 126.786 93.1646C129.539 93.9168 129.763 94.9997 129.286 96.3907C128.654 98.2258 126.799 99.5 123.93 99.5C121.229 99.5 120.23 98.2388 120.662 96.3582H123.447Z" fill="#0F0F0F"/>
<path d="M135.596 89.5459L133.527 95.5539C133.044 96.9545 133.569 97.4344 134.438 97.4344C135.378 97.4344 136.121 96.8605 136.572 95.5539L138.64 89.5459H141.516L139.548 95.2653C138.429 98.5141 136.169 99.4997 133.679 99.4997C131.189 99.4997 129.662 98.4557 130.758 95.2783L132.733 89.5459H135.599H135.596Z" fill="#0F0F0F"/>
<path d="M149.161 96.131C149.687 94.6039 150.397 92.6358 150.841 91.4751H150.766C149.638 93.5696 147.981 96.4714 146.285 99.3181H143.993C144.382 96.559 144.742 93.6506 145.108 91.4751H145.024C144.71 92.6228 144.103 94.5325 143.526 96.2055L142.456 99.3181H139.908L143.273 89.5459H147.394C147.196 91.5237 146.772 94.3899 146.493 95.8327H146.542C147.333 94.2602 148.879 91.6696 150.179 89.5459H154.184L150.818 99.3181H148.065L149.165 96.131H149.161Z" fill="#0F0F0F"/>
<path d="M161.946 96.131C162.471 94.6039 163.181 92.6358 163.625 91.4751H163.551C162.419 93.5696 160.762 96.4714 159.07 99.3181H156.777C157.166 96.559 157.526 93.6506 157.893 91.4751H157.808C157.494 92.6228 156.888 94.5325 156.314 96.2055L155.244 99.3181H152.695L156.061 89.5459H160.182C159.984 91.5237 159.559 94.3899 159.28 95.8327H159.329C160.12 94.2602 161.667 91.6696 162.967 89.5459H166.971L163.606 99.3181H160.853L161.952 96.131H161.946Z" fill="#0F0F0F"/>
<path d="M171.708 89.5459L168.343 99.3181H165.47L168.835 89.5459H171.708Z" fill="#0F0F0F"/>
<path d="M174.892 91.6698H172.097L172.827 89.5493H181.257L180.527 91.6698H177.758L175.126 99.3183H172.259L174.892 91.6698Z" fill="#0F0F0F"/>
</svg>
