<?xml version="1.0" encoding="UTF-8"?>
<svg id="Layer_2" data-name="Layer 2" xmlns="http://www.w3.org/2000/svg" viewBox="0 0 495.15 328.16">
  <defs>
    <style>
      .cls-1 {
        opacity: .3;
      }

      .cls-2 {
        fill: none;
        stroke: #9900e0;
      }
    </style>
  </defs>
  <g id="Layer_1-2" data-name="Layer 1">
    <g class="cls-1">
      <path class="cls-2" d="m50.95,172.33c0-3.32-.85-5.9-2.56-7.75-1.71-1.85-4.07-2.78-7.09-2.78s-5.41.95-7.17,2.85c-1.75,1.9-2.63,4.46-2.63,7.68s.88,5.78,2.63,7.68,4.14,2.85,7.17,2.85,5.26-.93,7.02-2.78c1.75-1.85,2.63-4.44,2.63-7.75Z"/>
      <path class="cls-2" d="m14.39,142.28c4.39,2.97,9.55,4.46,15.5,4.46h34.51c14.04,0,24.54-2.27,31.51-6.8,6.97-4.53,10.46-11.09,10.46-19.67,0-3.71-.76-6.9-2.27-9.58-1.51-2.68-3.73-5-6.65-6.95-1.56-.88-3.49-1.83-5.78-2.85-2.29-1.02-5-2.07-8.12-3.14-2.44-.78-4.44-1.63-6-2.56-1.56-.93-2.71-1.95-3.44-3.07-.73-1.12-1.1-2.31-1.1-3.58,0-1.17.49-2.53,1.46-4.09.97-1.56,2.22-3.07,3.73-4.53,1.51-1.46,3.09-2.65,4.75-3.58,1.66-.93,3.12-1.39,4.39-1.39,1.17,0,2.39.27,3.66.8,1.27.54,2.53,1.34,3.8,2.41,1.36,1.07,2.95,2.68,4.75,4.83,1.8,2.15,3.83,4.83,6.07,8.04,1.95,2.73,3.56,4.95,4.83,6.65,1.27,1.71,2.14,2.8,2.63,3.29,2.63,2.83,5.17,5,7.6,6.51,2.44,1.51,5.04,2.58,7.82,3.22,2.54.58,5.41.88,8.56.93.05,0,.09.02.14.02h114.95v-35.1c0-13.16-3.05-22.91-9.14-29.25-6.09-6.34-15.14-9.51-27.13-9.51-5.85,0-11.21,1-16.09,3-4.88,2-9.26,5-13.16,8.99-3.9,4-7.36,9.02-10.38,15.06v-25.59h-21.79v54.84h-16.53c-1.56,0-3.1-.24-4.61-.73-1.51-.49-2.95-1.22-4.31-2.19-1.37-.88-2.95-2.36-4.75-4.46-1.8-2.1-3.83-4.75-6.07-7.97-4.19-6.04-7.75-10.72-10.68-14.04-2.92-3.31-6-5.75-9.21-7.31-1.37-.58-2.78-1.02-4.24-1.32s-2.98-.44-4.53-.44c-3.61,0-7.34.88-11.19,2.63-3.85,1.75-7.53,4.15-11.04,7.17-3.51,3.02-6.48,6.39-8.92,10.09-1.85,2.83-3.24,5.58-4.17,8.26-.93,2.68-1.39,5.29-1.39,7.82,0,2.92.37,5.56,1.1,7.9.73,2.34,1.95,4.39,3.66,6.14,1.7,1.75,3.95,3.32,6.73,4.68,2.78,1.36,6.22,2.58,10.31,3.66,3.51.97,6.07,2.05,7.68,3.22,1.61,1.17,2.41,2.58,2.41,4.24,0,2.34-.9,4.04-2.71,5.12-1.81,1.07-4.24,1.78-7.31,2.12-3.07.34-6.56.51-10.46.51h-25.3c-3.02,0-5.87-.88-8.56-2.63-2.68-1.75-4.83-4.09-6.43-7.02-1.61-2.92-2.41-6.05-2.41-9.36,0-5.36.19-9.87.58-13.53.39-3.66,1.22-7.48,2.49-11.48H5.18c-1.56,4.68-2.73,9.36-3.51,14.04-.78,4.68-1.17,9.41-1.17,14.19,0,6.24,1.22,11.87,3.66,16.89,2.44,5.02,5.85,9.02,10.24,11.99Zm161.89-59.59c3.22-6.04,6.6-11.09,10.16-15.14,3.56-4.04,7.33-7.09,11.33-9.14,4-2.05,8.19-3.07,12.58-3.07,6.82,0,11.87,1.68,15.14,5.05,3.27,3.36,4.9,8.61,4.9,15.72v17.99h-54.11v-11.41Z"/>
      <path class="cls-2" d="m75.81,172.33c0-3.22-.85-5.78-2.56-7.68-1.71-1.9-4.07-2.85-7.09-2.85s-5.41.95-7.17,2.85c-1.75,1.9-2.63,4.46-2.63,7.68s.88,5.78,2.63,7.68,4.14,2.85,7.17,2.85,5.26-.95,7.02-2.85,2.63-4.46,2.63-7.68Z"/>
      <path class="cls-2" d="m206.85,26.68c2.92,0,5.26-.95,7.02-2.85,1.75-1.9,2.63-4.46,2.63-7.68s-.85-5.9-2.56-7.75c-1.71-1.85-4.07-2.78-7.09-2.78s-5.53.93-7.24,2.78c-1.71,1.85-2.56,4.44-2.56,7.75s.88,5.78,2.63,7.68c1.75,1.9,4.14,2.85,7.17,2.85Z"/>
      <rect class="cls-2" x="277.77" y=".5" width="21.79" height="111.14"/>
      <path class="cls-2" d="m490.11,55.56c-3.02-5.21-7.26-9.24-12.72-12.06-5.46-2.83-11.51-4.24-18.13-4.24-4,0-8.65.71-13.97,2.12-5.31,1.41-10.31,3.49-14.99,6.22-2.15,3.51-3.93,7.73-5.34,12.65-1.41,4.92-2.12,9.48-2.12,13.67,0,3.71.34,7.24,1.02,10.6.68,3.36,1.66,6.56,2.92,9.58h-33.34v-54.84h-22.23c-8.87,0-16.82,1.46-23.84,4.39s-12.55,7.24-16.6,12.94c-4.05,5.7-6.07,12.7-6.07,20.99,0,7.31,1.27,13.5,3.8,18.57,2.53,5.07,6.22,8.92,11.04,11.55,4.83,2.63,10.7,3.95,17.62,3.95h14.48v2.63c0,4.29-1.49,7.87-4.46,10.75-2.98,2.87-7.24,4.31-12.8,4.31-3.8,0-7.46-.42-10.97-1.24-3.51-.83-7.26-2.27-11.26-4.31l-8.48,15.94c4.48,2.63,9.14,4.46,13.97,5.48,4.83,1.02,10.55,1.54,17.18,1.54,8.19,0,15.14-1.34,20.84-4.02,5.7-2.68,10.09-6.46,13.16-11.33,3.07-4.88,4.61-10.58,4.61-17.11v-2.63h61.27c7.41,0,14.19-1.58,20.33-4.75,6.14-3.17,10.97-7.63,14.48-13.38,1.66-2.83,2.92-5.9,3.8-9.21.88-3.31,1.32-6.82,1.32-10.53,0-6.92-1.51-12.99-4.53-18.21Zm-118.45,38.53h-10.09c-4.88,0-8.51-1.39-10.9-4.17-2.39-2.78-3.58-7.09-3.58-12.94,0-6.43,1.75-11.41,5.26-14.92s8.38-5.26,14.62-5.26h4.68v37.29Zm98.27-10.02c-1.85,3.07-4.34,5.51-7.46,7.31-3.12,1.81-6.63,2.71-10.53,2.71h-5.56c-1.07-3.22-1.9-6.26-2.49-9.14-.58-2.87-.88-5.53-.88-7.97,0-2.83.19-5.58.58-8.26.39-2.68.93-5.29,1.61-7.82,2.34-1.36,4.65-2.39,6.95-3.07,2.29-.68,4.51-1.02,6.65-1.02,4.19,0,7.55,1.54,10.09,4.61,2.53,3.07,3.8,7.19,3.8,12.36,0,3.8-.93,7.24-2.78,10.31Z"/>
      <path class="cls-2" d="m58.7,238.89c2.92,0,5.26-.95,7.02-2.85,1.75-1.9,2.63-4.46,2.63-7.68s-.85-5.9-2.56-7.75c-1.71-1.85-4.07-2.78-7.09-2.78s-5.41.93-7.17,2.78c-1.75,1.85-2.63,4.44-2.63,7.75s.88,5.78,2.63,7.68c1.75,1.9,4.14,2.85,7.17,2.85Z"/>
      <path class="cls-2" d="m33.84,217.83c-3.02,0-5.41.93-7.17,2.78-1.75,1.85-2.63,4.44-2.63,7.75s.88,5.78,2.63,7.68c1.75,1.9,4.14,2.85,7.17,2.85s5.26-.93,7.02-2.78c1.75-1.85,2.63-4.43,2.63-7.75s-.85-5.9-2.56-7.75c-1.71-1.85-4.07-2.78-7.09-2.78Z"/>
      <path class="cls-2" d="m385.11,259.51c-5.46-2.83-11.51-4.24-18.13-4.24-4,0-8.65.71-13.97,2.12-5.31,1.41-10.31,3.49-14.99,6.21-2.15,3.51-3.93,7.73-5.34,12.65-1.41,4.92-2.12,9.48-2.12,13.67,0,3.71.34,7.24,1.02,10.6.68,3.36,1.66,6.56,2.92,9.58h-33.34v-28.96c0-17.55-4.8-30.95-14.4-40.22-9.6-9.26-24.01-13.89-43.21-13.89-4.88,0-9.56.22-14.04.66-4.49.44-8.9,1.12-13.23,2.05-4.34.93-8.75,2.17-13.23,3.73l4.97,16.67c5.26-1.95,10.68-3.36,16.23-4.24,5.56-.88,11.99-1.32,19.3-1.32,11.7,0,20.59,3.32,26.69,9.94,6.09,6.63,9.14,16.14,9.14,28.52v27.05h-20.33v-20.77c0-6.24-1.37-11.75-4.09-16.52-2.73-4.78-6.56-8.53-11.48-11.26-4.92-2.73-10.75-4.09-17.48-4.09-6.14,0-11.75,1.41-16.82,4.24-5.07,2.83-9.12,6.73-12.14,11.7-3.02,4.97-4.53,10.73-4.53,17.26,0,4.49.68,8.39,2.05,11.7,1.36,3.32,3.02,5.9,4.97,7.75h-17.26c-3.41,0-6.27-.39-8.56-1.17-2.29-.78-4.31-2.14-6.07-4.09.97-2.34,1.68-4.75,2.12-7.24.44-2.49.66-5.09.66-7.82,0-6.92-1.51-12.99-4.53-18.21-3.02-5.21-7.26-9.24-12.72-12.07-2.73-1.36-5.61-2.41-8.63-3.14-3.02-.73-6.19-1.1-9.51-1.1-4,0-8.65.71-13.97,2.12-5.31,1.41-10.31,3.49-14.99,6.21-2.15,3.51-3.93,7.73-5.34,12.65-1.41,4.92-2.12,9.48-2.12,13.67,0,3.71.34,7.24,1.02,10.6.68,3.36,1.66,6.56,2.92,9.58h-33.34v-62.01h-21.94v7.17h-4.09c-8.19,0-15.5,1.41-21.94,4.24-6.43,2.83-11.51,6.95-15.21,12.36-3.71,5.41-5.56,12.07-5.56,19.96s1.68,13.94,5.04,19.3c3.36,5.36,8.21,9.46,14.55,12.28,6.34,2.83,14.04,4.24,23.11,4.24h87.31c5.07,0,10.02-.83,14.84-2.49,4.83-1.66,9.09-4.09,12.8-7.31,3.31,3.61,6.87,6.14,10.68,7.6,3.59,1.38,7.8,2.1,12.62,2.18.04,0,.07.02.11.02h180.9c7.41,0,14.19-1.58,20.33-4.75,6.14-3.17,10.97-7.63,14.48-13.38,1.66-2.83,2.93-5.9,3.8-9.21.88-3.31,1.32-6.82,1.32-10.53,0-6.92-1.51-12.99-4.53-18.21-3.02-5.21-7.27-9.24-12.72-12.07Zm-337.67,50.6h-4.09c-6.63,0-11.7-1.58-15.21-4.75-3.51-3.17-5.26-7.63-5.26-13.38,0-6.24,1.8-10.99,5.41-14.26,3.61-3.26,8.72-4.9,15.35-4.9h3.8v37.29Zm98.27-10.02c-1.85,3.07-4.34,5.51-7.46,7.31-3.12,1.8-6.63,2.71-10.53,2.71h-5.56c-1.07-3.22-1.9-6.26-2.49-9.14-.58-2.88-.88-5.53-.88-7.97,0-2.83.19-5.58.58-8.26.39-2.68.93-5.29,1.61-7.82,2.34-1.36,4.65-2.39,6.95-3.07,2.29-.68,4.51-1.02,6.65-1.02,4.19,0,7.55,1.54,10.09,4.61,2.53,3.07,3.8,7.19,3.8,12.36,0,3.8-.93,7.24-2.78,10.31Zm91.55,10.02h-4.68c-3.9,0-7.17-.73-9.8-2.19-2.63-1.46-4.61-3.63-5.92-6.51-1.32-2.88-1.97-6.51-1.97-10.9s1.05-7.82,3.14-10.6c2.1-2.78,4.8-4.17,8.12-4.17,3.8,0,6.6,1.15,8.41,3.44,1.8,2.29,2.71,5.97,2.71,11.04v19.89Zm140.39-10.02c-1.85,3.07-4.34,5.51-7.46,7.31-3.12,1.8-6.63,2.71-10.53,2.71h-5.56c-1.07-3.22-1.9-6.26-2.49-9.14-.58-2.88-.88-5.53-.88-7.97,0-2.83.19-5.58.58-8.26.39-2.68.93-5.29,1.61-7.82,2.34-1.36,4.65-2.39,6.95-3.07,2.29-.68,4.51-1.02,6.65-1.02,4.19,0,7.55,1.54,10.09,4.61,2.53,3.07,3.8,7.19,3.8,12.36,0,3.8-.93,7.24-2.78,10.31Z"/>
    </g>
  </g>
</svg>