<svg width="795" height="253" viewBox="0 0 795 253" fill="none" xmlns="http://www.w3.org/2000/svg">
<g opacity="0.3">
<mask id="path-1-outside-1_761_5637" maskUnits="userSpaceOnUse" x="-1" y="-1" width="797" height="255" fill="black">
<rect fill="white" x="-1" y="-1" width="797" height="255"/>
<path d="M37.65 14.33H64.69V100H37.65V14.33ZM0.47 2.49999H101.87V26.42H0.47V2.49999ZM167.011 102.08C155.485 102.08 145.345 99.9567 136.591 95.71C127.925 91.4633 121.165 85.5267 116.311 77.9C111.545 70.2733 109.161 61.39 109.161 51.25C109.161 41.11 111.545 32.2267 116.311 24.6C121.165 16.9733 127.925 11.0367 136.591 6.79C145.345 2.54333 155.485 0.419996 167.011 0.419996C178.625 0.419996 188.765 2.54333 197.431 6.79C206.098 11.0367 212.858 16.9733 217.711 24.6C222.565 32.2267 224.991 41.11 224.991 51.25C224.991 61.39 222.565 70.2733 217.711 77.9C212.858 85.5267 206.098 91.4633 197.431 95.71C188.765 99.9567 178.625 102.08 167.011 102.08ZM167.011 78.03C173.338 78.03 178.798 76.9467 183.391 74.78C187.985 72.6133 191.495 69.5367 193.921 65.55C196.435 61.5633 197.691 56.7967 197.691 51.25C197.691 45.7033 196.435 40.9367 193.921 36.95C191.495 32.9633 187.985 29.8867 183.391 27.72C178.798 25.5533 173.338 24.47 167.011 24.47C160.771 24.47 155.355 25.5533 150.761 27.72C146.168 29.8867 142.615 32.9633 140.101 36.95C137.588 40.9367 136.331 45.7033 136.331 51.25C136.331 56.7967 137.588 61.5633 140.101 65.55C142.615 69.5367 146.168 72.6133 150.761 74.78C155.355 76.9467 160.771 78.03 167.011 78.03ZM297.511 2.49999C305.658 2.49999 312.678 3.88666 318.571 6.65999C324.551 9.43333 329.101 13.3767 332.221 18.49C335.341 23.5167 336.901 29.41 336.901 36.17C336.901 42.8433 335.341 48.7367 332.221 53.85C329.101 58.8767 324.551 62.7767 318.571 65.55C312.678 68.3233 305.658 69.71 297.511 69.71H255.261V48.13H295.821C300.154 48.13 303.534 47.09 305.961 45.01C308.388 42.8433 309.601 39.8967 309.601 36.17C309.601 32.3567 308.388 29.41 305.961 27.33C303.534 25.1633 300.154 24.08 295.821 24.08H257.601L269.691 11.6V100H242.781V2.49999H297.511ZM352.56 2.49999H379.47V100H352.56V2.49999ZM509.818 59.18C508.865 67.76 505.918 75.3 500.978 81.8C496.038 88.2133 489.538 93.1967 481.478 96.75C473.505 100.303 464.318 102.08 453.918 102.08C442.565 102.08 432.641 99.9567 424.148 95.71C415.655 91.4633 409.025 85.5267 404.258 77.9C399.578 70.2733 397.238 61.39 397.238 51.25C397.238 41.11 399.578 32.2267 404.258 24.6C409.025 16.9733 415.655 11.0367 424.148 6.79C432.641 2.54333 442.565 0.419996 453.918 0.419996C464.318 0.419996 473.505 2.19666 481.478 5.75C489.538 9.30333 496.038 14.33 500.978 20.83C505.918 27.2433 508.865 34.74 509.818 43.32H482.778C481.911 39.16 480.221 35.65 477.708 32.79C475.195 29.8433 471.901 27.59 467.828 26.03C463.841 24.47 459.205 23.69 453.918 23.69C447.851 23.69 442.608 24.8167 438.188 27.07C433.768 29.2367 430.388 32.4 428.048 36.56C425.708 40.6333 424.538 45.53 424.538 51.25C424.538 56.97 425.708 61.91 428.048 66.07C430.388 70.1433 433.768 73.3067 438.188 75.56C442.608 77.7267 447.851 78.81 453.918 78.81C459.205 78.81 463.841 78.0733 467.828 76.6C471.901 75.1267 475.195 72.9167 477.708 69.97C480.221 67.0233 481.911 63.4267 482.778 59.18H509.818ZM522.375 68.02H549.805C550.239 70.7067 551.495 73.0467 553.575 75.04C555.655 77.0333 558.429 78.5933 561.895 79.72C565.449 80.76 569.609 81.28 574.375 81.28C580.962 81.28 586.162 80.4567 589.975 78.81C593.789 77.0767 595.695 74.5633 595.695 71.27C595.695 68.7567 594.612 66.8067 592.445 65.42C590.279 64.0333 586.119 63.0367 579.965 62.43L561.765 60.74C548.332 59.5267 538.582 56.4933 532.515 51.64C526.449 46.7 523.415 40.07 523.415 31.75C523.415 24.99 525.365 19.27 529.265 14.59C533.252 9.91 538.799 6.4 545.905 4.06C553.099 1.63333 561.462 0.419996 570.995 0.419996C580.355 0.419996 588.675 1.76333 595.955 4.45C603.235 7.05 608.999 10.7767 613.245 15.63C617.579 20.4833 619.919 26.1167 620.265 32.53H592.965C592.619 30.19 591.492 28.1967 589.585 26.55C587.765 24.8167 585.252 23.5167 582.045 22.65C578.839 21.6967 574.982 21.22 570.475 21.22C564.409 21.22 559.599 22.0433 556.045 23.69C552.492 25.25 550.715 27.59 550.715 30.71C550.715 32.9633 551.755 34.7833 553.835 36.17C556.002 37.5567 559.859 38.51 565.405 39.03L584.775 40.98C594.049 41.8467 601.459 43.3633 607.005 45.53C612.552 47.61 616.582 50.5133 619.095 54.24C621.609 57.9667 622.865 62.6033 622.865 68.15C622.865 74.9967 620.829 80.9767 616.755 86.09C612.682 91.1167 606.962 95.06 599.595 97.92C592.229 100.693 583.649 102.08 573.855 102.08C563.802 102.08 554.919 100.693 547.205 97.92C539.579 95.06 533.599 91.0733 529.265 85.96C524.932 80.76 522.635 74.78 522.375 68.02ZM7.1 152.5H34.01V250H7.1V152.5ZM146.418 231.15L138.098 232.84V152.5H164.228V250H130.298L74.0084 169.79L82.1984 168.1V250H56.0684V152.5H90.9084L146.418 231.15ZM235.563 192.41H306.283V215.16H235.563V192.41ZM308.753 152.5V175.25H236.473L249.343 162.38V250H222.433V152.5H308.753ZM379.297 252.08C367.77 252.08 357.63 249.957 348.877 245.71C340.21 241.463 333.45 235.527 328.597 227.9C323.83 220.273 321.447 211.39 321.447 201.25C321.447 191.11 323.83 182.227 328.597 174.6C333.45 166.973 340.21 161.037 348.877 156.79C357.63 152.543 367.77 150.42 379.297 150.42C390.91 150.42 401.05 152.543 409.717 156.79C418.384 161.037 425.144 166.973 429.997 174.6C434.85 182.227 437.277 191.11 437.277 201.25C437.277 211.39 434.85 220.273 429.997 227.9C425.144 235.527 418.384 241.463 409.717 245.71C401.05 249.957 390.91 252.08 379.297 252.08ZM379.297 228.03C385.624 228.03 391.084 226.947 395.677 224.78C400.27 222.613 403.78 219.537 406.207 215.55C408.72 211.563 409.977 206.797 409.977 201.25C409.977 195.703 408.72 190.937 406.207 186.95C403.78 182.963 400.27 179.887 395.677 177.72C391.084 175.553 385.624 174.47 379.297 174.47C373.057 174.47 367.64 175.553 363.047 177.72C358.454 179.887 354.9 182.963 352.387 186.95C349.874 190.937 348.617 195.703 348.617 201.25C348.617 206.797 349.874 211.563 352.387 215.55C354.9 219.537 358.454 222.613 363.047 224.78C367.64 226.947 373.057 228.03 379.297 228.03ZM563.357 209.18C562.403 217.76 559.457 225.3 554.517 231.8C549.577 238.213 543.077 243.197 535.017 246.75C527.043 250.303 517.857 252.08 507.457 252.08C496.103 252.08 486.18 249.957 477.687 245.71C469.193 241.463 462.563 235.527 457.797 227.9C453.117 220.273 450.777 211.39 450.777 201.25C450.777 191.11 453.117 182.227 457.797 174.6C462.563 166.973 469.193 161.037 477.687 156.79C486.18 152.543 496.103 150.42 507.457 150.42C517.857 150.42 527.043 152.197 535.017 155.75C543.077 159.303 549.577 164.33 554.517 170.83C559.457 177.243 562.403 184.74 563.357 193.32H536.317C535.45 189.16 533.76 185.65 531.247 182.79C528.733 179.843 525.44 177.59 521.367 176.03C517.38 174.47 512.743 173.69 507.457 173.69C501.39 173.69 496.147 174.817 491.727 177.07C487.307 179.237 483.927 182.4 481.587 186.56C479.247 190.633 478.077 195.53 478.077 201.25C478.077 206.97 479.247 211.91 481.587 216.07C483.927 220.143 487.307 223.307 491.727 225.56C496.147 227.727 501.39 228.81 507.457 228.81C512.743 228.81 517.38 228.073 521.367 226.6C525.44 225.127 528.733 222.917 531.247 219.97C533.76 217.023 535.45 213.427 536.317 209.18H563.357ZM605.944 206.45C605.944 210.87 606.767 214.727 608.414 218.02C610.147 221.227 612.661 223.697 615.954 225.43C619.334 227.163 623.451 228.03 628.304 228.03C633.244 228.03 637.361 227.163 640.654 225.43C643.947 223.697 646.417 221.227 648.064 218.02C649.711 214.727 650.534 210.87 650.534 206.45V152.5H677.574V207.75C677.574 216.677 675.494 224.477 671.334 231.15C667.261 237.737 661.541 242.893 654.174 246.62C646.807 250.26 638.184 252.08 628.304 252.08C618.511 252.08 609.887 250.26 602.434 246.62C595.067 242.893 589.304 237.737 585.144 231.15C581.071 224.477 579.034 216.677 579.034 207.75V152.5H605.944V206.45ZM693.945 218.02H721.375C721.808 220.707 723.065 223.047 725.145 225.04C727.225 227.033 729.998 228.593 733.465 229.72C737.018 230.76 741.178 231.28 745.945 231.28C752.532 231.28 757.732 230.457 761.545 228.81C765.358 227.077 767.265 224.563 767.265 221.27C767.265 218.757 766.182 216.807 764.015 215.42C761.848 214.033 757.688 213.037 751.535 212.43L733.335 210.74C719.902 209.527 710.151 206.493 704.085 201.64C698.018 196.7 694.985 190.07 694.985 181.75C694.985 174.99 696.935 169.27 700.835 164.59C704.821 159.91 710.368 156.4 717.475 154.06C724.668 151.633 733.032 150.42 742.565 150.42C751.925 150.42 760.245 151.763 767.525 154.45C774.805 157.05 780.568 160.777 784.815 165.63C789.148 170.483 791.488 176.117 791.835 182.53H764.535C764.188 180.19 763.062 178.197 761.155 176.55C759.335 174.817 756.822 173.517 753.615 172.65C750.408 171.697 746.552 171.22 742.045 171.22C735.978 171.22 731.168 172.043 727.615 173.69C724.061 175.25 722.285 177.59 722.285 180.71C722.285 182.963 723.325 184.783 725.405 186.17C727.571 187.557 731.428 188.51 736.975 189.03L756.345 190.98C765.618 191.847 773.028 193.363 778.575 195.53C784.122 197.61 788.152 200.513 790.665 204.24C793.178 207.967 794.435 212.603 794.435 218.15C794.435 224.997 792.398 230.977 788.325 236.09C784.252 241.117 778.532 245.06 771.165 247.92C763.798 250.693 755.218 252.08 745.425 252.08C735.371 252.08 726.488 250.693 718.775 247.92C711.148 245.06 705.168 241.073 700.835 235.96C696.501 230.76 694.205 224.78 693.945 218.02Z"/>
</mask>
<path d="M37.65 14.33V13.33H36.65V14.33H37.65ZM64.69 14.33H65.69V13.33H64.69V14.33ZM64.69 100V101H65.69V100H64.69ZM37.65 100H36.65V101H37.65V100ZM0.47 2.49999V1.49999H-0.53V2.49999H0.47ZM101.87 2.49999H102.87V1.49999H101.87V2.49999ZM101.87 26.42V27.42H102.87V26.42H101.87ZM0.47 26.42H-0.53V27.42H0.47V26.42ZM37.65 15.33H64.69V13.33H37.65V15.33ZM63.69 14.33V100H65.69V14.33H63.69ZM64.69 99H37.65V101H64.69V99ZM38.65 100V14.33H36.65V100H38.65ZM0.47 3.49999H101.87V1.49999H0.47V3.49999ZM100.87 2.49999V26.42H102.87V2.49999H100.87ZM101.87 25.42H0.47V27.42H101.87V25.42ZM1.47 26.42V2.49999H-0.53V26.42H1.47ZM136.591 95.71L136.151 96.608L136.155 96.6097L136.591 95.71ZM116.311 77.9L115.463 78.43L115.468 78.4369L116.311 77.9ZM116.311 24.6L115.467 24.0631L115.463 24.07L116.311 24.6ZM136.591 6.79L136.155 5.89028L136.151 5.89201L136.591 6.79ZM197.431 6.79L196.991 7.68799V7.68799L197.431 6.79ZM217.711 24.6L218.555 24.0631L217.711 24.6ZM217.711 77.9L218.555 78.4369L217.711 77.9ZM197.431 95.71L196.991 94.812L197.431 95.71ZM183.391 74.78L183.818 75.6844L183.391 74.78ZM193.921 65.55L193.075 65.0167L193.071 65.0233L193.067 65.0301L193.921 65.55ZM193.921 36.95L193.067 37.4699L193.071 37.4767L193.075 37.4833L193.921 36.95ZM183.391 27.72L183.818 26.8156V26.8156L183.391 27.72ZM150.761 27.72L150.335 26.8156V26.8156L150.761 27.72ZM140.101 36.95L139.255 36.4167L140.101 36.95ZM140.101 65.55L139.255 66.0833L140.101 65.55ZM150.761 74.78L150.335 75.6844L150.761 74.78ZM167.011 101.08C155.608 101.08 145.622 98.9798 137.028 94.8103L136.155 96.6097C145.067 100.933 155.361 103.08 167.011 103.08V101.08ZM137.031 94.812C128.518 90.6406 121.903 84.824 117.155 77.3631L115.468 78.4369C120.426 86.2293 127.331 92.2861 136.151 96.608L137.031 94.812ZM117.159 77.37C112.504 69.9219 110.161 61.2271 110.161 51.25H108.161C108.161 61.5529 110.585 70.6248 115.463 78.43L117.159 77.37ZM110.161 51.25C110.161 41.2729 112.504 32.5781 117.159 25.13L115.463 24.07C110.585 31.8752 108.161 40.9471 108.161 51.25H110.161ZM117.155 25.1369C121.903 17.676 128.518 11.8594 137.031 7.68799L136.151 5.89201C127.331 10.2139 120.426 16.2707 115.468 24.0631L117.155 25.1369ZM137.028 7.68971C145.622 3.52015 155.608 1.42 167.011 1.42V-0.580004C155.361 -0.580004 145.067 1.56651 136.155 5.89029L137.028 7.68971ZM167.011 1.42C178.503 1.42 188.487 3.52072 196.991 7.68799L197.871 5.89201C189.042 1.56594 178.746 -0.580004 167.011 -0.580004V1.42ZM196.991 7.68799C205.504 11.8594 212.12 17.676 216.868 25.1369L218.555 24.0631C213.596 16.2707 206.691 10.2139 197.871 5.89201L196.991 7.68799ZM216.868 25.1369C221.607 32.5841 223.991 41.2763 223.991 51.25H225.991C225.991 40.9437 223.522 31.8692 218.555 24.0631L216.868 25.1369ZM223.991 51.25C223.991 61.2237 221.607 69.9159 216.868 77.3631L218.555 78.4369C223.522 70.6308 225.991 61.5563 225.991 51.25H223.991ZM216.868 77.3631C212.12 84.824 205.504 90.6406 196.991 94.812L197.871 96.608C206.691 92.2861 213.596 86.2293 218.555 78.4369L216.868 77.3631ZM196.991 94.812C188.487 98.9793 178.503 101.08 167.011 101.08V103.08C178.746 103.08 189.042 100.934 197.871 96.608L196.991 94.812ZM167.011 79.03C173.45 79.03 179.062 77.9275 183.818 75.6844L182.965 73.8756C178.533 75.9658 173.226 77.03 167.011 77.03V79.03ZM183.818 75.6844C188.572 73.4419 192.238 70.2386 194.775 66.0699L193.067 65.0301C190.751 68.8347 187.397 71.7848 182.965 73.8756L183.818 75.6844ZM194.767 66.0833C197.398 61.9105 198.691 56.9515 198.691 51.25H196.691C196.691 56.6418 195.471 61.2161 193.075 65.0167L194.767 66.0833ZM198.691 51.25C198.691 45.5485 197.398 40.5895 194.767 36.4167L193.075 37.4833C195.471 41.2839 196.691 45.8582 196.691 51.25H198.691ZM194.775 36.43C192.238 32.2614 188.572 29.0581 183.818 26.8156L182.965 28.6244C187.397 30.7152 190.751 33.6653 193.067 37.4699L194.775 36.43ZM183.818 26.8156C179.062 24.5725 173.45 23.47 167.011 23.47V25.47C173.226 25.47 178.533 26.5342 182.965 28.6244L183.818 26.8156ZM167.011 23.47C160.657 23.47 155.088 24.5733 150.335 26.8156L151.188 28.6244C155.621 26.5334 160.886 25.47 167.011 25.47V23.47ZM150.335 26.8156C145.583 29.0569 141.878 32.2563 139.255 36.4167L140.947 37.4833C143.351 33.6703 146.753 30.7164 151.188 28.6244L150.335 26.8156ZM139.255 36.4167C136.625 40.5895 135.331 45.5485 135.331 51.25H137.331C137.331 45.8582 138.551 41.2839 140.947 37.4833L139.255 36.4167ZM135.331 51.25C135.331 56.9515 136.625 61.9105 139.255 66.0833L140.947 65.0167C138.551 61.2161 137.331 56.6418 137.331 51.25H135.331ZM139.255 66.0833C141.878 70.2436 145.583 73.4431 150.335 75.6844L151.188 73.8756C146.753 71.7836 143.351 68.8297 140.947 65.0167L139.255 66.0833ZM150.335 75.6844C155.088 77.9267 160.657 79.03 167.011 79.03V77.03C160.886 77.03 155.621 75.9666 151.188 73.8756L150.335 75.6844ZM318.571 6.65999L318.145 7.56483L318.15 7.56718L318.571 6.65999ZM332.221 18.49L331.367 19.0109L331.371 19.0174L332.221 18.49ZM332.221 53.85L333.071 54.3774L333.074 54.3709L332.221 53.85ZM318.571 65.55L318.15 64.6428L318.145 64.6452L318.571 65.55ZM255.261 69.71H254.261V70.71H255.261V69.71ZM255.261 48.13V47.13H254.261V48.13H255.261ZM305.961 45.01L306.612 45.7693L306.619 45.7627L306.627 45.7559L305.961 45.01ZM305.961 27.33L305.295 28.0759L305.302 28.0827L305.31 28.0893L305.961 27.33ZM257.601 24.08L256.883 23.3842L255.24 25.08H257.601V24.08ZM269.691 11.6H270.691V9.13054L268.973 10.9042L269.691 11.6ZM269.691 100V101H270.691V100H269.691ZM242.781 100H241.781V101H242.781V100ZM242.781 2.49999V1.49999H241.781V2.49999H242.781ZM297.511 3.49999C305.546 3.49999 312.414 4.86784 318.145 7.56481L318.997 5.75517C312.941 2.90548 305.769 1.49999 297.511 1.49999V3.49999ZM318.15 7.56718C323.97 10.2661 328.36 14.0831 331.367 19.0109L333.074 17.9691C329.841 12.6702 325.132 8.6006 318.992 5.7528L318.15 7.56718ZM331.371 19.0174C334.38 23.8641 335.901 29.5692 335.901 36.17H337.901C337.901 29.2508 336.302 23.1693 333.07 17.9626L331.371 19.0174ZM335.901 36.17C335.901 42.6811 334.381 48.3901 331.367 53.3291L333.074 54.3709C336.301 49.0832 337.901 43.0055 337.901 36.17H335.901ZM331.371 53.3226C328.366 58.165 323.974 61.9418 318.15 64.6428L318.992 66.4572C325.128 63.6115 329.836 59.5883 333.07 54.3774L331.371 53.3226ZM318.145 64.6452C312.414 67.3422 305.546 68.71 297.511 68.71V70.71C305.769 70.71 312.941 69.3045 318.997 66.4548L318.145 64.6452ZM297.511 68.71H255.261V70.71H297.511V68.71ZM256.261 69.71V48.13H254.261V69.71H256.261ZM255.261 49.13H295.821V47.13H255.261V49.13ZM295.821 49.13C300.308 49.13 303.948 48.0523 306.612 45.7693L305.31 44.2507C303.12 46.1277 300.001 47.13 295.821 47.13V49.13ZM306.627 45.7559C309.298 43.371 310.601 40.1357 310.601 36.17H308.601C308.601 39.6577 307.477 42.3157 305.295 44.2641L306.627 45.7559ZM310.601 36.17C310.601 32.1267 309.303 28.8777 306.612 26.5707L305.31 28.0893C307.472 29.9423 308.601 32.5866 308.601 36.17H310.601ZM306.627 26.5841C303.963 24.2059 300.317 23.08 295.821 23.08V25.08C299.991 25.08 303.105 26.1208 305.295 28.0759L306.627 26.5841ZM295.821 23.08H257.601V25.08H295.821V23.08ZM258.319 24.7758L270.409 12.2958L268.973 10.9042L256.883 23.3842L258.319 24.7758ZM268.691 11.6V100H270.691V11.6H268.691ZM269.691 99H242.781V101H269.691V99ZM243.781 100V2.49999H241.781V100H243.781ZM242.781 3.49999H297.511V1.49999H242.781V3.49999ZM352.56 2.49999V1.49999H351.56V2.49999H352.56ZM379.47 2.49999H380.47V1.49999H379.47V2.49999ZM379.47 100V101H380.47V100H379.47ZM352.56 100H351.56V101H352.56V100ZM352.56 3.49999H379.47V1.49999H352.56V3.49999ZM378.47 2.49999V100H380.47V2.49999H378.47ZM379.47 99H352.56V101H379.47V99ZM353.56 100V2.49999H351.56V100H353.56ZM509.818 59.18L510.812 59.2904L510.935 58.18H509.818V59.18ZM500.978 81.8L501.77 82.4102L501.774 82.4051L500.978 81.8ZM481.478 96.75L481.075 95.835L481.071 95.8366L481.478 96.75ZM424.148 95.71L424.595 94.8156L424.148 95.71ZM404.258 77.9L403.406 78.423L403.41 78.43L404.258 77.9ZM404.258 24.6L403.41 24.07L403.406 24.077L404.258 24.6ZM424.148 6.79L424.595 7.68443V7.68443L424.148 6.79ZM481.478 5.75L481.071 6.66341L481.075 6.66502L481.478 5.75ZM500.978 20.83L500.182 21.4351L500.186 21.4402L500.978 20.83ZM509.818 43.32V44.32H510.935L510.812 43.2096L509.818 43.32ZM482.778 43.32L481.799 43.5239L481.965 44.32H482.778V43.32ZM477.708 32.79L476.947 33.4389L476.952 33.4446L476.957 33.4501L477.708 32.79ZM467.828 26.03L467.464 26.9613L467.47 26.9639L467.828 26.03ZM438.188 27.07L438.628 27.9679L438.635 27.9645L438.642 27.9609L438.188 27.07ZM428.048 36.56L428.915 37.0581L428.92 37.0503L428.048 36.56ZM428.048 66.07L427.177 66.5603L427.181 66.5681L428.048 66.07ZM438.188 75.56L437.734 76.4509L437.741 76.4545L437.748 76.4579L438.188 75.56ZM467.828 76.6L467.488 75.6596L467.481 75.662L467.828 76.6ZM477.708 69.97L476.947 69.3211L477.708 69.97ZM482.778 59.18V58.18H481.962L481.798 58.98L482.778 59.18ZM508.824 59.0696C507.89 67.4806 505.006 74.8473 500.182 81.1949L501.774 82.4051C506.83 75.7527 509.84 68.0394 510.812 59.2904L508.824 59.0696ZM500.186 81.1898C495.357 87.4591 488.996 92.343 481.075 95.835L481.882 97.665C490.081 94.0503 496.719 88.9676 501.77 82.4102L500.186 81.1898ZM481.071 95.8366C473.248 99.323 464.204 101.08 453.918 101.08V103.08C464.432 103.08 473.762 101.284 481.885 97.6634L481.071 95.8366ZM453.918 101.08C442.69 101.08 432.925 98.9805 424.595 94.8156L423.701 96.6044C432.358 100.933 442.44 103.08 453.918 103.08V101.08ZM424.595 94.8156C416.257 90.6464 409.77 84.8318 405.106 77.37L403.41 78.43C408.28 86.2215 415.053 92.2803 423.701 96.6044L424.595 94.8156ZM405.11 77.377C400.539 69.9278 398.238 61.2306 398.238 51.25H396.238C396.238 61.5494 398.617 70.6188 403.406 78.423L405.11 77.377ZM398.238 51.25C398.238 41.2694 400.539 32.5722 405.11 25.123L403.406 24.077C398.617 31.8812 396.238 40.9506 396.238 51.25H398.238ZM405.106 25.13C409.77 17.6682 416.257 11.8536 424.595 7.68443L423.701 5.89557C415.053 10.2197 408.28 16.2784 403.41 24.07L405.106 25.13ZM424.595 7.68443C432.925 3.5195 442.69 1.42 453.918 1.42V-0.580004C442.44 -0.580004 432.358 1.56717 423.701 5.89557L424.595 7.68443ZM453.918 1.42C464.204 1.42 473.248 3.17702 481.071 6.6634L481.885 4.8366C473.762 1.21631 464.432 -0.580004 453.918 -0.580004V1.42ZM481.075 6.66502C488.992 10.1555 495.353 15.0806 500.182 21.4351L501.774 20.2249C496.724 13.5794 490.084 8.45112 481.882 4.83497L481.075 6.66502ZM500.186 21.4402C505.007 27.6989 507.89 35.0198 508.824 43.4304L510.812 43.2096C509.84 34.4602 506.83 26.7878 501.77 20.2198L500.186 21.4402ZM509.818 42.32H482.778V44.32H509.818V42.32ZM483.757 43.116C482.859 38.8069 481.1 35.1343 478.459 32.1299L476.957 33.4501C479.343 36.1657 480.964 39.5131 481.799 43.5239L483.757 43.116ZM478.469 32.1411C475.834 29.0519 472.395 26.7083 468.186 25.0961L467.47 26.9639C471.408 28.4717 474.556 30.6348 476.947 33.4389L478.469 32.1411ZM468.193 25.0988C464.066 23.484 459.301 22.69 453.918 22.69V24.69C459.108 24.69 463.617 25.456 467.464 26.9612L468.193 25.0988ZM453.918 22.69C447.728 22.69 442.323 23.8398 437.734 26.1791L438.642 27.9609C442.894 25.7935 447.975 24.69 453.918 24.69V22.69ZM437.748 26.1721C433.152 28.4249 429.619 31.7275 427.177 36.0697L428.92 37.0503C431.157 33.0725 434.384 30.0485 438.628 27.9679L437.748 26.1721ZM427.181 36.0619C424.737 40.3166 423.538 45.3931 423.538 51.25H425.538C425.538 45.6669 426.679 40.9501 428.915 37.0581L427.181 36.0619ZM423.538 51.25C423.538 57.1077 424.737 62.2235 427.177 66.5603L428.92 65.5797C426.679 61.5965 425.538 56.8323 425.538 51.25H423.538ZM427.181 66.5681C429.623 70.8193 433.151 74.1147 437.734 76.4509L438.642 74.6691C434.385 72.4987 431.153 69.4673 428.915 65.5719L427.181 66.5681ZM437.748 76.4579C442.333 78.7055 447.734 79.81 453.918 79.81V77.81C447.969 77.81 442.883 76.7478 438.628 74.6621L437.748 76.4579ZM453.918 79.81C459.295 79.81 464.054 79.061 468.175 77.538L467.481 75.662C463.629 77.0857 459.114 77.81 453.918 77.81V79.81ZM468.168 77.5404C472.385 76.0152 475.83 73.7127 478.469 70.6189L476.947 69.3211C474.559 72.1206 471.418 74.2382 467.488 75.6596L468.168 77.5404ZM478.469 70.6189C481.105 67.5288 482.862 63.7723 483.758 59.38L481.798 58.98C480.961 63.081 479.338 66.5179 476.947 69.3211L478.469 70.6189ZM482.778 60.18H509.818V58.18H482.778V60.18ZM522.375 68.02V67.02H521.336L521.376 68.0584L522.375 68.02ZM549.805 68.02L550.793 67.8608L550.657 67.02H549.805V68.02ZM553.575 75.04L554.267 74.318L553.575 75.04ZM561.895 79.72L561.586 80.671L561.6 80.6756L561.614 80.6797L561.895 79.72ZM589.975 78.81L590.372 79.7281L590.38 79.7243L590.389 79.7204L589.975 78.81ZM592.445 65.42L592.984 64.5777L592.445 65.42ZM579.965 62.43L580.063 61.4348L580.058 61.4343L579.965 62.43ZM561.765 60.74L561.858 59.7443L561.855 59.744L561.765 60.74ZM532.515 51.64L531.884 52.4155L531.891 52.4209L532.515 51.64ZM529.265 14.59L528.504 13.9415L528.497 13.9498L529.265 14.59ZM545.905 4.06L546.218 5.00986L546.225 5.00753L545.905 4.06ZM595.955 4.45L595.609 5.3882L595.619 5.39174L595.955 4.45ZM613.245 15.63L612.493 16.2885L612.499 16.296L613.245 15.63ZM620.265 32.53V33.53H621.321L621.264 32.476L620.265 32.53ZM592.965 32.53L591.976 32.6765L592.103 33.53H592.965V32.53ZM589.585 26.55L588.896 27.2741L588.913 27.2909L588.932 27.3068L589.585 26.55ZM582.045 22.65L581.76 23.6085L581.772 23.6121L581.784 23.6154L582.045 22.65ZM556.045 23.69L556.447 24.6056L556.457 24.6016L556.466 24.5973L556.045 23.69ZM553.835 36.17L553.281 37.002L553.288 37.0072L553.296 37.0123L553.835 36.17ZM565.405 39.03L565.505 38.035L565.499 38.0344L565.405 39.03ZM584.775 40.98L584.675 41.975L584.682 41.9757L584.775 40.98ZM607.005 45.53L606.641 46.4615L606.654 46.4663L607.005 45.53ZM619.095 54.24L619.924 53.6809L619.095 54.24ZM616.755 86.09L617.532 86.7196L617.537 86.7131L616.755 86.09ZM599.595 97.92L599.948 98.8559L599.957 98.8522L599.595 97.92ZM547.205 97.92L546.854 98.8564L546.867 98.861L547.205 97.92ZM529.265 85.96L528.497 86.6002L528.502 86.6065L529.265 85.96ZM522.375 69.02H549.805V67.02H522.375V69.02ZM548.818 68.1792C549.288 71.0937 550.656 73.6276 552.883 75.762L554.267 74.318C552.334 72.4657 551.189 70.3197 550.793 67.8608L548.818 68.1792ZM552.883 75.762C555.097 77.8834 558.013 79.5098 561.586 80.671L562.204 78.769C558.844 77.6769 556.214 76.1833 554.267 74.318L552.883 75.762ZM561.614 80.6797C565.281 81.7528 569.539 82.28 574.375 82.28V80.28C569.678 80.28 565.616 79.7672 562.176 78.7603L561.614 80.6797ZM574.375 82.28C581.027 82.28 586.381 81.4512 590.372 79.7281L589.579 77.8919C585.943 79.4622 580.897 80.28 574.375 80.28V82.28ZM590.389 79.7204C592.399 78.8067 593.981 77.6545 595.062 76.2294C596.153 74.7908 596.695 73.1246 596.695 71.27H594.695C594.695 72.7087 594.284 73.9458 593.469 75.0206C592.643 76.1089 591.365 77.0799 589.562 77.8996L590.389 79.7204ZM596.695 71.27C596.695 68.4061 595.43 66.143 592.984 64.5777L591.906 66.2623C593.794 67.4704 594.695 69.1073 594.695 71.27H596.695ZM592.984 64.5777C591.765 63.7974 590.06 63.1695 587.933 62.66C585.794 62.1475 583.167 61.7409 580.063 61.4348L579.867 63.4252C582.917 63.7258 585.446 64.1208 587.467 64.605C589.501 65.0922 590.959 65.6559 591.906 66.2623L592.984 64.5777ZM580.058 61.4343L561.858 59.7443L561.673 61.7357L579.873 63.4257L580.058 61.4343ZM561.855 59.744C548.49 58.5369 538.977 55.5291 533.14 50.8591L531.891 52.4209C538.187 57.4576 548.173 60.5164 561.675 61.7359L561.855 59.744ZM533.147 50.8646C527.33 46.1279 524.415 39.7912 524.415 31.75H522.415C522.415 40.3488 525.568 47.2721 531.884 52.4154L533.147 50.8646ZM524.415 31.75C524.415 25.1966 526.3 19.7105 530.034 15.2302L528.497 13.9498C524.431 18.8295 522.415 24.7834 522.415 31.75H524.415ZM530.027 15.2385C533.871 10.7257 539.248 7.30491 546.218 5.00983L545.593 3.11016C538.349 5.49508 532.633 9.0943 528.504 13.9415L530.027 15.2385ZM546.225 5.00753C553.293 2.62319 561.544 1.42 570.995 1.42V-0.580004C561.38 -0.580004 552.904 0.643469 545.586 3.11246L546.225 5.00753ZM570.995 1.42C580.261 1.42 588.46 2.74985 595.609 5.38815L596.302 3.51185C588.89 0.776808 580.45 -0.580004 570.995 -0.580004V1.42ZM595.619 5.39174C602.77 7.94575 608.379 11.5868 612.493 16.2885L613.998 14.9715C609.619 9.96653 603.7 6.15424 596.292 3.50826L595.619 5.39174ZM612.499 16.296C616.684 20.9823 618.933 26.4006 619.267 32.584L621.264 32.476C620.905 25.8327 618.474 19.9843 613.991 14.964L612.499 16.296ZM620.265 31.53H592.965V33.53H620.265V31.53ZM593.955 32.3834C593.57 29.7902 592.314 27.5854 590.239 25.7932L588.932 27.3068C590.67 28.8079 591.667 30.5898 591.976 32.6765L593.955 32.3834ZM590.275 25.8259C588.302 23.9466 585.624 22.5813 582.306 21.6846L581.784 23.6154C584.88 24.4521 587.229 25.6867 588.896 27.2741L590.275 25.8259ZM582.33 21.6915C579.005 20.703 575.047 20.22 570.475 20.22V22.22C574.917 22.22 578.672 22.6903 581.76 23.6085L582.33 21.6915ZM570.475 20.22C564.335 20.22 559.362 21.0507 555.625 22.7827L556.466 24.5973C559.835 23.036 564.482 22.22 570.475 22.22V20.22ZM555.643 22.7744C553.759 23.6015 552.27 24.6682 551.251 26.0103C550.222 27.3654 549.715 28.946 549.715 30.71H551.715C551.715 29.354 552.096 28.2046 552.844 27.2197C553.602 26.2218 554.778 25.3385 556.447 24.6056L555.643 22.7744ZM549.715 30.71C549.715 33.3386 550.958 35.4538 553.281 37.002L554.39 35.3379C552.552 34.1129 551.715 32.5881 551.715 30.71H549.715ZM553.296 37.0123C555.681 38.5385 559.75 39.5042 565.312 40.0256L565.499 38.0344C559.967 37.5158 556.323 36.5748 554.374 35.3277L553.296 37.0123ZM565.305 40.025L584.675 41.975L584.875 39.985L565.505 38.035L565.305 40.025ZM584.682 41.9757C593.909 42.8379 601.216 44.3422 606.641 46.4615L607.369 44.5985C601.701 42.3845 594.189 40.8554 584.868 39.9843L584.682 41.9757ZM606.654 46.4663C612.068 48.4963 615.901 51.2922 618.266 54.7991L619.924 53.6809C617.263 49.7345 613.036 46.7237 607.356 44.5937L606.654 46.4663ZM618.266 54.7991C620.645 58.3256 621.865 62.7556 621.865 68.15H623.865C623.865 62.451 622.573 57.6078 619.924 53.6809L618.266 54.7991ZM621.865 68.15C621.865 74.7818 619.898 80.5395 615.973 85.4669L617.537 86.7131C621.759 81.4139 623.865 75.2115 623.865 68.15H621.865ZM615.978 85.4604C612.037 90.3248 606.474 94.1769 599.233 96.9878L599.957 98.8522C607.451 95.9431 613.327 91.9085 617.532 86.7196L615.978 85.4604ZM599.243 96.9841C592.013 99.7061 583.557 101.08 573.855 101.08V103.08C583.741 103.08 592.445 101.681 599.948 98.8559L599.243 96.9841ZM573.855 101.08C563.892 101.08 555.127 99.7056 547.544 96.979L546.867 98.861C554.71 101.681 563.712 103.08 573.855 103.08V101.08ZM547.556 96.9837C540.055 94.1708 534.23 90.2714 530.028 85.3135L528.502 86.6065C532.967 91.8753 539.102 95.9492 546.854 98.8563L547.556 96.9837ZM530.034 85.3198C525.841 80.2893 523.626 74.5208 523.375 67.9816L521.376 68.0584C521.645 75.0392 524.023 81.2307 528.497 86.6002L530.034 85.3198ZM7.1 152.5V151.5H6.1V152.5H7.1ZM34.01 152.5H35.01V151.5H34.01V152.5ZM34.01 250V251H35.01V250H34.01ZM7.1 250H6.1V251H7.1V250ZM7.1 153.5H34.01V151.5H7.1V153.5ZM33.01 152.5V250H35.01V152.5H33.01ZM34.01 249H7.1V251H34.01V249ZM8.1 250V152.5H6.1V250H8.1ZM146.418 231.15L146.617 232.13L148.119 231.825L147.235 230.573L146.418 231.15ZM138.098 232.84H137.098V234.064L138.297 233.82L138.098 232.84ZM138.098 152.5V151.5H137.098V152.5H138.098ZM164.228 152.5H165.228V151.5H164.228V152.5ZM164.228 250V251H165.228V250H164.228ZM130.298 250L129.48 250.574L129.778 251H130.298V250ZM74.0084 169.79L73.8063 168.811L72.3153 169.118L73.1898 170.364L74.0084 169.79ZM82.1984 168.1H83.1984V166.873L81.9963 167.121L82.1984 168.1ZM82.1984 250V251H83.1984V250H82.1984ZM56.0684 250H55.0684V251H56.0684V250ZM56.0684 152.5V151.5H55.0684V152.5H56.0684ZM90.9084 152.5L91.7254 151.923L91.4266 151.5H90.9084V152.5ZM146.219 230.17L137.899 231.86L138.297 233.82L146.617 232.13L146.219 230.17ZM139.098 232.84V152.5H137.098V232.84H139.098ZM138.098 153.5H164.228V151.5H138.098V153.5ZM163.228 152.5V250H165.228V152.5H163.228ZM164.228 249H130.298V251H164.228V249ZM131.117 249.426L74.8269 169.216L73.1898 170.364L129.48 250.574L131.117 249.426ZM74.2105 170.769L82.4005 169.079L81.9963 167.121L73.8063 168.811L74.2105 170.769ZM81.1984 168.1V250H83.1984V168.1H81.1984ZM82.1984 249H56.0684V251H82.1984V249ZM57.0684 250V152.5H55.0684V250H57.0684ZM56.0684 153.5H90.9084V151.5H56.0684V153.5ZM90.0914 153.077L145.601 231.727L147.235 230.573L91.7254 151.923L90.0914 153.077ZM235.563 192.41V191.41H234.563V192.41H235.563ZM306.283 192.41H307.283V191.41H306.283V192.41ZM306.283 215.16V216.16H307.283V215.16H306.283ZM235.563 215.16H234.563V216.16H235.563V215.16ZM308.753 152.5H309.753V151.5H308.753V152.5ZM308.753 175.25V176.25H309.753V175.25H308.753ZM236.473 175.25L235.766 174.543L234.059 176.25H236.473V175.25ZM249.343 162.38H250.343V159.966L248.636 161.673L249.343 162.38ZM249.343 250V251H250.343V250H249.343ZM222.433 250H221.433V251H222.433V250ZM222.433 152.5V151.5H221.433V152.5H222.433ZM235.563 193.41H306.283V191.41H235.563V193.41ZM305.283 192.41V215.16H307.283V192.41H305.283ZM306.283 214.16H235.563V216.16H306.283V214.16ZM236.563 215.16V192.41H234.563V215.16H236.563ZM307.753 152.5V175.25H309.753V152.5H307.753ZM308.753 174.25H236.473V176.25H308.753V174.25ZM237.18 175.957L250.05 163.087L248.636 161.673L235.766 174.543L237.18 175.957ZM248.343 162.38V250H250.343V162.38H248.343ZM249.343 249H222.433V251H249.343V249ZM223.433 250V152.5H221.433V250H223.433ZM222.433 153.5H308.753V151.5H222.433V153.5ZM348.877 245.71L348.437 246.608L348.441 246.61L348.877 245.71ZM328.597 227.9L327.749 228.43L327.753 228.437L328.597 227.9ZM328.597 174.6L327.753 174.063L327.749 174.07L328.597 174.6ZM348.877 156.79L348.441 155.89L348.437 155.892L348.877 156.79ZM409.717 156.79L409.277 157.688L409.717 156.79ZM429.997 174.6L430.841 174.063L429.997 174.6ZM429.997 227.9L430.841 228.437L429.997 227.9ZM409.717 245.71L409.277 244.812L409.717 245.71ZM395.677 224.78L396.104 225.684L395.677 224.78ZM406.207 215.55L405.361 215.017L405.357 215.023L405.353 215.03L406.207 215.55ZM406.207 186.95L405.353 187.47L405.357 187.477L405.361 187.483L406.207 186.95ZM395.677 177.72L396.104 176.816L395.677 177.72ZM363.047 177.72L362.621 176.816L363.047 177.72ZM352.387 186.95L351.541 186.417L352.387 186.95ZM352.387 215.55L351.541 216.083L352.387 215.55ZM363.047 224.78L362.621 225.684L363.047 224.78ZM379.297 251.08C367.894 251.08 357.908 248.98 349.314 244.81L348.441 246.61C357.353 250.934 367.647 253.08 379.297 253.08V251.08ZM349.317 244.812C340.804 240.641 334.189 234.824 329.441 227.363L327.753 228.437C332.712 236.229 339.617 242.286 348.437 246.608L349.317 244.812ZM329.445 227.37C324.79 219.922 322.447 211.227 322.447 201.25H320.447C320.447 211.553 322.871 220.625 327.749 228.43L329.445 227.37ZM322.447 201.25C322.447 191.273 324.79 182.578 329.445 175.13L327.749 174.07C322.871 181.875 320.447 190.947 320.447 201.25H322.447ZM329.441 175.137C334.189 167.676 340.804 161.859 349.317 157.688L348.437 155.892C339.617 160.214 332.712 166.271 327.753 174.063L329.441 175.137ZM349.314 157.69C357.908 153.52 367.894 151.42 379.297 151.42V149.42C367.647 149.42 357.353 151.567 348.441 155.89L349.314 157.69ZM379.297 151.42C390.789 151.42 400.772 153.521 409.277 157.688L410.157 155.892C401.328 151.566 391.032 149.42 379.297 149.42V151.42ZM409.277 157.688C417.79 161.859 424.406 167.676 429.153 175.137L430.841 174.063C425.882 166.271 418.977 160.214 410.157 155.892L409.277 157.688ZM429.153 175.137C433.893 182.584 436.277 191.276 436.277 201.25H438.277C438.277 190.944 435.808 181.869 430.841 174.063L429.153 175.137ZM436.277 201.25C436.277 211.224 433.893 219.916 429.153 227.363L430.841 228.437C435.808 220.631 438.277 211.556 438.277 201.25H436.277ZM429.153 227.363C424.406 234.824 417.79 240.641 409.277 244.812L410.157 246.608C418.977 242.286 425.882 236.229 430.841 228.437L429.153 227.363ZM409.277 244.812C400.772 248.979 390.789 251.08 379.297 251.08V253.08C391.032 253.08 401.328 250.934 410.157 246.608L409.277 244.812ZM379.297 229.03C385.736 229.03 391.348 227.928 396.104 225.684L395.25 223.876C390.819 225.966 385.512 227.03 379.297 227.03V229.03ZM396.104 225.684C400.858 223.442 404.524 220.239 407.061 216.07L405.353 215.03C403.037 218.835 399.683 221.785 395.25 223.876L396.104 225.684ZM407.053 216.083C409.684 211.911 410.977 206.952 410.977 201.25H408.977C408.977 206.642 407.757 211.216 405.361 215.017L407.053 216.083ZM410.977 201.25C410.977 195.548 409.684 190.589 407.053 186.417L405.361 187.483C407.757 191.284 408.977 195.858 408.977 201.25H410.977ZM407.061 186.43C404.524 182.261 400.858 179.058 396.104 176.816L395.25 178.624C399.683 180.715 403.037 183.665 405.353 187.47L407.061 186.43ZM396.104 176.816C391.348 174.572 385.736 173.47 379.297 173.47V175.47C385.512 175.47 390.819 176.534 395.25 178.624L396.104 176.816ZM379.297 173.47C372.943 173.47 367.374 174.573 362.621 176.816L363.474 178.624C367.907 176.533 373.172 175.47 379.297 175.47V173.47ZM362.621 176.816C357.869 179.057 354.164 182.256 351.541 186.417L353.233 187.483C355.637 183.67 359.039 180.716 363.474 178.624L362.621 176.816ZM351.541 186.417C348.911 190.589 347.617 195.548 347.617 201.25H349.617C349.617 195.858 350.837 191.284 353.233 187.483L351.541 186.417ZM347.617 201.25C347.617 206.952 348.911 211.911 351.541 216.083L353.233 215.017C350.837 211.216 349.617 206.642 349.617 201.25H347.617ZM351.541 216.083C354.164 220.244 357.869 223.443 362.621 225.684L363.474 223.876C359.039 221.784 355.637 218.83 353.233 215.017L351.541 216.083ZM362.621 225.684C367.374 227.927 372.943 229.03 379.297 229.03V227.03C373.172 227.03 367.907 225.967 363.474 223.876L362.621 225.684ZM563.357 209.18L564.351 209.29L564.474 208.18H563.357V209.18ZM554.517 231.8L555.309 232.41L555.313 232.405L554.517 231.8ZM535.017 246.75L534.613 245.835L534.61 245.837L535.017 246.75ZM477.687 245.71L478.134 244.816L477.687 245.71ZM457.797 227.9L456.944 228.423L456.949 228.43L457.797 227.9ZM457.797 174.6L456.949 174.07L456.944 174.077L457.797 174.6ZM477.687 156.79L478.134 157.684L477.687 156.79ZM535.017 155.75L534.61 156.663L534.613 156.665L535.017 155.75ZM554.517 170.83L553.721 171.435L553.725 171.44L554.517 170.83ZM563.357 193.32V194.32H564.474L564.351 193.21L563.357 193.32ZM536.317 193.32L535.338 193.524L535.504 194.32H536.317V193.32ZM531.247 182.79L530.486 183.439L530.491 183.445L530.496 183.45L531.247 182.79ZM521.367 176.03L521.002 176.961L521.009 176.964L521.367 176.03ZM491.727 177.07L492.167 177.968L492.174 177.964L492.181 177.961L491.727 177.07ZM481.587 186.56L482.454 187.058L482.458 187.05L481.587 186.56ZM481.587 216.07L480.715 216.56L480.72 216.568L481.587 216.07ZM491.727 225.56L491.273 226.451L491.28 226.454L491.287 226.458L491.727 225.56ZM521.367 226.6L521.027 225.66L521.02 225.662L521.367 226.6ZM531.247 219.97L530.486 219.321V219.321L531.247 219.97ZM536.317 209.18V208.18H535.5L535.337 208.98L536.317 209.18ZM562.363 209.07C561.428 217.481 558.545 224.847 553.721 231.195L555.313 232.405C560.369 225.753 563.379 218.039 564.351 209.29L562.363 209.07ZM553.725 231.19C548.896 237.459 542.534 242.343 534.613 245.835L535.42 247.665C543.619 244.05 550.258 238.968 555.309 232.41L553.725 231.19ZM534.61 245.837C526.787 249.323 517.743 251.08 507.457 251.08V253.08C517.971 253.08 527.3 251.284 535.424 247.663L534.61 245.837ZM507.457 251.08C496.229 251.08 486.464 248.98 478.134 244.816L477.24 246.604C485.896 250.933 495.978 253.08 507.457 253.08V251.08ZM478.134 244.816C469.796 240.646 463.308 234.832 458.645 227.37L456.949 228.43C461.819 236.222 468.591 242.28 477.24 246.604L478.134 244.816ZM458.649 227.377C454.078 219.928 451.777 211.231 451.777 201.25H449.777C449.777 211.549 452.156 220.619 456.944 228.423L458.649 227.377ZM451.777 201.25C451.777 191.269 454.078 182.572 458.649 175.123L456.944 174.077C452.156 181.881 449.777 190.951 449.777 201.25H451.777ZM458.645 175.13C463.308 167.668 469.796 161.854 478.134 157.684L477.24 155.896C468.591 160.22 461.819 166.278 456.949 174.07L458.645 175.13ZM478.134 157.684C486.464 153.52 496.229 151.42 507.457 151.42V149.42C495.978 149.42 485.896 151.567 477.24 155.896L478.134 157.684ZM507.457 151.42C517.743 151.42 526.787 153.177 534.61 156.663L535.424 154.837C527.3 151.216 517.971 149.42 507.457 149.42V151.42ZM534.613 156.665C542.531 160.156 548.891 165.081 553.721 171.435L555.313 170.225C550.262 163.579 543.623 158.451 535.42 154.835L534.613 156.665ZM553.725 171.44C558.545 177.699 561.428 185.02 562.363 193.43L564.351 193.21C563.379 184.46 560.368 176.788 555.309 170.22L553.725 171.44ZM563.357 192.32H536.317V194.32H563.357V192.32ZM537.296 193.116C536.398 188.807 534.638 185.134 531.998 182.13L530.496 183.45C532.882 186.166 534.502 189.513 535.338 193.524L537.296 193.116ZM532.008 182.141C529.373 179.052 525.934 176.708 521.724 175.096L521.009 176.964C524.946 178.472 528.094 180.635 530.486 183.439L532.008 182.141ZM521.731 175.099C517.605 173.484 512.84 172.69 507.457 172.69V174.69C512.647 174.69 517.156 175.456 521.002 176.961L521.731 175.099ZM507.457 172.69C501.267 172.69 495.861 173.84 491.273 176.179L492.181 177.961C496.432 175.794 501.513 174.69 507.457 174.69V172.69ZM491.287 176.172C486.691 178.425 483.158 181.728 480.715 186.07L482.458 187.05C484.696 183.072 487.923 180.048 492.167 177.968L491.287 176.172ZM480.72 186.062C478.276 190.317 477.077 195.393 477.077 201.25H479.077C479.077 195.667 480.218 190.95 482.454 187.058L480.72 186.062ZM477.077 201.25C477.077 207.108 478.276 212.223 480.715 216.56L482.458 215.58C480.218 211.597 479.077 206.832 479.077 201.25H477.077ZM480.72 216.568C483.162 220.819 486.69 224.115 491.273 226.451L492.181 224.669C487.924 222.499 484.692 219.467 482.454 215.572L480.72 216.568ZM491.287 226.458C495.872 228.706 501.272 229.81 507.457 229.81V227.81C501.508 227.81 496.422 226.748 492.167 224.662L491.287 226.458ZM507.457 229.81C512.834 229.81 517.592 229.061 521.713 227.538L521.02 225.662C517.168 227.086 512.653 227.81 507.457 227.81V229.81ZM521.707 227.54C525.924 226.015 529.369 223.713 532.008 220.619L530.486 219.321C528.098 222.121 524.957 224.238 521.027 225.66L521.707 227.54ZM532.008 220.619C534.643 217.529 536.4 213.772 537.297 209.38L535.337 208.98C534.5 213.081 532.877 216.518 530.486 219.321L532.008 220.619ZM536.317 210.18H563.357V208.18H536.317V210.18ZM608.414 218.02L607.52 218.467L607.527 218.481L607.534 218.496L608.414 218.02ZM615.954 225.43L615.488 226.315L615.498 226.32L615.954 225.43ZM640.654 225.43L641.12 226.315L640.654 225.43ZM648.064 218.02L648.954 218.477L648.958 218.467L648.064 218.02ZM650.534 152.5V151.5H649.534V152.5H650.534ZM677.574 152.5H678.574V151.5H677.574V152.5ZM671.334 231.15L670.485 230.621L670.484 230.624L671.334 231.15ZM654.174 246.62L654.617 247.517L654.625 247.512L654.174 246.62ZM602.434 246.62L601.983 247.512L601.995 247.519L602.434 246.62ZM585.144 231.15L584.29 231.671L584.294 231.678L584.299 231.684L585.144 231.15ZM579.034 152.5V151.5H578.034V152.5H579.034ZM605.944 152.5H606.944V151.5H605.944V152.5ZM604.944 206.45C604.944 210.994 605.791 215.01 607.52 218.467L609.308 217.573C607.744 214.443 606.944 210.746 606.944 206.45H604.944ZM607.534 218.496C609.364 221.881 612.023 224.491 615.488 226.315L616.42 224.545C613.298 222.902 610.931 220.573 609.294 217.544L607.534 218.496ZM615.498 226.32C619.053 228.143 623.335 229.03 628.304 229.03V227.03C623.567 227.03 619.615 226.184 616.41 224.54L615.498 226.32ZM628.304 229.03C633.355 229.03 637.644 228.144 641.12 226.315L640.188 224.545C637.078 226.182 633.133 227.03 628.304 227.03V229.03ZM641.12 226.315C644.589 224.489 647.21 221.873 648.954 218.477L647.174 217.563C645.625 220.581 643.306 222.904 640.188 224.545L641.12 226.315ZM648.958 218.467C650.687 215.01 651.534 210.994 651.534 206.45H649.534C649.534 210.746 648.734 214.443 647.17 217.573L648.958 218.467ZM651.534 206.45V152.5H649.534V206.45H651.534ZM650.534 153.5H677.574V151.5H650.534V153.5ZM676.574 152.5V207.75H678.574V152.5H676.574ZM676.574 207.75C676.574 216.516 674.534 224.127 670.485 230.621L672.183 231.679C676.454 224.826 678.574 216.838 678.574 207.75H676.574ZM670.484 230.624C666.513 237.044 660.936 242.078 653.723 245.728L654.625 247.512C662.145 243.708 668.008 238.43 672.185 231.676L670.484 230.624ZM653.731 245.723C646.527 249.283 638.061 251.08 628.304 251.08V253.08C638.307 253.08 647.087 251.237 654.617 247.517L653.731 245.723ZM628.304 251.08C618.635 251.08 610.167 249.284 602.873 245.721L601.995 247.519C609.608 251.236 618.386 253.08 628.304 253.08V251.08ZM602.885 245.728C595.67 242.078 590.047 237.041 585.99 230.616L584.299 231.684C588.561 238.433 594.465 243.709 601.983 247.512L602.885 245.728ZM585.998 230.629C582.033 224.134 580.034 216.519 580.034 207.75H578.034C578.034 216.834 580.108 224.82 584.29 231.671L585.998 230.629ZM580.034 207.75V152.5H578.034V207.75H580.034ZM579.034 153.5H605.944V151.5H579.034V153.5ZM604.944 152.5V206.45H606.944V152.5H604.944ZM693.945 218.02V217.02H692.906L692.946 218.058L693.945 218.02ZM721.375 218.02L722.362 217.861L722.226 217.02H721.375V218.02ZM725.145 225.04L725.837 224.318L725.145 225.04ZM733.465 229.72L733.156 230.671L733.17 230.676L733.184 230.68L733.465 229.72ZM761.545 228.81L761.941 229.728L761.95 229.724L761.959 229.72L761.545 228.81ZM764.015 215.42L764.554 214.578L764.015 215.42ZM751.535 212.43L751.633 211.435L751.627 211.434L751.535 212.43ZM733.335 210.74L733.427 209.744L733.425 209.744L733.335 210.74ZM704.085 201.64L703.453 202.415L703.46 202.421L704.085 201.64ZM700.835 164.59L700.074 163.941L700.067 163.95L700.835 164.59ZM717.475 154.06L717.788 155.01L717.794 155.008L717.475 154.06ZM767.525 154.45L767.179 155.388L767.188 155.392L767.525 154.45ZM784.815 165.63L784.062 166.289L784.069 166.296L784.815 165.63ZM791.835 182.53V183.53H792.89L792.833 182.476L791.835 182.53ZM764.535 182.53L763.546 182.677L763.672 183.53H764.535V182.53ZM761.155 176.55L760.465 177.274L760.483 177.291L760.501 177.307L761.155 176.55ZM753.615 172.65L753.33 173.609L753.342 173.612L753.354 173.615L753.615 172.65ZM727.615 173.69L728.017 174.606L728.026 174.602L728.035 174.597L727.615 173.69ZM725.405 186.17L724.85 187.002L724.858 187.007L724.866 187.012L725.405 186.17ZM736.975 189.03L737.075 188.035L737.068 188.034L736.975 189.03ZM756.345 190.98L756.245 191.975L756.252 191.976L756.345 190.98ZM778.575 195.53L778.211 196.462L778.224 196.466L778.575 195.53ZM790.665 204.24L791.494 203.681V203.681L790.665 204.24ZM788.325 236.09L789.102 236.72L789.107 236.713L788.325 236.09ZM771.165 247.92L771.517 248.856L771.527 248.852L771.165 247.92ZM718.775 247.92L718.424 248.856L718.436 248.861L718.775 247.92ZM700.835 235.96L700.067 236.6L700.072 236.607L700.835 235.96ZM693.945 219.02H721.375V217.02H693.945V219.02ZM720.388 218.179C720.858 221.094 722.226 223.628 724.453 225.762L725.837 224.318C723.904 222.466 722.759 220.32 722.362 217.861L720.388 218.179ZM724.453 225.762C726.667 227.883 729.583 229.51 733.156 230.671L733.774 228.769C730.414 227.677 727.783 226.183 725.837 224.318L724.453 225.762ZM733.184 230.68C736.85 231.753 741.109 232.28 745.945 232.28V230.28C741.247 230.28 737.186 229.767 733.746 228.76L733.184 230.68ZM745.945 232.28C752.597 232.28 757.951 231.451 761.941 229.728L761.148 227.892C757.512 229.462 752.466 230.28 745.945 230.28V232.28ZM761.959 229.72C763.969 228.807 765.55 227.654 766.632 226.229C767.723 224.791 768.265 223.125 768.265 221.27H766.265C766.265 222.709 765.854 223.946 765.038 225.021C764.213 226.109 762.934 227.08 761.131 227.9L761.959 229.72ZM768.265 221.27C768.265 218.406 767 216.143 764.554 214.578L763.476 216.262C765.363 217.47 766.265 219.107 766.265 221.27H768.265ZM764.554 214.578C763.335 213.797 761.629 213.17 759.503 212.66C757.364 212.148 754.737 211.741 751.633 211.435L751.437 213.425C754.486 213.726 757.016 214.121 759.037 214.605C761.07 215.092 762.528 215.656 763.476 216.262L764.554 214.578ZM751.627 211.434L733.427 209.744L733.242 211.736L751.442 213.426L751.627 211.434ZM733.425 209.744C720.06 208.537 710.547 205.529 704.71 200.859L703.46 202.421C709.756 207.458 719.743 210.516 733.245 211.736L733.425 209.744ZM704.716 200.865C698.899 196.128 695.985 189.791 695.985 181.75H693.985C693.985 190.349 697.137 197.272 703.453 202.415L704.716 200.865ZM695.985 181.75C695.985 175.197 697.869 169.71 701.603 165.23L700.067 163.95C696 168.829 693.985 174.783 693.985 181.75H695.985ZM701.596 165.238C705.44 160.726 710.817 157.305 717.788 155.01L717.162 153.11C709.919 155.495 704.203 159.094 700.074 163.942L701.596 165.238ZM717.794 155.008C724.862 152.623 733.114 151.42 742.565 151.42V149.42C732.949 149.42 724.474 150.643 717.155 153.112L717.794 155.008ZM742.565 151.42C751.83 151.42 760.03 152.75 767.179 155.388L767.871 153.512C760.46 150.777 752.019 149.42 742.565 149.42V151.42ZM767.188 155.392C774.34 157.946 779.948 161.587 784.062 166.288L785.567 164.971C781.188 159.967 775.27 156.154 767.861 153.508L767.188 155.392ZM784.069 166.296C788.253 170.982 790.502 176.401 790.836 182.584L792.833 182.476C792.474 175.833 790.043 169.984 785.561 164.964L784.069 166.296ZM791.835 181.53H764.535V183.53H791.835V181.53ZM765.524 182.383C765.14 179.79 763.884 177.585 761.808 175.793L760.501 177.307C762.239 178.808 763.237 180.59 763.546 182.677L765.524 182.383ZM761.844 175.826C759.871 173.947 757.193 172.581 753.876 171.685L753.354 173.615C756.45 174.452 758.798 175.687 760.465 177.274L761.844 175.826ZM753.9 171.691C750.575 170.703 746.617 170.22 742.045 170.22V172.22C746.486 172.22 750.241 172.69 753.33 173.609L753.9 171.691ZM742.045 170.22C735.905 170.22 730.932 171.051 727.194 172.783L728.035 174.597C731.404 173.036 736.052 172.22 742.045 172.22V170.22ZM727.213 172.774C725.329 173.602 723.84 174.668 722.821 176.01C721.792 177.365 721.285 178.946 721.285 180.71H723.285C723.285 179.354 723.666 178.205 724.414 177.22C725.171 176.222 726.348 175.338 728.017 174.606L727.213 172.774ZM721.285 180.71C721.285 183.339 722.528 185.454 724.85 187.002L725.96 185.338C724.122 184.113 723.285 182.588 723.285 180.71H721.285ZM724.866 187.012C727.251 188.539 731.32 189.504 736.881 190.026L737.068 188.034C731.536 187.516 727.892 186.575 725.944 185.328L724.866 187.012ZM736.875 190.025L756.245 191.975L756.445 189.985L737.075 188.035L736.875 190.025ZM756.252 191.976C765.478 192.838 772.786 194.342 778.211 196.461L778.939 194.599C773.271 192.384 765.758 190.855 756.438 189.984L756.252 191.976ZM778.224 196.466C783.637 198.496 787.471 201.292 789.836 204.799L791.494 203.681C788.832 199.734 784.606 196.724 778.926 194.594L778.224 196.466ZM789.836 204.799C792.214 208.326 793.435 212.756 793.435 218.15H795.435C795.435 212.451 794.142 207.608 791.494 203.681L789.836 204.799ZM793.435 218.15C793.435 224.782 791.468 230.539 787.543 235.467L789.107 236.713C793.328 231.414 795.435 225.211 795.435 218.15H793.435ZM787.548 235.46C783.606 240.325 778.043 244.177 770.803 246.988L771.527 248.852C779.02 245.943 784.897 241.909 789.102 236.72L787.548 235.46ZM770.812 246.984C763.582 249.706 755.126 251.08 745.425 251.08V253.08C755.31 253.08 764.014 251.681 771.517 248.856L770.812 246.984ZM745.425 251.08C735.462 251.08 726.697 249.706 719.113 246.979L718.436 248.861C726.28 251.681 735.281 253.08 745.425 253.08V251.08ZM719.126 246.984C711.625 244.171 705.799 240.271 701.598 235.313L700.072 236.607C704.537 241.875 710.672 245.949 718.424 248.856L719.126 246.984ZM701.603 235.32C697.411 230.289 695.196 224.521 694.944 217.982L692.946 218.058C693.214 225.039 695.592 231.231 700.067 236.6L701.603 235.32Z" fill="#9900E0" mask="url(#path-1-outside-1_761_5637)"/>
</g>
</svg>
